<?xml version="1.0" encoding="UTF-8"?><svg id="a" xmlns="http://www.w3.org/2000/svg" viewBox="0 0 13.73 14.71"><defs><style>.b{fill:none;}</style></defs><polygon class="b" points="12.75 1.96 11.77 1.96 10.79 1.96 10.79 .98 9.81 .98 8.83 .98 7.85 .98 6.87 .98 5.88 .98 4.9 .98 3.92 .98 2.94 .98 1.96 .98 1.96 1.96 1.96 2.94 2.94 2.94 2.94 1.96 3.92 1.96 4.9 1.96 5.88 1.96 6.87 1.96 7.85 1.96 8.83 1.96 9.81 1.96 9.81 2.94 10.79 2.94 10.79 3.92 11.77 3.92 12.75 3.92 12.75 2.94 12.75 1.96"/><path class="b" d="M10.79,4.9h-.98v-1.96H2.94v1.96h.98v-.98h.98v.98h.98v.98H.98v.99H3.92v.98H1.96v1.96h.98v-.98h5.89v.98h.98v.98h.98v-.98h.98v-2.94h.98v-1.97h-1.96Zm-1.96,.98h-.98v-.98h.98v.98Z"/><rect x="12.75" y="13.73" width=".98" height=".98"/><rect x="12.75" y="11.77" width=".98" height=".98"/><rect x="12.75" y="5.88" width=".98" height=".99"/><rect x="12.75" y="4.9" width=".98" height=".98"/><rect x="12.75" y="2.94" width=".98" height=".98"/><rect x="12.75" y="1.96" width=".98" height=".98"/><rect x="11.77" y="13.73" width=".98" height=".98"/><rect x="11.77" y="12.75" width=".98" height=".98"/><rect x="11.77" y="10.79" width=".98" height=".98"/><rect x="11.77" y="8.83" width=".98" height=".98"/><rect x="11.77" y="7.85" width=".98" height=".98"/><rect x="11.77" y="6.87" width=".98" height=".98"/><rect x="11.77" y="3.92" width=".98" height=".98"/><rect x="11.77" y=".98" width=".98" height=".98"/><rect x="10.79" y="13.73" width=".98" height=".98"/><rect x="10.79" y="9.81" width=".98" height=".98"/><rect x="10.79" y="3.92" width=".98" height=".98"/><rect x="10.79" y=".98" width=".98" height=".98"/><rect x="9.81" y="10.79" width=".98" height=".98"/><rect x="9.81" y="3.92" width=".98" height=".98"/><rect x="9.81" y="2.94" width=".98" height=".98"/><rect x="9.81" width=".98" height=".98"/><rect x="8.83" y="10.79" width=".98" height=".98"/><rect x="8.83" y="9.81" width=".98" height=".98"/><rect x="8.83" y="1.96" width=".98" height=".98"/><rect x="8.83" width=".98" height=".98"/><rect x="7.85" y="9.81" width=".98" height=".98"/><rect x="7.85" y="8.83" width=".98" height=".98"/><rect x="7.85" y="4.9" width=".98" height=".98"/><rect x="7.85" y="1.96" width=".98" height=".98"/><rect x="7.85" width=".98" height=".98"/><rect x="6.87" y="10.79" width=".98" height=".98"/><rect x="6.87" y="9.81" width=".98" height=".98"/><rect x="6.87" y="8.83" width=".98" height=".98"/><rect x="6.87" y="1.96" width=".98" height=".98"/><rect x="6.87" width=".98" height=".98"/><rect x="5.88" y="8.83" width=".99" height=".98"/><rect x="5.88" y="1.96" width=".99" height=".98"/><rect x="5.88" width=".99" height=".98"/><rect x="4.9" y="9.81" width=".98" height=".98"/><rect x="4.9" y="8.83" width=".98" height=".98"/><rect x="4.9" y="4.9" width=".98" height=".98"/><rect x="4.9" y="1.96" width=".98" height=".98"/><rect x="4.9" width=".98" height=".98"/><rect x="3.92" y="8.83" width=".98" height=".98"/><rect x="3.92" y="4.9" width=".98" height=".98"/><rect x="3.92" y="3.92" width=".98" height=".98"/><rect x="3.92" y="1.96" width=".98" height=".98"/><rect x="3.92" width=".98" height=".98"/><rect x="2.94" y="9.81" width=".98" height=".98"/><rect x="2.94" y="8.83" width=".98" height=".98"/><rect x="2.94" y="6.87" width=".98" height=".98"/><rect x="2.94" y="4.9" width=".98" height=".98"/><rect x="2.94" y="1.96" width=".98" height=".98"/><rect x="2.94" width=".98" height=".98"/><rect x="1.96" y="13.73" width=".98" height=".98"/><rect x="1.96" y="9.81" width=".98" height=".98"/><rect x="1.96" y="6.87" width=".98" height=".98"/><rect x="1.96" y="4.9" width=".98" height=".98"/><rect x="1.96" y="3.92" width=".98" height=".98"/><rect x="1.96" y="2.94" width=".98" height=".98"/><rect x="1.96" width=".98" height=".98"/><rect x=".98" y="13.73" width=".98" height=".98"/><rect x=".98" y="12.75" width=".98" height=".98"/><rect x=".98" y="10.79" width=".98" height=".98"/><rect x=".98" y="8.83" width=".98" height=".98"/><rect x=".98" y="7.85" width=".98" height=".98"/><rect x=".98" y="6.87" width=".98" height=".98"/><rect x=".98" y="4.9" width=".98" height=".98"/><rect x=".98" y="1.96" width=".98" height=".98"/><rect x=".98" y=".98" width=".98" height=".98"/><rect y="13.73" width=".98" height=".98"/><rect y="11.77" width=".98" height=".98"/><rect y="6.87" width=".98" height=".98"/><rect y="5.88" width=".98" height=".99"/></svg>