<svg id="base_layer" data-name="base layer" xmlns="http://www.w3.org/2000/svg" viewBox="0 0 13.72 14.71"><defs><style>.cls-1{fill:none;}</style></defs><polygon class="cls-1" points="2.94 1.96 3.92 1.96 4.9 1.96 5.88 1.96 6.86 1.96 7.84 1.96 8.82 1.96 9.8 1.96 9.8 2.94 10.78 2.94 10.78 3.92 11.76 3.92 12.74 3.92 12.74 2.94 12.74 1.96 11.76 1.96 10.78 1.96 10.78 0.98 9.8 0.98 8.82 0.98 7.84 0.98 6.86 0.98 5.88 0.98 4.9 0.98 3.92 0.98 2.94 0.98 1.96 0.98 1.96 1.96 1.96 2.94 2.94 2.94 2.94 1.96"/><path class="cls-1" d="M2.94,8.83H8.82v1H3.92v2h1v-1h1v1H8.82v-1h2v-1h1V6.86h1v-2H9.8v-2H2.94v2h1v-1h1v1h1v1H1v1H3.92v1H2v2h1ZM7.84,4.9h1v1h-1Z"/><rect x="5.88" y="8.83" width="0.98" height="0.98"/><rect x="7.84" y="8.83" width="0.98" height="0.98"/><rect x="6.86" y="8.83" width="0.98" height="0.98"/><rect x="4.9" y="8.83" width="0.98" height="0.98"/><rect x="3.92" y="8.83" width="0.98" height="0.98"/><rect x="2.94" y="8.83" width="0.98" height="0.98"/><rect x="7.84" y="4.9" width="0.98" height="0.98"/><rect x="3.92" y="3.92" width="0.98" height="0.98"/><rect x="4.9" y="4.9" width="0.98" height="0.98"/><rect x="3.92" y="4.9" width="0.98" height="0.98"/><rect x="2.94" y="4.9" width="0.98" height="0.98"/><rect x="12.74" y="13.73" width="0.98" height="0.98"/><rect x="11.76" y="13.73" width="0.98" height="0.98"/><rect x="10.78" y="13.73" width="0.98" height="0.98"/><rect x="11.76" y="12.75" width="0.98" height="0.98"/><rect x="12.74" y="11.77" width="0.98" height="0.98"/><rect x="11.76" y="10.79" width="0.98" height="0.98"/><rect x="9.8" y="10.79" width="0.98" height="0.98"/><rect x="8.82" y="11.77" width="0.98" height="0.98"/><rect x="8.82" y="10.79" width="0.98" height="0.98"/><rect x="10.78" y="9.81" width="0.98" height="0.98"/><rect x="11.76" y="6.86" width="0.98" height="0.99"/><rect x="11.76" y="7.85" width="0.98" height="0.98"/><rect x="11.76" y="8.83" width="0.98" height="0.98"/><rect x="12.74" y="4.9" width="0.98" height="0.98"/><rect x="12.74" y="5.88" width="0.98" height="0.98"/><rect x="8.82" width="0.98" height="0.98"/><rect x="9.8" width="0.98" height="0.98"/><rect x="7.84" width="0.98" height="0.98"/><rect x="6.86" width="0.98" height="0.98"/><rect x="10.78" y="0.98" width="0.98" height="0.98"/><rect x="11.76" y="0.98" width="0.98" height="0.98"/><rect x="12.74" y="1.96" width="0.98" height="0.98"/><rect x="12.74" y="2.94" width="0.98" height="0.98"/><rect x="11.76" y="3.92" width="0.98" height="0.98"/><rect x="10.78" y="3.92" width="0.98" height="0.98"/><rect x="9.8" y="3.92" width="0.98" height="0.98"/><rect x="9.8" y="2.94" width="0.98" height="0.98"/><rect x="8.82" y="1.96" width="0.98" height="0.98"/><rect x="7.84" y="1.96" width="0.98" height="0.98"/><rect x="6.86" y="1.96" width="0.98" height="0.98"/><rect x="5.88" y="1.96" width="0.98" height="0.98"/><rect x="4.9" y="1.96" width="0.98" height="0.98"/><rect x="3.92" y="1.96" width="0.98" height="0.98"/><rect x="2.94" y="1.96" width="0.98" height="0.98"/><rect x="1.96" width="0.98" height="0.98"/><rect x="2.94" width="0.98" height="0.98"/><rect x="5.88" width="0.98" height="0.98"/><rect x="4.9" width="0.98" height="0.98"/><rect x="3.92" width="0.98" height="0.98"/><rect x="0.98" y="0.98" width="0.98" height="0.98"/><rect x="0.98" y="1.96" width="0.98" height="0.98"/><rect x="1.96" y="2.94" width="0.98" height="0.98"/><rect x="1.96" y="3.92" width="0.98" height="0.98"/><rect x="1.96" y="4.9" width="0.98" height="0.98"/><rect x="0.98" y="4.9" width="0.98" height="0.98"/><rect y="5.88" width="0.98" height="0.98"/><rect y="6.86" width="0.98" height="0.99"/><rect x="2.94" y="6.86" width="0.98" height="0.99"/><rect x="1.96" y="6.86" width="0.98" height="0.99"/><rect x="0.98" y="6.86" width="0.98" height="0.99"/><rect x="0.98" y="7.85" width="0.98" height="0.98"/><rect x="0.98" y="8.83" width="0.98" height="0.98"/><rect x="7.84" y="11.77" width="0.98" height="0.98"/><rect x="6.86" y="11.77" width="0.98" height="0.98"/><rect x="5.88" y="11.77" width="0.98" height="0.98"/><rect x="4.9" y="10.79" width="0.98" height="0.98"/><rect x="4.9" y="11.77" width="0.98" height="0.98"/><rect x="3.92" y="11.77" width="0.98" height="0.98"/><rect x="2.94" y="10.79" width="0.98" height="0.98"/><rect x="2.94" y="9.81" width="0.98" height="0.98"/><rect x="1.96" y="9.81" width="0.98" height="0.98"/><rect x="0.98" y="10.79" width="0.98" height="0.98"/><rect y="11.77" width="0.98" height="0.98"/><rect x="0.98" y="12.75" width="0.98" height="0.98"/><rect x="1.96" y="13.73" width="0.98" height="0.98"/><rect x="0.98" y="13.73" width="0.98" height="0.98"/><rect y="13.73" width="0.98" height="0.98"/></svg>