<?xml version="1.0" encoding="UTF-8"?><svg id="a" xmlns="http://www.w3.org/2000/svg" viewBox="0 0 13.72 14.7"><defs><style>.b{fill:none;}</style></defs><polygon class="b" points="12.74 1.96 11.76 1.96 10.78 1.96 10.78 .98 9.8 .98 8.82 .98 7.84 .98 6.86 .98 5.88 .98 4.9 .98 3.92 .98 2.94 .98 1.96 .98 1.96 1.96 1.96 2.94 2.94 2.94 2.94 1.96 3.92 1.96 4.9 1.96 5.88 1.96 6.86 1.96 7.84 1.96 8.82 1.96 9.8 1.96 9.8 2.94 10.78 2.94 10.78 3.92 11.76 3.92 12.74 3.92 12.74 2.94 12.74 1.96"/><polygon class="b" points="10.78 4.9 9.8 4.9 9.8 5.88 8.82 5.88 7.84 5.88 7.84 4.9 8.82 4.9 9.8 4.9 9.8 3.92 9.8 2.94 8.82 2.94 7.84 2.94 6.86 2.94 5.88 2.94 4.9 2.94 3.92 2.94 2.94 2.94 2.94 3.92 2.94 4.9 3.92 4.9 3.92 3.92 4.9 3.92 5.88 3.92 5.88 4.9 5.88 5.88 4.9 5.88 3.92 5.88 2.94 5.88 1.96 5.88 .98 5.88 .98 6.86 1.96 6.86 2.94 6.86 3.92 6.86 3.92 7.84 2.94 7.84 1.96 7.84 1.96 8.82 1.96 9.8 2.94 9.8 2.94 8.82 3.92 8.82 4.9 8.82 5.88 8.82 6.86 8.82 6.86 9.8 5.88 9.8 4.9 9.8 3.92 9.8 3.92 10.78 3.92 11.76 4.9 11.76 4.9 10.78 5.88 10.78 5.88 11.76 6.86 11.76 7.84 11.76 8.82 11.76 8.82 10.78 9.8 10.78 10.78 10.78 10.78 9.8 11.76 9.8 11.76 8.82 11.76 7.84 11.76 6.86 12.74 6.86 12.74 5.88 12.74 4.9 11.76 4.9 10.78 4.9"/><rect x="8.82" y="4.9" width=".98" height=".98"/><rect x="4.9" y="3.92" width=".98" height=".98"/><rect x="12.74" y="13.72" width=".98" height=".98"/><rect x="12.74" y="11.76" width=".98" height=".98"/><rect x="12.74" y="5.88" width=".98" height=".98"/><rect x="12.74" y="4.9" width=".98" height=".98"/><rect x="12.74" y="2.94" width=".98" height=".98"/><rect x="12.74" y="1.96" width=".98" height=".98"/><rect x="11.76" y="13.72" width=".98" height=".98"/><rect x="11.76" y="12.74" width=".98" height=".98"/><rect x="11.76" y="10.78" width=".98" height=".98"/><rect x="11.76" y="8.82" width=".98" height=".98"/><rect x="11.76" y="7.84" width=".98" height=".98"/><rect x="11.76" y="6.86" width=".98" height=".98"/><rect x="11.76" y="3.92" width=".98" height=".98"/><rect x="11.76" y=".98" width=".98" height=".98"/><rect x="10.78" y="13.72" width=".98" height=".98"/><rect x="10.78" y="9.8" width=".98" height=".98"/><rect x="10.78" y="3.92" width=".98" height=".98"/><rect x="10.78" y=".98" width=".98" height=".98"/><rect x="9.8" y="10.78" width=".98" height=".98"/><rect x="9.8" y="3.92" width=".98" height=".98"/><rect x="9.8" y="2.94" width=".98" height=".98"/><rect x="9.8" width=".98" height=".98"/><rect x="8.82" y="11.76" width=".98" height=".98"/><rect x="8.82" y="10.78" width=".98" height=".98"/><rect x="8.82" y="1.96" width=".98" height=".98"/><rect x="8.82" width=".98" height=".98"/><rect x="7.84" y="11.76" width=".98" height=".98"/><rect x="7.84" y="4.9" width=".98" height=".98"/><rect x="7.84" y="1.96" width=".98" height=".98"/><rect x="7.84" width=".98" height=".98"/><rect x="6.86" y="11.76" width=".98" height=".98"/><rect x="6.86" y="1.96" width=".98" height=".98"/><rect x="6.86" width=".98" height=".98"/><rect x="5.88" y="11.76" width=".98" height=".98"/><rect x="5.88" y="8.82" width=".98" height=".98"/><rect x="5.88" y="1.96" width=".98" height=".98"/><rect x="5.88" width=".98" height=".98"/><rect x="4.9" y="11.76" width=".98" height=".98"/><rect x="4.9" y="10.78" width=".98" height=".98"/><rect x="4.9" y="8.82" width=".98" height=".98"/><rect x="4.9" y="4.9" width=".98" height=".98"/><rect x="4.9" y="1.96" width=".98" height=".98"/><rect x="4.9" width=".98" height=".98"/><rect x="3.92" y="11.76" width=".98" height=".98"/><rect x="3.92" y="8.82" width=".98" height=".98"/><rect x="3.92" y="4.9" width=".98" height=".98"/><rect x="3.92" y="3.92" width=".98" height=".98"/><rect x="3.92" y="1.96" width=".98" height=".98"/><rect x="3.92" width=".98" height=".98"/><rect x="2.94" y="10.78" width=".98" height=".98"/><rect x="2.94" y="9.8" width=".98" height=".98"/><rect x="2.94" y="8.82" width=".98" height=".98"/><rect x="2.94" y="6.86" width=".98" height=".98"/><rect x="2.94" y="4.9" width=".98" height=".98"/><rect x="2.94" y="1.96" width=".98" height=".98"/><rect x="2.94" width=".98" height=".98"/><rect x="1.96" y="13.72" width=".98" height=".98"/><rect x="1.96" y="9.8" width=".98" height=".98"/><rect x="1.96" y="6.86" width=".98" height=".98"/><rect x="1.96" y="4.9" width=".98" height=".98"/><rect x="1.96" y="3.92" width=".98" height=".98"/><rect x="1.96" y="2.94" width=".98" height=".98"/><rect x="1.96" width=".98" height=".98"/><rect x=".98" y="13.72" width=".98" height=".98"/><rect x=".98" y="12.74" width=".98" height=".98"/><rect x=".98" y="10.78" width=".98" height=".98"/><rect x=".98" y="8.82" width=".98" height=".98"/><rect x=".98" y="7.84" width=".98" height=".98"/><rect x=".98" y="6.86" width=".98" height=".98"/><rect x=".98" y="4.9" width=".98" height=".98"/><rect x=".98" y="1.96" width=".98" height=".98"/><rect x=".98" y=".98" width=".98" height=".98"/><rect y="13.72" width=".98" height=".98"/><rect y="11.76" width=".98" height=".98"/><rect y="6.86" width=".98" height=".98"/><rect y="5.88" width=".98" height=".98"/></svg>