<svg id="base_layer" data-name="base layer" xmlns="http://www.w3.org/2000/svg" viewBox="0 0 9.81 10.79"><defs><style>.cls-1{fill:none;}</style></defs><polygon class="cls-1" points="5.88 4.91 4.9 4.91 3.92 4.91 3.92 5.89 3.92 6.87 4.9 6.87 5.88 6.87 5.88 5.89 5.88 4.91"/><polygon class="cls-1" points="1.96 3.93 2.94 3.93 2.94 2.95 3.92 2.95 3.92 1.97 3.92 0.99 2.94 0.99 2.94 1.97 1.96 1.97 1.96 2.95 1.96 3.93"/><polygon class="cls-1" points="5.88 3.93 6.86 3.93 7.84 3.93 7.84 2.95 6.86 2.95 6.86 1.97 5.88 1.97 5.88 2.95 5.88 3.93"/><polygon class="cls-1" points="3.92 8.83 3.92 7.85 2.94 7.85 2.94 6.87 1.96 6.87 0.98 6.87 0.98 7.85 1.96 7.85 1.96 8.83 2.94 8.83 3.92 8.83"/><polygon class="cls-1" points="6.86 5.89 6.86 6.87 6.86 7.85 7.84 7.85 7.84 6.87 8.83 6.87 8.83 5.89 7.84 5.89 6.86 5.89"/><polygon class="cls-1" points="4.9 8.83 4.9 9.81 5.88 9.81 6.86 9.81 6.86 8.83 5.88 8.83 4.9 8.83"/><rect x="3.92" y="2.95" width="0.98" height="0.98"/><rect x="3.92" y="0.99" width="0.98" height="0.98"/><rect x="2.94" y="2.95" width="0.98" height="0.98"/><rect x="3.92" y="1.97" width="0.98" height="0.98"/><rect x="4.9" y="0.99" width="0.98" height="0.98"/><rect x="5.88" y="0.99" width="0.98" height="0.98"/><rect x="6.86" y="1.97" width="0.98" height="0.98"/><rect x="4.9" y="1.97" width="0.98" height="0.98"/><rect x="4.9" y="2.95" width="0.98" height="0.98"/><rect x="1.96" y="4.91" width="0.98" height="0.98"/><rect x="0.98" y="4.91" width="0.98" height="0.98"/><rect x="2.94" y="3.93" width="0.98" height="0.98"/><rect x="1.96" y="3.93" width="0.98" height="0.98"/><rect x="0.98" y="3.93" width="0.98" height="0.98"/><rect x="5.88" y="3.93" width="0.98" height="0.98"/><rect x="6.86" y="3.93" width="0.98" height="0.98"/><rect x="7.84" y="3.93" width="0.99" height="0.98"/><rect x="6.86" y="4.91" width="0.98" height="0.98"/><rect x="7.84" y="4.91" width="0.99" height="0.98"/><rect x="5.88" y="6.87" width="0.98" height="0.98"/><rect x="3.92" y="6.87" width="0.98" height="0.98"/><rect x="4.9" y="6.87" width="0.98" height="0.98"/><rect x="5.88" y="4.91" width="0.98" height="0.98"/><rect x="5.88" y="5.89" width="0.98" height="0.98"/><rect x="3.92" y="3.93" width="0.98" height="0.98"/><rect x="4.9" y="3.93" width="0.98" height="0.98"/><rect x="2.94" y="4.91" width="0.98" height="0.98"/><rect x="2.94" y="5.89" width="0.98" height="0.98"/><rect x="1.96" y="5.89" width="0.98" height="0.98"/><rect x="0.98" y="5.89" width="0.98" height="0.98"/><rect x="2.94" y="6.87" width="0.98" height="0.98"/><rect x="3.92" y="7.85" width="0.98" height="0.98"/><rect x="5.88" y="7.85" width="0.98" height="0.98"/><rect x="4.9" y="7.85" width="0.98" height="0.98"/><rect x="6.86" y="7.85" width="0.98" height="0.98"/><rect x="6.86" y="8.83" width="0.98" height="0.98"/><rect x="7.84" y="7.85" width="0.99" height="0.98"/><rect x="7.84" y="6.87" width="0.99" height="0.98"/><rect x="8.83" y="3.93" width="0.98" height="0.98"/><rect x="8.83" y="5.89" width="0.98" height="0.98"/><rect x="8.83" y="6.87" width="0.98" height="0.98"/><rect x="8.83" y="4.91" width="0.98" height="0.98"/><rect x="7.84" y="2.95" width="0.99" height="0.98"/><rect x="7.84" y="1.97" width="0.99" height="0.98"/><rect x="6.86" y="0.99" width="0.98" height="0.98"/><rect x="2.94" width="0.98" height="0.99"/><rect x="4.9" width="0.98" height="0.99"/><rect x="3.92" width="0.98" height="0.99"/><rect x="5.88" width="0.98" height="0.99"/><rect x="1.96" y="0.99" width="0.98" height="0.98"/><rect x="0.98" y="2.95" width="0.98" height="0.98"/><rect x="0.98" y="1.97" width="0.98" height="0.98"/><rect y="4.91" width="0.98" height="0.98"/><rect y="3.93" width="0.98" height="0.98"/><rect y="5.89" width="0.98" height="0.98"/><rect y="6.87" width="0.98" height="0.98"/><rect x="0.98" y="7.85" width="0.98" height="0.98"/><rect x="3.92" y="8.83" width="0.98" height="0.98"/><rect x="2.94" y="8.83" width="0.98" height="0.98"/><rect x="1.96" y="8.83" width="0.98" height="0.98"/><rect x="4.9" y="9.81" width="0.98" height="0.98"/><rect x="5.88" y="9.81" width="0.98" height="0.98"/><rect x="6.86" y="9.81" width="0.98" height="0.98"/><rect x="7.84" y="9.81" width="0.99" height="0.98"/><rect x="3.92" y="9.81" width="0.98" height="0.98"/><rect x="2.94" y="9.81" width="0.98" height="0.98"/><rect x="1.96" y="9.81" width="0.98" height="0.98"/><rect x="0.98" y="9.81" width="0.98" height="0.98"/></svg>