<svg id="base_layer" data-name="base layer" xmlns="http://www.w3.org/2000/svg" viewBox="0 0 15.6 12.73"><defs><style>.cls-1{fill:#231f20;}</style></defs><rect class="cls-1" x="1.96" y="11.73" width="0.98" height="0.98"/><rect class="cls-1" x="13.73" y="10.75" width="0.98" height="0.98"/><rect class="cls-1" x="13.73" y="5.85" width="0.98" height="0.98"/><rect class="cls-1" x="14.71" y="-0.04" width="0.98" height="0.98"/><rect class="cls-1" x="11.76" y="0.94" width="0.99" height="0.98"/><rect class="cls-1" x="10.78" y="0.94" width="0.98" height="0.98"/><rect class="cls-1" x="10.78" y="2.9" width="0.98" height="0.98"/><rect class="cls-1" x="10.78" y="1.92" width="0.98" height="0.98"/><rect class="cls-1" x="11.76" y="3.88" width="0.99" height="0.99"/><rect class="cls-1" x="12.75" y="3.88" width="0.98" height="0.99"/><rect class="cls-1" x="13.73" y="2.9" width="0.98" height="0.98"/><rect class="cls-1" x="12.75" y="1.92" width="0.98" height="0.98"/><rect class="cls-1" x="12.75" y="0.94" width="0.98" height="0.98"/><rect class="cls-1" x="10.78" y="-0.04" width="0.98" height="0.98"/><rect class="cls-1" x="11.76" y="-0.04" width="0.99" height="0.98"/><rect class="cls-1" x="9.8" y="0.94" width="0.98" height="0.98"/><rect class="cls-1" x="6.86" y="-0.04" width="0.98" height="0.98"/><rect class="cls-1" x="11.76" y="8.79" width="0.99" height="0.98"/><rect class="cls-1" x="11.76" y="7.81" width="0.99" height="0.98"/><rect class="cls-1" x="10.78" y="11.73" width="0.98" height="0.98"/><rect class="cls-1" x="10.78" y="9.77" width="0.98" height="0.98"/><rect class="cls-1" x="10.78" y="8.79" width="0.98" height="0.98"/><rect class="cls-1" x="9.8" y="11.73" width="0.98" height="0.98"/><rect class="cls-1" x="9.8" y="10.75" width="0.98" height="0.98"/><rect class="cls-1" x="9.8" y="9.77" width="0.98" height="0.98"/><rect class="cls-1" x="9.8" y="7.81" width="0.98" height="0.98"/><rect class="cls-1" x="9.8" y="6.83" width="0.98" height="0.98"/><rect class="cls-1" x="9.8" y="5.85" width="0.98" height="0.98"/><rect class="cls-1" x="9.8" y="4.87" width="0.98" height="0.98"/><rect class="cls-1" x="8.82" y="11.73" width="0.98" height="0.98"/><rect class="cls-1" x="8.82" y="9.77" width="0.98" height="0.98"/><rect class="cls-1" x="8.82" y="8.79" width="0.98" height="0.98"/><rect class="cls-1" x="8.82" y="7.81" width="0.98" height="0.98"/><rect class="cls-1" x="8.82" y="6.83" width="0.98" height="0.98"/><rect class="cls-1" x="8.82" y="5.85" width="0.98" height="0.98"/><rect class="cls-1" x="8.82" y="3.88" width="0.98" height="0.99"/><rect class="cls-1" x="7.84" y="11.73" width="0.98" height="0.98"/><rect class="cls-1" x="7.84" y="9.77" width="0.98" height="0.98"/><rect class="cls-1" x="7.84" y="8.79" width="0.98" height="0.98"/><rect class="cls-1" x="7.84" y="5.85" width="0.98" height="0.98"/><rect class="cls-1" x="7.84" y="4.87" width="0.98" height="0.98"/><rect class="cls-1" x="7.84" y="3.88" width="0.98" height="0.99"/><rect class="cls-1" x="6.86" y="11.73" width="0.98" height="0.98"/><rect class="cls-1" x="6.86" y="10.75" width="0.98" height="0.98"/><rect class="cls-1" x="6.86" y="9.77" width="0.98" height="0.98"/><rect class="cls-1" x="6.86" y="8.79" width="0.98" height="0.98"/><rect class="cls-1" x="6.86" y="5.85" width="0.98" height="0.98"/><rect class="cls-1" x="6.86" y="4.87" width="0.98" height="0.98"/><rect class="cls-1" x="6.86" y="3.88" width="0.98" height="0.99"/><rect class="cls-1" x="5.88" y="11.73" width="0.98" height="0.98"/><rect class="cls-1" x="5.88" y="10.75" width="0.98" height="0.98"/><rect class="cls-1" x="5.88" y="8.79" width="0.98" height="0.98"/><rect class="cls-1" x="5.88" y="7.81" width="0.98" height="0.98"/><rect class="cls-1" x="5.88" y="6.83" width="0.98" height="0.98"/><rect class="cls-1" x="5.88" y="5.85" width="0.98" height="0.98"/><rect class="cls-1" x="5.88" y="3.88" width="0.98" height="0.99"/><rect class="cls-1" x="4.9" y="11.73" width="0.98" height="0.98"/><rect class="cls-1" x="4.9" y="10.75" width="0.98" height="0.98"/><rect class="cls-1" x="4.9" y="7.81" width="0.98" height="0.98"/><rect class="cls-1" x="4.9" y="6.83" width="0.98" height="0.98"/><rect class="cls-1" x="4.9" y="5.85" width="0.98" height="0.98"/><rect class="cls-1" x="4.9" y="4.87" width="0.98" height="0.98"/><rect class="cls-1" x="3.92" y="11.73" width="0.98" height="0.98"/><rect class="cls-1" x="3.92" y="9.77" width="0.98" height="0.98"/><rect class="cls-1" x="3.92" y="7.81" width="0.98" height="0.98"/><rect class="cls-1" x="3.92" y="0.94" width="0.98" height="0.98"/><rect class="cls-1" x="3.92" y="-0.04" width="0.98" height="0.98"/><rect class="cls-1" x="2.94" y="8.79" width="0.98" height="0.98"/><rect class="cls-1" x="2.94" y="7.81" width="0.98" height="0.98"/><rect class="cls-1" x="2.94" y="2.9" width="0.98" height="0.98"/><rect class="cls-1" x="2.94" y="1.92" width="0.98" height="0.98"/><rect class="cls-1" x="2.94" y="0.94" width="0.98" height="0.98"/><rect class="cls-1" x="2.94" y="-0.04" width="0.98" height="0.98"/><rect class="cls-1" x="1.96" y="3.88" width="0.98" height="0.99"/><rect class="cls-1" x="1.96" y="0.94" width="0.98" height="0.98"/><rect class="cls-1" x="1.96" y="-0.04" width="0.98" height="0.98"/><rect class="cls-1" x="0.98" y="6.83" width="0.98" height="0.98"/><rect class="cls-1" x="0.98" y="4.87" width="0.98" height="0.98"/><rect class="cls-1" x="0.98" y="1.92" width="0.98" height="0.98"/><rect class="cls-1" x="0.98" y="0.94" width="0.98" height="0.98"/><rect class="cls-1" y="4.87" width="0.98" height="0.98"/><rect class="cls-1" y="3.88" width="0.98" height="0.99"/><rect class="cls-1" y="2.9" width="0.98" height="0.98"/></svg>