<svg id="base_layer" data-name="base layer" xmlns="http://www.w3.org/2000/svg" viewBox="0 0 11.76 9.8"><defs><style>.cls-1{fill:none;}</style></defs><polygon class="cls-1" points="1.96 4.9 2.94 4.9 2.94 3.92 3.92 3.92 3.92 2.94 3.92 1.96 2.94 1.96 2.94 2.94 1.96 2.94 1.96 3.92 1.96 4.9"/><polygon class="cls-1" points="8.82 6.86 7.84 6.86 7.84 7.84 7.84 8.82 8.82 8.82 8.82 7.84 9.8 7.84 9.8 6.86 8.82 6.86"/><polygon class="cls-1" points="5.88 4.9 4.9 4.9 4.9 5.88 4.9 6.86 5.88 6.86 6.86 6.86 6.86 5.88 6.86 4.9 5.88 4.9"/><polygon class="cls-1" points="7.84 2.94 7.84 3.92 8.82 3.92 9.8 3.92 9.8 2.94 8.82 2.94 8.82 1.96 7.84 1.96 7.84 2.94"/><polygon class="cls-1" points="3.92 7.84 3.92 6.86 2.94 6.86 2.94 5.88 1.96 5.88 0.98 5.88 0.98 6.86 1.96 6.86 1.96 7.84 2.94 7.84 3.92 7.84"/><rect x="7.84" y="4.9" width="0.98" height="0.98"/><rect x="9.8" y="4.9" width="0.98" height="0.98"/><rect x="8.82" y="4.9" width="0.98" height="0.98"/><rect x="6.86" y="6.86" width="0.98" height="0.98"/><rect x="9.8" y="5.88" width="0.98" height="0.98"/><rect x="8.82" y="5.88" width="0.98" height="0.98"/><rect x="7.84" y="5.88" width="0.98" height="0.98"/><rect x="3.92" y="3.92" width="0.98" height="0.98"/><rect x="2.94" y="4.9" width="0.98" height="0.98"/><rect x="4.9" y="2.94" width="0.98" height="0.98"/><rect x="5.88" y="2.94" width="0.98" height="0.98"/><rect x="4.9" y="1.96" width="0.98" height="0.98"/><rect x="5.88" y="0.98" width="0.98" height="0.98"/><rect x="5.88" y="1.96" width="0.98" height="0.98"/><rect x="4.9" y="0.98" width="0.98" height="0.98"/><rect x="6.86" y="4.9" width="0.98" height="0.98"/><rect x="6.86" y="5.88" width="0.98" height="0.98"/><rect x="5.88" y="6.86" width="0.98" height="0.98"/><rect x="4.9" y="6.86" width="0.98" height="0.98"/><rect x="4.9" y="3.92" width="0.98" height="0.98"/><rect x="5.88" y="3.92" width="0.98" height="0.98"/><rect x="3.92" y="4.9" width="0.98" height="0.98"/><rect x="3.92" y="5.88" width="0.98" height="0.98"/><rect x="3.92" y="6.86" width="0.98" height="0.98"/><rect x="2.94" y="5.88" width="0.98" height="0.98"/><rect x="6.86" y="2.94" width="0.98" height="0.98"/><rect x="6.86" y="1.96" width="0.98" height="0.98"/><rect x="6.86" y="3.92" width="0.98" height="0.98"/><rect x="9.8" y="3.92" width="0.98" height="0.98"/><rect x="8.82" y="3.92" width="0.98" height="0.98"/><rect x="7.84" y="3.92" width="0.98" height="0.98"/><rect x="0.98" y="3.92" width="0.98" height="0.98"/><rect x="0.98" y="4.9" width="0.98" height="0.98"/><rect x="1.96" y="4.9" width="0.98" height="0.98"/><rect x="2.94" y="3.92" width="0.98" height="0.98"/><rect x="3.92" y="2.94" width="0.98" height="0.98"/><rect x="3.92" y="1.96" width="0.98" height="0.98"/><rect x="9.8" y="2.94" width="0.98" height="0.98"/><rect x="8.82" y="1.96" width="0.98" height="0.98"/><rect x="7.84" y="0.98" width="0.98" height="0.98"/><rect x="6.86" y="0.98" width="0.98" height="0.98"/><rect x="5.88" width="0.98" height="0.98"/><rect x="4.9" width="0.98" height="0.98"/><rect x="3.92" y="0.98" width="0.98" height="0.98"/><rect x="2.94" y="0.98" width="0.98" height="0.98"/><rect x="1.96" y="1.96" width="0.98" height="0.98"/><rect x="0.98" y="2.94" width="0.98" height="0.98"/><rect x="10.78" y="3.92" width="0.98" height="0.98"/><rect x="10.78" y="4.9" width="0.98" height="0.98"/><rect x="10.78" y="5.88" width="0.98" height="0.98"/><rect x="9.8" y="6.86" width="0.98" height="0.98"/><rect y="3.92" width="0.98" height="0.98"/><rect y="5.88" width="0.98" height="0.98"/><rect y="4.9" width="0.98" height="0.98"/><rect x="0.98" y="6.86" width="0.98" height="0.98"/><rect x="1.96" y="7.84" width="0.98" height="0.98"/><rect x="2.94" y="7.84" width="0.98" height="0.98"/><rect x="3.92" y="7.84" width="0.98" height="0.98"/><rect x="5.88" y="7.84" width="0.98" height="0.98"/><rect x="4.9" y="7.84" width="0.98" height="0.98"/><rect x="6.86" y="7.84" width="0.98" height="0.98"/><rect x="8.82" y="7.84" width="0.98" height="0.98"/><rect x="5.88" y="8.82" width="0.98" height="0.98"/><rect x="6.86" y="8.82" width="0.98" height="0.98"/><rect x="9.8" y="8.82" width="0.98" height="0.98"/><rect x="8.82" y="8.82" width="0.98" height="0.98"/><rect x="7.84" y="8.82" width="0.98" height="0.98"/><rect x="1.96" y="8.82" width="0.98" height="0.98"/><rect x="0.98" y="8.82" width="0.98" height="0.98"/><rect x="2.94" y="8.82" width="0.98" height="0.98"/><rect x="3.92" y="8.82" width="0.98" height="0.98"/><rect x="4.9" y="8.82" width="0.98" height="0.98"/></svg>