<svg id="adult2" xmlns="http://www.w3.org/2000/svg" viewBox="0 0 82.52 45.1"><defs><style>.cls-1{fill:none;}</style></defs><path class="cls-1" d="M73.68,30.39v-1h2.94v2h1v-2h1v-1h1V25.49h-1V21.57h-1v-1h-1v1h-1v-1h1v-1h-4.9v1h1v1h-1v-1h-1v1H67.8v1h2.94v1H67.8v1h2.94v3.92h1v1h1v2h1Zm1-3.92v-1h1v2h1v-2h1v2h-1v1h-1v-1h-1Z"/><rect x="74.66" y="25.49" width="0.98" height="0.98"/><rect x="74.66" y="26.47" width="0.98" height="0.98"/><rect x="75.64" y="27.45" width="0.98" height="0.98"/><rect x="76.62" y="26.47" width="0.98" height="0.98"/><rect x="76.62" y="25.49" width="0.98" height="0.98"/><rect x="78.58" y="22.55" width="0.98" height="0.98"/><rect x="78.58" y="21.57" width="0.98" height="0.98"/><rect x="78.58" y="24.51" width="0.98" height="0.98"/><rect x="78.58" y="23.53" width="0.98" height="0.98"/><rect x="77.6" y="20.59" width="0.98" height="0.98"/><rect x="76.62" y="19.61" width="0.98" height="0.98"/><rect x="75.64" y="20.59" width="0.98" height="0.98"/><rect x="71.72" y="20.59" width="0.98" height="0.98"/><rect x="71.72" y="18.63" width="0.98" height="0.98"/><rect x="74.66" y="18.63" width="0.98" height="0.98"/><rect x="73.68" y="18.63" width="0.98" height="0.98"/><rect x="75.64" y="18.63" width="0.98" height="0.98"/><rect x="72.7" y="18.63" width="0.98" height="0.98"/><rect x="70.74" y="19.61" width="0.98" height="0.98"/><rect x="68.78" y="20.59" width="0.98" height="0.98"/><rect x="67.8" y="20.59" width="0.98" height="0.98"/><rect x="69.76" y="20.59" width="0.98" height="0.98"/><rect x="66.82" y="21.57" width="0.98" height="0.98"/><rect x="68.78" y="22.55" width="0.98" height="0.98"/><rect x="67.8" y="22.55" width="0.98" height="0.98"/><rect x="69.76" y="22.55" width="0.98" height="0.98"/><rect x="66.82" y="23.53" width="0.98" height="0.98"/><rect x="67.8" y="24.51" width="0.98" height="0.98"/><rect x="68.78" y="24.51" width="0.98" height="0.98"/><rect x="69.76" y="24.51" width="0.98" height="0.98"/><rect x="69.76" y="26.47" width="0.98" height="0.98"/><rect x="69.76" y="27.45" width="0.98" height="0.98"/><rect x="69.76" y="25.49" width="0.98" height="0.98"/><rect x="70.74" y="28.43" width="0.98" height="0.98"/><rect x="79.56" y="27.45" width="0.98" height="0.98"/><rect x="79.56" y="26.47" width="0.98" height="0.98"/><rect x="79.56" y="25.49" width="0.98" height="0.98"/><rect x="78.58" y="28.43" width="0.98" height="0.98"/><rect x="77.6" y="30.39" width="0.98" height="0.98"/><rect x="77.6" y="29.41" width="0.98" height="0.98"/><rect x="76.62" y="31.37" width="0.98" height="0.98"/><rect x="74.66" y="29.41" width="0.98" height="0.98"/><rect x="75.64" y="29.41" width="0.98" height="0.98"/><rect x="75.64" y="30.39" width="0.98" height="0.98"/><rect x="73.68" y="30.39" width="0.98" height="0.98"/><rect x="73.68" y="29.41" width="0.98" height="0.98"/><rect x="71.72" y="29.41" width="0.98" height="0.98"/><rect x="71.72" y="30.39" width="0.98" height="0.98"/><rect x="72.7" y="31.37" width="0.98" height="0.98"/></svg>