<svg id="adult3" xmlns="http://www.w3.org/2000/svg" viewBox="0 0 82.52 45.1"><defs><style>.cls-1{fill:none;}</style></defs><polygon class="cls-1" points="70.74 22.05 71.72 22.05 71.72 23.04 71.72 24.02 72.7 24.02 72.7 25 73.68 25 74.66 25 75.65 25 76.63 25 77.61 25 78.59 25 78.59 24.02 79.57 24.02 79.57 23.04 79.57 22.05 79.57 21.07 79.57 20.09 79.57 19.11 78.59 19.11 78.59 18.14 77.61 18.14 77.61 19.11 76.63 19.11 76.63 18.14 77.61 18.14 77.61 17.16 76.63 17.16 75.65 17.16 74.66 17.16 73.68 17.16 72.7 17.16 72.7 18.14 73.68 18.14 73.68 19.11 72.7 19.11 72.7 18.14 71.72 18.14 71.72 19.11 70.74 19.11 69.76 19.11 68.78 19.11 68.78 20.09 69.76 20.09 70.74 20.09 71.72 20.09 71.72 21.07 70.74 21.07 69.76 21.07 68.78 21.07 68.78 22.05 69.76 22.05 70.74 22.05"/><rect x="80.55" y="27.94" width="0.98" height="0.98"/><rect x="80.55" y="26.95" width="0.98" height="0.98"/><rect x="79.57" y="28.92" width="0.98" height="0.98"/><rect x="78.59" y="28.92" width="0.98" height="0.98"/><rect x="76.63" y="27.94" width="0.98" height="0.98"/><rect x="77.61" y="27.94" width="0.98" height="0.98"/><rect x="75.65" y="28.92" width="0.98" height="0.98"/><rect x="73.68" y="28.92" width="0.98" height="0.98"/><rect x="74.66" y="28.92" width="0.99" height="0.98"/><rect x="72.7" y="27.94" width="0.98" height="0.98"/><rect x="73.68" y="27.94" width="0.98" height="0.98"/><rect x="73.68" y="26.95" width="0.98" height="0.98"/><rect x="74.66" y="26.95" width="0.99" height="0.98"/><rect x="75.65" y="25.98" width="0.98" height="0.98"/><rect x="74.66" y="25.98" width="0.99" height="0.98"/><rect x="76.63" y="25" width="0.98" height="0.98"/><rect x="77.61" y="25" width="0.98" height="0.98"/><rect x="78.59" y="24.02" width="0.98" height="0.98"/><rect x="79.57" y="23.04" width="0.98" height="0.98"/><rect x="79.57" y="22.06" width="0.98" height="0.98"/><rect x="79.57" y="21.08" width="0.98" height="0.98"/><rect x="79.57" y="20.1" width="0.98" height="0.98"/><rect x="79.57" y="19.12" width="0.98" height="0.98"/><rect x="78.59" y="18.14" width="0.98" height="0.98"/><rect x="77.61" y="17.15" width="0.98" height="0.98"/><rect x="76.63" y="18.14" width="0.98" height="0.98"/><rect x="72.7" y="18.14" width="0.98" height="0.98"/><rect x="75.65" y="16.18" width="0.98" height="0.98"/><rect x="76.63" y="16.18" width="0.98" height="0.98"/><rect x="73.68" y="16.18" width="0.98" height="0.98"/><rect x="72.7" y="16.18" width="0.98" height="0.98"/><rect x="74.66" y="16.18" width="0.99" height="0.98"/><rect x="71.72" y="17.15" width="0.98" height="0.98"/><rect x="75.65" y="25" width="0.98" height="0.98"/><rect x="73.68" y="25" width="0.98" height="0.98"/><rect x="72.7" y="25" width="0.98" height="0.98"/><rect x="74.66" y="25" width="0.99" height="0.98"/><rect x="71.72" y="24.02" width="0.98" height="0.98"/><rect x="70.74" y="23.04" width="0.98" height="0.98"/><rect x="70.74" y="22.06" width="0.98" height="0.98"/><rect x="69.76" y="22.06" width="0.98" height="0.98"/><rect x="68.78" y="22.06" width="0.98" height="0.98"/><rect x="69.76" y="18.14" width="0.98" height="0.98"/><rect x="70.74" y="18.14" width="0.98" height="0.98"/><rect x="68.78" y="18.14" width="0.98" height="0.98"/><rect x="67.8" y="19.12" width="0.98" height="0.98"/><rect x="69.76" y="20.1" width="0.98" height="0.98"/><rect x="70.74" y="20.1" width="0.98" height="0.98"/><rect x="68.78" y="20.1" width="0.98" height="0.98"/><rect x="67.8" y="21.08" width="0.98" height="0.98"/></svg>