<svg id="adult4" xmlns="http://www.w3.org/2000/svg" viewBox="0 0 82.52 45.1"><defs><style>.cls-1{fill:none;}</style></defs><polygon class="cls-1" points="73.69 22.05 73.69 21.07 72.71 21.07 72.71 20.09 73.69 20.09 73.69 19.11 72.71 19.11 71.73 19.11 71.73 20.09 71.73 21.07 71.73 22.05 72.71 22.05 73.69 22.05"/><polygon class="cls-1" points="72.71 26.96 73.69 26.96 74.67 26.96 75.65 26.96 76.63 26.96 77.61 26.96 78.59 26.96 78.59 25.98 79.58 25.98 79.58 25 80.56 25 80.56 24.02 80.56 23.05 79.58 23.05 79.58 22.05 79.58 21.07 79.58 20.09 78.59 20.09 78.59 21.07 78.59 22.05 77.61 22.05 77.61 23.05 76.63 23.05 75.65 23.05 74.67 23.05 73.69 23.05 72.71 23.05 71.73 23.05 71.73 22.05 70.75 22.05 70.75 21.07 70.75 20.09 69.77 20.09 69.77 21.07 69.77 22.05 69.77 23.05 70.75 23.05 70.75 24.02 70.75 25 71.73 25 71.73 25.98 72.71 25.98 72.71 26.96"/><polygon class="cls-1" points="76.63 21.07 76.63 20.09 77.61 20.09 77.61 19.11 76.63 19.11 75.65 19.11 75.65 20.09 75.65 21.07 75.65 22.05 76.63 22.05 77.61 22.05 77.61 21.07 76.63 21.07"/><rect x="78.59" y="19.12" width="0.99" height="0.98"/><rect x="76.63" y="20.1" width="0.98" height="0.98"/><rect x="77.61" y="19.12" width="0.98" height="0.98"/><rect x="77.61" y="21.08" width="0.98" height="0.98"/><rect x="77.61" y="20.1" width="0.98" height="0.98"/><rect x="76.63" y="22.06" width="0.98" height="0.99"/><rect x="76.63" y="18.14" width="0.98" height="0.98"/><rect x="75.65" y="18.14" width="0.98" height="0.98"/><rect x="73.69" y="18.14" width="0.98" height="0.98"/><rect x="74.67" y="21.08" width="0.98" height="0.98"/><rect x="74.67" y="20.1" width="0.98" height="0.98"/><rect x="74.67" y="19.12" width="0.98" height="0.98"/><rect x="74.67" y="18.14" width="0.98" height="0.98"/><rect x="74.67" y="22.06" width="0.98" height="0.99"/><rect x="73.69" y="22.06" width="0.98" height="0.99"/><rect x="75.65" y="22.06" width="0.98" height="0.99"/><rect x="69.77" y="18.14" width="0.98" height="0.98"/><rect x="71.73" y="17.16" width="0.98" height="0.98"/><rect x="70.75" y="18.14" width="0.98" height="0.98"/><rect x="70.75" y="17.16" width="0.98" height="0.98"/><rect x="74.67" y="17.16" width="0.98" height="0.98"/><rect x="72.71" y="17.16" width="0.98" height="0.98"/><rect x="73.69" y="17.16" width="0.98" height="0.98"/><rect x="75.65" y="17.16" width="0.98" height="0.98"/><rect x="76.63" y="17.16" width="0.98" height="0.98"/><rect x="77.61" y="18.14" width="0.98" height="0.98"/><rect x="77.61" y="17.16" width="0.98" height="0.98"/><rect x="78.59" y="18.14" width="0.99" height="0.98"/><rect x="72.71" y="20.1" width="0.98" height="0.98"/><rect x="71.73" y="18.14" width="0.98" height="0.98"/><rect x="72.71" y="18.14" width="0.98" height="0.98"/><rect x="73.69" y="19.12" width="0.98" height="0.98"/><rect x="73.69" y="20.1" width="0.98" height="0.98"/><rect x="73.69" y="21.08" width="0.98" height="0.98"/><rect x="72.71" y="22.06" width="0.98" height="0.99"/><rect x="71.73" y="22.06" width="0.98" height="0.99"/><rect x="69.77" y="19.12" width="0.98" height="0.98"/><rect x="70.75" y="20.1" width="0.98" height="0.98"/><rect x="70.75" y="19.12" width="0.98" height="0.98"/><rect x="70.75" y="21.08" width="0.98" height="0.98"/><rect x="68.79" y="19.12" width="0.98" height="0.98"/><rect x="68.79" y="21.08" width="0.98" height="0.98"/><rect x="68.79" y="22.06" width="0.98" height="0.99"/><rect x="68.79" y="18.14" width="0.98" height="0.98"/><rect x="68.79" y="20.1" width="0.98" height="0.98"/><rect x="69.77" y="17.16" width="0.98" height="0.98"/><rect x="71.73" y="15.2" width="0.98" height="0.98"/><rect x="71.73" y="16.18" width="0.98" height="0.98"/><rect x="70.75" y="16.18" width="0.98" height="0.98"/><rect x="70.75" y="15.2" width="0.98" height="0.98"/><rect x="72.71" y="16.18" width="0.98" height="0.98"/><rect x="73.69" y="16.18" width="0.98" height="0.98"/><rect x="74.67" y="16.18" width="0.98" height="0.98"/><rect x="75.65" y="16.18" width="0.98" height="0.98"/><rect x="76.63" y="16.18" width="0.98" height="0.98"/><rect x="76.63" y="15.2" width="0.98" height="0.98"/><rect x="77.61" y="16.18" width="0.98" height="0.98"/><rect x="77.61" y="15.2" width="0.98" height="0.98"/><rect x="78.59" y="17.16" width="0.99" height="0.98"/><rect x="79.58" y="19.12" width="0.98" height="0.98"/><rect x="79.58" y="18.14" width="0.98" height="0.98"/><rect x="79.58" y="22.06" width="0.98" height="0.99"/><rect x="79.58" y="21.08" width="0.98" height="0.98"/><rect x="79.58" y="20.1" width="0.98" height="0.98"/><rect x="80.56" y="23.05" width="0.98" height="0.98"/><rect x="80.56" y="24.03" width="0.98" height="0.98"/><rect x="79.58" y="28.93" width="0.98" height="0.98"/><rect x="80.56" y="28.93" width="0.98" height="0.98"/><rect x="80.56" y="27.95" width="0.98" height="0.98"/><rect x="81.54" y="28.93" width="0.98" height="0.98"/><rect x="80.56" y="25.99" width="0.98" height="0.98"/><rect x="81.54" y="25.99" width="0.98" height="0.98"/><rect x="81.54" y="26.97" width="0.98" height="0.98"/><rect x="79.58" y="25.01" width="0.98" height="0.98"/><rect x="78.59" y="25.99" width="0.99" height="0.98"/><rect x="77.61" y="26.97" width="0.98" height="0.98"/><rect x="74.67" y="26.97" width="0.98" height="0.98"/><rect x="72.71" y="26.97" width="0.98" height="0.98"/><rect x="73.69" y="26.97" width="0.98" height="0.98"/><rect x="75.65" y="26.97" width="0.98" height="0.98"/><rect x="76.63" y="26.97" width="0.98" height="0.98"/><rect x="69.77" y="23.05" width="0.98" height="0.98"/><rect x="69.77" y="24.03" width="0.98" height="0.98"/><rect x="70.75" y="25.01" width="0.98" height="0.98"/><rect x="71.73" y="25.99" width="0.98" height="0.98"/><rect x="69.77" y="26.97" width="0.98" height="0.98"/><rect x="70.75" y="26.97" width="0.98" height="0.98"/><rect x="68.79" y="27.95" width="0.98" height="0.98"/><rect x="67.81" y="28.93" width="0.98" height="0.98"/><rect x="69.77" y="28.93" width="0.98" height="0.98"/><rect x="68.79" y="28.93" width="0.98" height="0.98"/></svg>