<svg id="adult1" xmlns="http://www.w3.org/2000/svg" viewBox="0 0 82.52 45.1"><defs><style>.cls-1{fill:none;}</style></defs><path class="cls-1" d="M77.6,29.41v-1h1v-1h-2v-2h1v1h1v-2h1v-2h-1v-2H69.76v2h-1v2h1v1h-1v1h2v-1h1v1h-1v1h-1v1h1v1h1v2h1v-2h2.94v1h1v-1Zm-5.88-6.86v-1h1v1Zm3.92,2H72.7v-1h2.94Zm0-2v-1h1v1Z"/><rect x="72.7" y="29.41" width="0.98" height="0.98"/><rect x="72.7" y="30.39" width="0.98" height="0.98"/><rect x="71.72" y="31.37" width="0.98" height="0.98"/><rect x="70.74" y="30.39" width="0.98" height="0.98"/><rect x="70.74" y="29.41" width="0.98" height="0.98"/><rect x="73.68" y="29.41" width="0.98" height="0.98"/><rect x="74.66" y="29.41" width="0.98" height="0.98"/><rect x="75.64" y="30.39" width="0.98" height="0.98"/><rect x="76.62" y="29.41" width="0.98" height="0.98"/><rect x="77.6" y="28.43" width="0.98" height="0.98"/><rect x="78.58" y="27.45" width="0.98" height="0.98"/><rect x="76.62" y="25.49" width="0.98" height="0.98"/><rect x="76.62" y="26.47" width="0.98" height="0.98"/><rect x="77.6" y="26.47" width="0.98" height="0.98"/><rect x="78.58" y="26.47" width="0.98" height="0.98"/><rect x="78.58" y="25.49" width="0.98" height="0.98"/><rect x="78.58" y="24.51" width="0.98" height="0.98"/><rect x="79.56" y="23.53" width="0.99" height="0.98"/><rect x="79.56" y="22.55" width="0.99" height="0.98"/><rect x="69.76" y="28.43" width="0.98" height="0.98"/><rect x="70.74" y="25.49" width="0.98" height="0.98"/><rect x="69.76" y="26.47" width="0.98" height="0.98"/><rect x="68.78" y="27.45" width="0.98" height="0.98"/><rect x="68.78" y="26.47" width="0.98" height="0.98"/><rect x="67.8" y="25.49" width="0.98" height="0.98"/><rect x="68.78" y="24.51" width="0.98" height="0.98"/><rect x="67.8" y="23.53" width="0.98" height="0.98"/><rect x="67.8" y="22.55" width="0.98" height="0.98"/><rect x="68.78" y="20.59" width="0.98" height="0.98"/><rect x="68.78" y="21.57" width="0.98" height="0.98"/><rect x="72.7" y="23.53" width="0.98" height="0.98"/><rect x="74.66" y="23.53" width="0.98" height="0.98"/><rect x="73.68" y="23.53" width="0.98" height="0.98"/><rect x="71.72" y="21.57" width="0.98" height="0.98"/><rect x="75.64" y="21.57" width="0.98" height="0.98"/><rect x="68.78" y="19.61" width="0.98" height="0.98"/><rect x="69.76" y="18.63" width="0.98" height="0.98"/><rect x="69.76" y="19.61" width="0.98" height="0.98"/><rect x="70.74" y="18.63" width="0.98" height="0.98"/><rect x="71.72" y="19.61" width="0.98" height="0.98"/><rect x="70.74" y="19.61" width="0.98" height="0.98"/><rect x="68.78" y="18.63" width="0.98" height="0.98"/><rect x="69.76" y="17.65" width="0.98" height="0.98"/><rect x="70.74" y="17.65" width="0.98" height="0.98"/><rect x="71.72" y="18.63" width="0.98" height="0.98"/><rect x="72.7" y="19.61" width="0.98" height="0.98"/><rect x="74.66" y="19.61" width="0.98" height="0.98"/><rect x="73.68" y="19.61" width="0.98" height="0.98"/><rect x="75.64" y="18.63" width="0.98" height="0.98"/><rect x="75.64" y="19.61" width="0.98" height="0.98"/><rect x="76.62" y="19.61" width="0.98" height="0.98"/><rect x="76.62" y="18.63" width="0.98" height="0.98"/><rect x="77.6" y="19.61" width="0.98" height="0.98"/><rect x="76.62" y="17.65" width="0.98" height="0.98"/><rect x="77.6" y="17.65" width="0.98" height="0.98"/><rect x="77.6" y="18.63" width="0.98" height="0.98"/><rect x="78.58" y="19.61" width="0.98" height="0.98"/><rect x="78.58" y="18.63" width="0.98" height="0.98"/><rect x="78.58" y="20.59" width="0.98" height="0.98"/><rect x="78.58" y="21.57" width="0.98" height="0.98"/></svg>