<svg id="childState2" xmlns="http://www.w3.org/2000/svg" viewBox="0 0 82.52 45.1"><defs><style>.cls-1{fill:none;}</style></defs><path class="cls-1" d="M78.44,23.53V19.61h-1v-1H71.57v1h-1v5.88h1v1h5.89v-1h1v-2Zm-5.88-2.94v-1h1v1Zm2.94,2h-2v-1h2Zm1-2h-1v-1h1Z"/><rect x="78.44" y="24.51" width="0.98" height="0.98"/><rect x="78.44" y="23.53" width="0.98" height="0.98"/><rect x="78.44" y="22.55" width="0.98" height="0.98"/><rect x="78.44" y="21.57" width="0.98" height="0.98"/><rect x="78.44" y="20.59" width="0.98" height="0.98"/><rect x="78.44" y="19.61" width="0.98" height="0.98"/><rect x="77.46" y="25.49" width="0.98" height="0.98"/><rect x="77.46" y="18.63" width="0.98" height="0.98"/><rect x="76.48" y="26.47" width="0.98" height="0.98"/><rect x="76.48" y="17.65" width="0.98" height="0.98"/><rect x="75.5" y="26.47" width="0.98" height="0.98"/><rect x="75.5" y="19.61" width="0.98" height="0.98"/><rect x="75.5" y="17.65" width="0.98" height="0.98"/><rect x="74.52" y="26.47" width="0.98" height="0.98"/><rect x="74.52" y="21.57" width="0.98" height="0.98"/><rect x="74.52" y="17.65" width="0.98" height="0.98"/><rect x="73.54" y="26.47" width="0.98" height="0.98"/><rect x="73.54" y="21.57" width="0.98" height="0.98"/><rect x="73.54" y="17.65" width="0.98" height="0.98"/><rect x="72.56" y="26.47" width="0.98" height="0.98"/><rect x="72.56" y="19.61" width="0.98" height="0.98"/><rect x="72.56" y="17.65" width="0.98" height="0.98"/><rect x="71.57" y="26.47" width="0.99" height="0.98"/><rect x="71.57" y="17.65" width="0.99" height="0.98"/><rect x="70.59" y="25.49" width="0.98" height="0.98"/><rect x="70.59" y="18.63" width="0.98" height="0.98"/><rect x="69.61" y="24.51" width="0.98" height="0.98"/><rect x="69.61" y="23.53" width="0.98" height="0.98"/><rect x="69.61" y="22.55" width="0.98" height="0.98"/><rect x="69.61" y="21.57" width="0.98" height="0.98"/><rect x="69.61" y="20.59" width="0.98" height="0.98"/><rect x="69.61" y="19.61" width="0.98" height="0.98"/></svg>