<svg id="childState1" xmlns="http://www.w3.org/2000/svg" viewBox="0 0 82.52 45.1"><defs><style>.cls-1{fill:none;}</style></defs><rect class="cls-1" x="76.16" y="19.61" width="0.98" height="0.98"/><rect class="cls-1" x="73.22" y="19.61" width="0.98" height="0.98"/><polygon class="cls-1" points="75.18 21.57 74.2 21.57 74.2 22.55 75.18 22.55 76.16 22.55 76.16 21.57 75.18 21.57"/><rect x="77.14" y="22.55" width="0.98" height="0.98"/><rect x="77.14" y="21.57" width="0.98" height="0.98"/><rect x="77.14" y="20.59" width="0.98" height="0.98"/><rect x="77.14" y="19.61" width="0.98" height="0.98"/><rect x="76.16" y="23.53" width="0.98" height="0.98"/><rect x="76.16" y="22.55" width="0.98" height="0.98"/><rect x="76.16" y="21.57" width="0.98" height="0.98"/><rect x="76.16" y="20.59" width="0.98" height="0.98"/><rect x="76.16" y="18.63" width="0.98" height="0.98"/><rect x="75.18" y="23.53" width="0.98" height="0.98"/><rect x="75.18" y="22.55" width="0.98" height="0.98"/><rect x="75.18" y="20.59" width="0.98" height="0.98"/><rect x="75.18" y="19.61" width="0.98" height="0.98"/><rect x="75.18" y="18.63" width="0.98" height="0.98"/><rect x="74.2" y="23.53" width="0.98" height="0.98"/><rect x="74.2" y="22.55" width="0.98" height="0.98"/><rect x="74.2" y="20.59" width="0.98" height="0.98"/><rect x="74.2" y="19.61" width="0.98" height="0.98"/><rect x="74.2" y="18.63" width="0.98" height="0.98"/><rect x="73.22" y="23.53" width="0.98" height="0.98"/><rect x="73.22" y="22.55" width="0.98" height="0.98"/><rect x="73.22" y="21.57" width="0.98" height="0.98"/><rect x="73.22" y="20.59" width="0.98" height="0.98"/><rect x="73.22" y="18.63" width="0.98" height="0.98"/><rect x="72.24" y="22.55" width="0.98" height="0.98"/><rect x="72.24" y="21.57" width="0.98" height="0.98"/><rect x="72.24" y="20.59" width="0.98" height="0.98"/><rect x="72.24" y="19.61" width="0.98" height="0.98"/></svg>