<svg id="teen2" xmlns="http://www.w3.org/2000/svg" viewBox="0 0 82.52 45.1"><defs><style>.cls-1{fill:none;}</style></defs><polygon class="cls-1" points="80.4 23.53 80.4 22.55 80.4 21.57 80.4 20.59 80.4 19.61 79.42 19.61 79.42 18.63 78.44 18.63 78.44 19.61 77.46 19.61 77.46 18.63 78.44 18.63 78.44 17.65 77.46 17.65 76.48 17.65 75.5 17.65 74.52 17.65 73.54 17.65 73.54 18.63 74.52 18.63 74.52 19.61 73.54 19.61 73.54 18.63 72.56 18.63 72.56 19.61 71.57 19.61 70.59 19.61 69.61 19.61 69.61 20.59 70.59 20.59 71.57 20.59 72.56 20.59 72.56 21.57 71.57 21.57 70.59 21.57 69.61 21.57 69.61 22.55 70.59 22.55 71.57 22.55 72.56 22.55 72.56 23.53 72.56 24.51 72.56 25.49 73.54 25.49 73.54 26.47 74.52 26.47 75.5 26.47 76.48 26.47 77.46 26.47 78.44 26.47 79.42 26.47 79.42 25.49 80.4 25.49 80.4 24.51 80.4 23.53"/><rect x="79.42" y="25.49" width="0.98" height="0.98"/><rect x="80.4" y="24.51" width="0.98" height="0.98"/><rect x="80.4" y="23.53" width="0.98" height="0.98"/><rect x="80.4" y="19.61" width="0.98" height="0.98"/><rect x="80.4" y="22.55" width="0.98" height="0.98"/><rect x="80.4" y="21.57" width="0.98" height="0.98"/><rect x="80.4" y="20.59" width="0.98" height="0.98"/><rect x="79.42" y="18.63" width="0.98" height="0.98"/><rect x="78.44" y="17.65" width="0.98" height="0.98"/><rect x="77.46" y="18.63" width="0.98" height="0.98"/><rect x="73.54" y="18.63" width="0.98" height="0.98"/><rect x="77.46" y="16.67" width="0.98" height="0.98"/><rect x="76.48" y="16.67" width="0.98" height="0.98"/><rect x="75.5" y="16.67" width="0.98" height="0.98"/><rect x="74.52" y="16.67" width="0.98" height="0.98"/><rect x="73.54" y="16.67" width="0.98" height="0.98"/><rect x="72.56" y="17.65" width="0.98" height="0.98"/><rect x="70.59" y="18.63" width="0.98" height="0.98"/><rect x="69.61" y="18.63" width="0.98" height="0.98"/><rect x="71.57" y="18.63" width="0.99" height="0.98"/><rect x="68.63" y="19.61" width="0.98" height="0.98"/><rect x="70.59" y="20.59" width="0.98" height="0.98"/><rect x="69.61" y="20.59" width="0.98" height="0.98"/><rect x="71.57" y="20.59" width="0.99" height="0.98"/><rect x="68.63" y="21.57" width="0.98" height="0.98"/><rect x="69.61" y="22.55" width="0.98" height="0.98"/><rect x="70.59" y="22.55" width="0.98" height="0.98"/><rect x="71.57" y="22.55" width="0.99" height="0.98"/><rect x="71.57" y="23.53" width="0.99" height="0.98"/><rect x="71.57" y="24.51" width="0.99" height="0.98"/><rect x="72.56" y="25.49" width="0.98" height="0.98"/><rect x="73.54" y="26.47" width="0.98" height="0.98"/><rect x="76.48" y="26.47" width="0.98" height="0.98"/><rect x="75.5" y="26.47" width="0.98" height="0.98"/><rect x="74.52" y="26.47" width="0.98" height="0.98"/><rect x="78.44" y="26.47" width="0.98" height="0.98"/><rect x="77.46" y="26.47" width="0.98" height="0.98"/></svg>