<svg id="teen1" xmlns="http://www.w3.org/2000/svg" viewBox="0 0 82.52 45.1"><defs><style>.cls-1{fill:none;}</style></defs><path class="cls-1" d="M79.41,23h-1v-1h1V19.12h-1v-1H72.55v1h-1V25h1v2h1V25h3.92v1h1V25h1V23ZM73.53,20.1v-1h1v1Zm2.94,2h-2v-1h2Zm1-2h-1v-1h1Z"/><rect x="80.39" y="22.06" width="0.98" height="0.98"/><rect x="79.41" y="24.02" width="0.98" height="0.98"/><rect x="79.41" y="23.04" width="0.98" height="0.98"/><rect x="79.41" y="22.06" width="0.98" height="0.98"/><rect x="79.41" y="21.08" width="0.98" height="0.98"/><rect x="79.41" y="20.1" width="0.98" height="0.98"/><rect x="79.41" y="19.12" width="0.98" height="0.98"/><rect x="78.43" y="25" width="0.98" height="0.98"/><rect x="78.43" y="22.06" width="0.98" height="0.98"/><rect x="78.43" y="18.14" width="0.98" height="0.98"/><rect x="77.45" y="25.98" width="0.98" height="0.98"/><rect x="77.45" y="17.16" width="0.98" height="0.98"/><rect x="76.47" y="25" width="0.98" height="0.98"/><rect x="76.47" y="19.12" width="0.98" height="0.98"/><rect x="76.47" y="17.16" width="0.98" height="0.98"/><rect x="75.49" y="25" width="0.98" height="0.98"/><rect x="75.49" y="21.08" width="0.98" height="0.98"/><rect x="75.49" y="17.16" width="0.98" height="0.98"/><rect x="74.51" y="25" width="0.98" height="0.98"/><rect x="74.51" y="21.08" width="0.98" height="0.98"/><rect x="74.51" y="17.16" width="0.98" height="0.98"/><rect x="73.53" y="25.98" width="0.98" height="0.98"/><rect x="73.53" y="25" width="0.98" height="0.98"/><rect x="73.53" y="19.12" width="0.98" height="0.98"/><rect x="73.53" y="17.16" width="0.98" height="0.98"/><rect x="72.55" y="26.96" width="0.98" height="0.98"/><rect x="72.55" y="17.16" width="0.98" height="0.98"/><rect x="71.57" y="25.98" width="0.98" height="0.98"/><rect x="71.57" y="25" width="0.98" height="0.98"/><rect x="71.57" y="18.14" width="0.98" height="0.98"/><rect x="70.59" y="24.02" width="0.98" height="0.98"/><rect x="70.59" y="23.04" width="0.98" height="0.98"/><rect x="70.59" y="22.06" width="0.98" height="0.98"/><rect x="70.59" y="21.08" width="0.98" height="0.98"/><rect x="70.59" y="20.1" width="0.98" height="0.98"/><rect x="70.59" y="19.12" width="0.98" height="0.98"/><rect x="69.61" y="22.06" width="0.98" height="0.98"/></svg>