<svg id="base_layer" data-name="base layer" xmlns="http://www.w3.org/2000/svg" viewBox="0 0 9.81 9.8"><defs><style>.cls-1{fill:none;}</style></defs><path class="cls-1" d="M8.83,5.88V2h-1V1H2V2H1V7.84H2v1H7.85v-1h1v-2ZM3,2.94V2h1v1Zm2.94,2h-2v-1h2Zm1-2h-1V2h1Z"/><rect x="8.83" y="6.86" width="0.98" height="0.98"/><rect x="8.83" y="5.88" width="0.98" height="0.98"/><rect x="8.83" y="4.9" width="0.98" height="0.98"/><rect x="8.83" y="3.92" width="0.98" height="0.98"/><rect x="8.83" y="2.94" width="0.98" height="0.98"/><rect x="8.83" y="1.96" width="0.98" height="0.98"/><rect x="7.85" y="7.84" width="0.98" height="0.98"/><rect x="7.85" y="0.98" width="0.98" height="0.98"/><rect x="6.87" y="8.82" width="0.98" height="0.98"/><rect x="6.87" width="0.98" height="0.98"/><rect x="5.89" y="8.82" width="0.98" height="0.98"/><rect x="5.89" y="1.96" width="0.98" height="0.98"/><rect x="5.89" width="0.98" height="0.98"/><rect x="4.91" y="8.82" width="0.98" height="0.98"/><rect x="4.91" y="3.92" width="0.98" height="0.98"/><rect x="4.91" width="0.98" height="0.98"/><rect x="3.93" y="8.82" width="0.98" height="0.98"/><rect x="3.93" y="3.92" width="0.98" height="0.98"/><rect x="3.93" width="0.98" height="0.98"/><rect x="2.95" y="8.82" width="0.98" height="0.98"/><rect x="2.95" y="1.96" width="0.98" height="0.98"/><rect x="2.95" width="0.98" height="0.98"/><rect x="1.96" y="8.82" width="0.99" height="0.98"/><rect x="1.96" width="0.99" height="0.98"/><rect x="0.98" y="7.84" width="0.98" height="0.98"/><rect x="0.98" y="0.98" width="0.98" height="0.98"/><rect y="6.86" width="0.98" height="0.98"/><rect y="5.88" width="0.98" height="0.98"/><rect y="4.9" width="0.98" height="0.98"/><rect y="3.92" width="0.98" height="0.98"/><rect y="2.94" width="0.98" height="0.98"/><rect y="1.96" width="0.98" height="0.98"/></svg>