<?xml version="1.0" encoding="UTF-8"?><svg id="a" xmlns="http://www.w3.org/2000/svg" viewBox="0 0 2.94 7.84"><rect x=".98" y="6.86" width=".98" height=".98"/><rect x="1.96" y="5.88" width=".98" height=".98"/><rect y="5.88" width=".98" height=".98"/><rect x="1.96" y=".98" width=".98" height=".98"/><rect y=".98" width=".98" height=".98"/><rect x=".98" width=".98" height=".98"/><rect x="1.96" y="1.96" width=".98" height=".98"/><rect y="1.96" width=".98" height=".98"/><rect x=".98" y=".98" width=".98" height=".98"/><rect x=".98" y="5.88" width=".98" height=".98"/><rect x="1.96" y="4.9" width=".98" height=".98"/><rect x="1.96" y="3.92" width=".98" height=".98"/><rect x="1.96" y="2.94" width=".98" height=".98"/><rect x=".98" y="1.96" width=".98" height=".98"/><rect y="4.9" width=".98" height=".98"/><rect y="3.92" width=".98" height=".98"/><rect y="2.94" width=".98" height=".98"/><rect x=".98" y="4.9" width=".98" height=".98"/><rect x=".98" y="3.92" width=".98" height=".98"/><rect x=".98" y="2.94" width=".98" height=".98"/></svg>