<?xml version="1.0" encoding="UTF-8"?><svg id="a" xmlns="http://www.w3.org/2000/svg" viewBox="0 0 13.73 13.72"><defs><style>.b{fill:none;}</style></defs><polygon class="b" points="6.87 8.82 7.85 8.82 8.83 8.82 9.81 8.82 10.79 8.82 10.79 7.84 11.77 7.84 11.77 6.86 11.77 5.88 11.77 4.9 11.77 3.92 11.77 2.94 10.79 2.94 10.79 1.96 9.81 1.96 9.81 2.94 8.83 2.94 8.83 1.96 9.81 1.96 9.81 .98 8.83 .98 7.85 .98 6.87 .98 5.88 .98 4.9 .98 4.9 1.96 5.88 1.96 5.88 2.94 4.9 2.94 4.9 1.96 3.92 1.96 3.92 2.94 2.94 2.94 1.96 2.94 1.96 1.96 .98 1.96 .98 2.94 .98 3.92 1.96 3.92 2.94 3.92 3.92 3.92 3.92 4.9 2.94 4.9 1.96 4.9 .98 4.9 .98 5.88 .98 6.86 1.96 6.86 1.96 5.88 2.94 5.88 3.92 5.88 3.92 6.86 3.92 7.84 4.9 7.84 4.9 8.82 5.88 8.82 6.87 8.82"/><rect x=".98" y="6.86" width=".98" height=".98"/><rect y="5.88" width=".98" height=".98"/><rect x=".98" y=".98" width=".98" height=".98"/><rect y="1.96" width=".98" height=".98"/><rect x="12.75" y="11.76" width=".98" height=".98"/><rect x="12.75" y="10.78" width=".98" height=".98"/><rect x="11.77" y="12.74" width=".98" height=".98"/><rect x="11.77" y="6.86" width=".98" height=".98"/><rect x="11.77" y="5.88" width=".98" height=".98"/><rect x="11.77" y="4.9" width=".98" height=".98"/><rect x="11.77" y="3.92" width=".98" height=".98"/><rect x="11.77" y="2.94" width=".98" height=".98"/><rect x="10.79" y="12.74" width=".98" height=".98"/><rect x="10.79" y="7.84" width=".98" height=".98"/><rect x="10.79" y="1.96" width=".98" height=".98"/><rect x="9.81" y="11.76" width=".98" height=".98"/><rect x="9.81" y="8.82" width=".98" height=".98"/><rect x="9.81" y=".98" width=".98" height=".98"/><rect x="8.83" y="11.76" width=".98" height=".98"/><rect x="8.83" y="8.82" width=".98" height=".98"/><rect x="8.83" y="1.96" width=".98" height=".98"/><rect x="8.83" width=".98" height=".98"/><rect x="7.85" y="12.74" width=".98" height=".98"/><rect x="7.85" y="9.8" width=".98" height=".98"/><rect x="7.85" y="8.82" width=".98" height=".98"/><rect x="7.85" width=".98" height=".98"/><rect x="6.87" y="12.74" width=".98" height=".98"/><rect x="6.87" y="10.78" width=".98" height=".98"/><rect x="6.87" y="9.8" width=".98" height=".98"/><rect x="6.87" y="8.82" width=".98" height=".98"/><rect x="6.87" width=".98" height=".98"/><rect x="5.88" y="12.74" width=".99" height=".98"/><rect x="5.88" y="11.76" width=".99" height=".98"/><rect x="5.88" y="10.78" width=".99" height=".98"/><rect x="5.88" y="8.82" width=".99" height=".98"/><rect x="5.88" width=".99" height=".98"/><rect x="4.9" y="11.76" width=".98" height=".98"/><rect x="4.9" y="8.82" width=".98" height=".98"/><rect x="4.9" y="1.96" width=".98" height=".98"/><rect x="4.9" width=".98" height=".98"/><rect x="3.92" y="7.84" width=".98" height=".98"/><rect x="3.92" y=".98" width=".98" height=".98"/><rect x="2.94" y="6.86" width=".98" height=".98"/><rect x="2.94" y="5.88" width=".98" height=".98"/><rect x="2.94" y="3.92" width=".98" height=".98"/><rect x="2.94" y="1.96" width=".98" height=".98"/><rect x="1.96" y="5.88" width=".98" height=".98"/><rect x="1.96" y="3.92" width=".98" height=".98"/><rect x="1.96" y="1.96" width=".98" height=".98"/><rect x=".98" y="3.92" width=".98" height=".98"/><rect y="4.9" width=".98" height=".98"/><rect y="2.94" width=".98" height=".98"/></svg>