<?xml version="1.0" encoding="UTF-8"?><svg id="a" xmlns="http://www.w3.org/2000/svg" viewBox="0 0 13.73 13.74"><defs><style>.b{fill:none;}</style></defs><polygon class="b" points="6.87 8.84 7.85 8.84 8.83 8.84 9.81 8.84 10.79 8.84 10.79 7.86 11.77 7.86 11.77 6.88 11.77 5.9 11.77 4.92 11.77 3.94 11.77 2.96 10.79 2.96 10.79 1.98 9.81 1.98 9.81 2.96 8.83 2.96 7.85 2.96 7.85 1.98 8.83 1.98 9.81 1.98 9.81 1 8.83 1 7.85 1 6.87 1 5.88 1 4.9 1 4.9 1.98 5.88 1.98 6.87 1.98 6.87 2.96 5.88 2.96 4.9 2.96 4.9 1.98 3.92 1.98 3.92 2.96 2.94 2.96 1.96 2.96 .98 2.96 .98 3.94 1.96 3.94 2.94 3.94 3.92 3.94 3.92 4.92 2.94 4.92 1.96 4.92 .98 4.92 .98 5.9 1.96 5.9 2.94 5.9 3.92 5.9 3.92 6.88 3.92 7.86 4.9 7.86 4.9 8.84 5.88 8.84 6.87 8.84"/><rect x="5.88" y="1.98" width=".99" height=".98"/><rect x="7.85" y="1.98" width=".98" height=".98"/><rect x="8.83" y="1.98" width=".98" height=".98"/><rect x="11.77" y="6.88" width=".98" height=".98"/><rect x="11.77" y="5.9" width=".98" height=".98"/><rect x="11.77" y="4.92" width=".98" height=".98"/><rect x="11.77" y="3.94" width=".98" height=".98"/><rect x="11.77" y="2.96" width=".98" height=".98"/><rect x="10.79" y="1.98" width=".98" height=".98"/><rect x="9.81" y="1" width=".98" height=".98"/><rect x="8.83" y=".01" width=".98" height=".99"/><rect x="10.79" y="7.86" width=".98" height=".98"/><rect x="9.81" y="8.84" width=".98" height=".98"/><rect x="8.83" y="8.84" width=".98" height=".98"/><rect x="7.85" y="8.84" width=".98" height=".98"/><rect x="12.75" y="11.78" width=".98" height=".98"/><rect x="12.75" y="10.8" width=".98" height=".98"/><rect x="11.77" y="12.76" width=".98" height=".98"/><rect x="10.79" y="12.76" width=".98" height=".98"/><rect x="9.81" y="11.78" width=".98" height=".98"/><rect x="8.83" y="11.78" width=".98" height=".98"/><rect x="7.85" y="12.76" width=".98" height=".98"/><rect x="6.87" y="12.76" width=".98" height=".98"/><rect x="5.88" y="12.76" width=".99" height=".98"/><rect x="4.9" y="11.78" width=".98" height=".98"/><rect x="5.88" y="11.78" width=".99" height=".98"/><rect x="5.88" y="10.8" width=".99" height=".98"/><rect x="7.85" y="9.82" width=".98" height=".98"/><rect x="6.87" y="10.8" width=".98" height=".98"/><rect x="6.87" y="9.82" width=".98" height=".98"/><rect x="6.87" y="8.84" width=".98" height=".98"/><rect x="4.9" y="1.98" width=".98" height=".98"/><rect x="7.85" y=".01" width=".98" height=".99"/><rect x="6.87" y=".01" width=".98" height=".99"/><rect x="5.88" y=".01" width=".99" height=".99"/><rect x="4.9" y=".01" width=".98" height=".99"/><rect x="3.92" y="1" width=".98" height=".98"/><rect x="5.88" y="8.84" width=".99" height=".98"/><rect x="4.9" y="8.84" width=".98" height=".98"/><rect x="3.92" y="7.86" width=".98" height=".98"/><rect x="2.94" y="6.88" width=".98" height=".98"/><rect x="2.94" y="5.9" width=".98" height=".98"/><rect x="1.96" y="5.9" width=".98" height=".98"/><rect x=".98" y="5.9" width=".98" height=".98"/><rect y="4.92" width=".98" height=".98"/><rect x="2.94" y="3.94" width=".98" height=".98"/><rect x="1.96" y="3.94" width=".98" height=".98"/><rect x=".98" y="3.94" width=".98" height=".98"/><rect x="2.94" y="1.98" width=".98" height=".98"/><rect x="1.96" y="1.98" width=".98" height=".98"/><rect x=".98" y="1.98" width=".98" height=".98"/><rect y="2.96" width=".98" height=".98"/></svg>