<svg id="base_layer" data-name="base layer" xmlns="http://www.w3.org/2000/svg" viewBox="0 0 17.65 13.73"><defs><style>.cls-1{fill:none;}.cls-2{fill:#231f20;}</style></defs><polygon class="cls-1" points="2.94 4.9 3.93 4.9 3.93 3.92 2.94 3.92 1.96 3.92 1.96 4.9 2.94 4.9"/><polygon class="cls-1" points="12.75 10.79 13.73 10.79 14.71 10.79 14.71 9.81 13.73 9.81 12.75 9.81 11.77 9.81 11.77 10.79 12.75 10.79"/><polygon class="cls-1" points="5.89 3.92 4.91 3.92 4.91 4.9 5.89 4.9 6.87 4.9 6.87 3.92 5.89 3.92"/><polygon class="cls-1" points="10.79 12.75 11.77 12.75 12.75 12.75 13.73 12.75 14.71 12.75 15.69 12.75 15.69 11.77 15.69 10.79 14.71 10.79 14.71 11.77 13.73 11.77 12.75 11.77 11.77 11.77 11.77 10.79 10.79 10.79 10.79 11.77 10.79 12.75"/><polygon class="cls-1" points="3.93 2.94 4.91 2.94 5.89 2.94 5.89 1.96 4.91 1.96 4.91 0.98 3.93 0.98 3.93 1.96 2.94 1.96 2.94 2.94 3.93 2.94"/><rect y="8.83" width="0.98" height="0.98"/><rect x="0.98" y="8.83" width="0.98" height="0.98"/><rect x="1.96" y="7.85" width="0.98" height="0.98"/><rect x="2.94" y="7.85" width="0.99" height="0.98"/><rect x="3.93" y="5.89" width="0.98" height="0.98"/><rect x="2.94" y="5.89" width="0.99" height="0.98"/><rect x="1.96" y="4.9" width="0.98" height="0.99"/><rect x="5.89" y="4.9" width="0.98" height="0.99"/><rect x="4.91" y="4.9" width="0.98" height="0.99"/><rect x="3.93" y="4.9" width="0.98" height="0.99"/><rect x="2.94" y="4.9" width="0.99" height="0.99"/><rect x="5.89" y="2.94" width="0.98" height="0.98"/><rect x="4.91" y="2.94" width="0.98" height="0.98"/><rect x="3.93" y="3.92" width="0.98" height="0.98"/><rect x="3.93" y="2.94" width="0.98" height="0.98"/><rect x="2.94" y="2.94" width="0.99" height="0.98"/><rect x="6.87" y="3.92" width="0.98" height="0.98"/><rect x="6.87" y="4.9" width="0.98" height="0.99"/><rect x="5.89" y="5.89" width="0.98" height="0.98"/><rect x="4.91" y="5.89" width="0.98" height="0.98"/><rect x="3.93" y="6.87" width="0.98" height="0.98"/><rect x="2.94" y="6.87" width="0.99" height="0.98"/><rect x="1.96" y="5.89" width="0.98" height="0.98"/><rect x="0.98" y="4.9" width="0.98" height="0.99"/><rect x="0.98" y="3.92" width="0.98" height="0.98"/><rect x="1.96" y="2.94" width="0.98" height="0.98"/><rect x="1.96" y="1.96" width="0.98" height="0.98"/><rect x="2.94" y="0.98" width="0.99" height="0.98"/><rect x="3.93" width="0.98" height="0.98"/><rect x="4.91" y="0.98" width="0.98" height="0.98"/><rect x="5.89" y="1.96" width="0.98" height="0.98"/><rect x="6.87" y="2.94" width="0.98" height="0.98"/><rect x="7.85" y="3.92" width="0.98" height="0.98"/><rect x="7.85" y="4.9" width="0.98" height="0.99"/><rect x="11.77" y="5.89" width="0.98" height="0.98"/><rect x="13.73" y="5.89" width="0.98" height="0.98"/><rect x="12.75" y="7.85" width="0.98" height="0.98"/><rect x="12.75" y="6.87" width="0.98" height="0.98"/><rect x="12.75" y="5.89" width="0.98" height="0.98"/><rect x="12.75" y="4.9" width="0.98" height="0.99"/><rect x="11.77" y="10.79" width="0.98" height="0.98"/><rect x="13.73" y="10.79" width="0.98" height="0.98"/><rect x="12.75" y="10.79" width="0.98" height="0.98"/><rect x="15.69" y="11.77" width="0.98" height="0.98"/><rect x="15.69" y="10.79" width="0.98" height="0.98"/><rect x="14.71" y="9.81" width="0.98" height="0.98"/><rect x="11.77" y="8.83" width="0.98" height="0.98"/><rect x="13.73" y="8.83" width="0.98" height="0.98"/><rect x="12.75" y="8.83" width="0.98" height="0.98"/><rect x="10.79" y="9.81" width="0.98" height="0.98"/><rect x="9.81" y="10.79" width="0.98" height="0.98"/><rect x="9.81" y="11.77" width="0.98" height="0.98"/><rect x="10.79" y="12.75" width="0.98" height="0.98"/><rect x="9.81" y="12.75" width="0.98" height="0.98"/><rect x="11.77" y="12.75" width="0.98" height="0.98"/><rect x="13.73" y="12.75" width="0.98" height="0.98"/><rect x="12.75" y="12.75" width="0.98" height="0.98"/><rect x="8.83" y="12.75" width="0.98" height="0.98"/><rect x="14.71" y="12.75" width="0.98" height="0.98"/><rect x="15.69" y="12.75" width="0.98" height="0.98"/><rect x="16.67" y="12.75" width="0.98" height="0.98"/><rect class="cls-2" x="15.69" y="1.97" width="0.98" height="0.98"/><rect class="cls-2" x="14.71" y="2.95" width="0.98" height="0.98"/><rect class="cls-2" x="14.71" y="0.99" width="0.98" height="0.98"/><rect class="cls-2" x="13.73" y="1.97" width="0.98" height="0.98"/><rect class="cls-2" x="2.95" y="10.79" width="0.98" height="0.98"/></svg>