<?xml version="1.0" encoding="UTF-8"?><svg id="a" xmlns="http://www.w3.org/2000/svg" viewBox="0 0 17.65 13.65"><defs><style>.b{fill:none;}</style></defs><g><rect class="b" x="1.96" y="6.86" width=".98" height=".99"/><polygon class="b" points="10.79 12.75 11.77 12.75 12.75 12.75 13.73 12.75 14.71 12.75 15.69 12.75 15.69 11.77 15.69 10.79 14.71 10.79 14.71 11.77 13.73 11.77 12.75 11.77 11.77 11.77 11.77 10.79 10.79 10.79 10.79 11.77 10.79 12.75"/><polygon class="b" points="12.75 10.79 13.73 10.79 14.71 10.79 14.71 9.81 13.73 9.81 12.75 9.81 11.77 9.81 11.77 10.79 12.75 10.79"/><polygon class="b" points="5.88 3.92 4.9 3.92 4.9 4.9 5.88 4.9 6.86 4.9 6.86 3.92 5.88 3.92"/><polygon class="b" points="2.94 4.9 3.92 4.9 3.92 3.92 2.94 3.92 1.96 3.92 1.96 4.9 2.94 4.9"/><polygon class="b" points="3.92 2.94 4.9 2.94 5.88 2.94 5.88 1.96 4.9 1.96 4.9 .98 3.92 .98 3.92 1.96 2.94 1.96 2.94 2.94 3.92 2.94"/><rect x="6.86" y="2.94" width=".98" height=".98"/><rect x="7.84" y="3.92" width=".98" height=".98"/><rect x="7.84" y="4.9" width=".98" height=".98"/><rect y="7.85" width=".98" height=".98"/><rect x=".98" y="6.86" width=".98" height=".99"/><rect x="1.96" y="7.85" width=".98" height=".98"/><rect x="2.94" y="7.85" width=".98" height=".98"/><rect x="2.94" y="6.86" width=".98" height=".99"/><rect x="3.92" y="6.86" width=".98" height=".99"/><rect x="1.96" y="5.88" width=".98" height=".98"/><rect x="2.94" y="5.88" width=".98" height=".98"/><rect x="3.92" y="5.88" width=".98" height=".98"/><rect x="5.88" y="5.88" width=".98" height=".98"/><rect x="4.9" y="5.88" width=".98" height=".98"/><rect x="1.96" y="4.9" width=".98" height=".98"/><rect x="2.94" y="4.9" width=".98" height=".98"/><rect x="3.92" y="4.9" width=".98" height=".98"/><rect x="6.86" y="4.9" width=".98" height=".98"/><rect x="5.88" y="4.9" width=".98" height=".98"/><rect x="4.9" y="4.9" width=".98" height=".98"/><rect x=".98" y="4.9" width=".98" height=".98"/><rect x=".98" y="3.92" width=".98" height=".98"/><rect x="6.86" y="3.92" width=".98" height=".98"/><rect x="3.92" width=".98" height=".98"/><rect x="4.9" y=".98" width=".98" height=".98"/><rect x="2.94" y=".98" width=".98" height=".98"/><rect x="5.88" y="1.96" width=".98" height=".98"/><rect x="5.88" y="2.94" width=".98" height=".98"/><rect x="1.96" y="1.96" width=".98" height=".98"/><rect x="1.96" y="2.94" width=".98" height=".98"/><rect x="3.92" y="3.92" width=".98" height=".98"/><rect x="4.9" y="2.94" width=".98" height=".98"/><rect x="3.92" y="2.94" width=".98" height=".98"/><rect x="2.94" y="2.94" width=".98" height=".98"/><rect x="13.73" y="10.79" width=".98" height=".98"/><rect x="12.75" y="10.79" width=".98" height=".98"/><rect x="11.77" y="10.79" width=".98" height=".98"/><rect x="13.73" y="5.88" width=".98" height=".98"/><rect x="11.77" y="5.88" width=".98" height=".98"/><rect x="12.75" y="7.85" width=".98" height=".98"/><rect x="12.75" y="6.86" width=".98" height=".99"/><rect x="12.75" y="5.88" width=".98" height=".98"/><rect x="12.75" y="4.9" width=".98" height=".98"/><rect x="15.69" y="11.77" width=".98" height=".98"/><rect x="15.69" y="10.79" width=".98" height=".98"/><rect x="14.71" y="9.81" width=".98" height=".98"/><rect x="13.73" y="8.83" width=".98" height=".98"/><rect x="12.75" y="8.83" width=".98" height=".98"/><rect x="11.77" y="8.83" width=".98" height=".98"/><rect x="10.79" y="9.81" width=".98" height=".98"/><rect x="9.81" y="11.77" width=".98" height=".98"/><rect x="9.81" y="10.79" width=".98" height=".98"/><rect x="16.67" y="12.75" width=".98" height=".98"/><rect x="15.69" y="12.75" width=".98" height=".98"/><rect x="14.71" y="12.75" width=".98" height=".98"/><rect x="13.73" y="12.75" width=".98" height=".98"/><rect x="12.75" y="12.75" width=".98" height=".98"/><rect x="11.77" y="12.75" width=".98" height=".98"/><rect x="8.82" y="12.75" width=".99" height=".98"/><rect x="10.79" y="12.75" width=".98" height=".98"/><rect x="9.81" y="12.75" width=".98" height=".98"/></g><g><rect class="b" x="2.94" y="10.78" width=".98" height=".98"/><rect x="3.92" y="10.78" width=".99" height=".98"/><rect x="2.94" y="11.77" width=".98" height=".98"/><rect x="1.96" y="10.78" width=".98" height=".98"/><rect x="2.94" y="9.8" width=".98" height=".98"/><rect x="14.71" y="1.96" width=".98" height=".98"/></g></svg>