<?xml version="1.0" encoding="UTF-8"?><svg id="a" xmlns="http://www.w3.org/2000/svg" viewBox="0 0 2.94 36.28"><rect x="1.96" y="35.3" width=".98" height=".98"/><rect x="1.96" y="34.32" width=".98" height=".98"/><rect x=".98" y="35.3" width=".98" height=".98"/><rect x=".98" y="34.32" width=".98" height=".98"/><rect y="34.32" width=".98" height=".98"/><rect x=".98" y="33.34" width=".98" height=".98"/><rect y="33.34" width=".98" height=".98"/><rect y="32.36" width=".98" height=".98"/><rect x="1.96" y="32.36" width=".98" height=".98"/><rect x=".98" y="32.36" width=".98" height=".98"/><rect x="1.96" y="31.38" width=".98" height=".98"/><rect x="1.96" y="30.4" width=".98" height=".98"/><rect x="1.96" y="28.44" width=".98" height=".98"/><rect x="1.96" y="27.46" width=".98" height=".98"/><rect x="1.96" y="26.47" width=".98" height=".99"/><rect x="1.96" y="24.51" width=".98" height=".98"/><rect x="1.96" y="23.53" width=".98" height=".98"/><rect x="1.96" y="22.55" width=".98" height=".98"/><rect x="1.96" y="20.59" width=".98" height=".98"/><rect x="1.96" y="19.61" width=".98" height=".98"/><rect x="1.96" y="18.63" width=".98" height=".98"/><rect x="1.96" y="16.67" width=".98" height=".98"/><rect x="1.96" y="15.69" width=".98" height=".98"/><rect x="1.96" y="14.71" width=".98" height=".98"/><rect x="1.96" y="12.75" width=".98" height=".98"/><rect x="1.96" y="11.77" width=".98" height=".98"/><rect x="1.96" y="10.79" width=".98" height=".98"/><rect x="1.96" y="8.83" width=".98" height=".98"/><rect x="1.96" y="7.85" width=".98" height=".98"/><rect x="1.96" y="6.87" width=".98" height=".98"/><rect x="1.96" y="4.91" width=".98" height=".98"/><rect x="1.96" y="3.93" width=".98" height=".98"/><rect x="1.96" y="2.95" width=".98" height=".98"/><rect x="1.96" y=".98" width=".98" height=".99"/><rect x="1.96" width=".98" height=".98"/><rect x=".98" y="31.38" width=".98" height=".98"/><rect x=".98" y="30.4" width=".98" height=".98"/><rect x=".98" y="29.42" width=".98" height=".98"/><rect x=".98" y="28.44" width=".98" height=".98"/><rect x=".98" y="27.46" width=".98" height=".98"/><rect x=".98" y="26.47" width=".98" height=".99"/><rect x=".98" y="25.49" width=".98" height=".98"/><rect x=".98" y="24.51" width=".98" height=".98"/><rect x=".98" y="23.53" width=".98" height=".98"/><rect x=".98" y="22.55" width=".98" height=".98"/><rect x=".98" y="21.57" width=".98" height=".98"/><rect x=".98" y="20.59" width=".98" height=".98"/><rect x=".98" y="19.61" width=".98" height=".98"/><rect x=".98" y="18.63" width=".98" height=".98"/><rect x=".98" y="17.65" width=".98" height=".98"/><rect x=".98" y="16.67" width=".98" height=".98"/><rect x=".98" y="15.69" width=".98" height=".98"/><rect x=".98" y="14.71" width=".98" height=".98"/><rect x=".98" y="13.73" width=".98" height=".98"/><rect x=".98" y="12.75" width=".98" height=".98"/><rect x=".98" y="11.77" width=".98" height=".98"/><rect x=".98" y="10.79" width=".98" height=".98"/><rect x=".98" y="9.81" width=".98" height=".98"/><rect x=".98" y="8.83" width=".98" height=".98"/><rect x=".98" y="7.85" width=".98" height=".98"/><rect x=".98" y="6.87" width=".98" height=".98"/><rect x=".98" y="5.89" width=".98" height=".98"/><rect x=".98" y="4.91" width=".98" height=".98"/><rect x=".98" y="3.93" width=".98" height=".98"/><rect x=".98" y="2.95" width=".98" height=".98"/><rect x=".98" y="1.97" width=".98" height=".98"/><rect x=".98" y=".98" width=".98" height=".99"/><rect x=".98" width=".98" height=".98"/><rect y="30.4" width=".98" height=".98"/><rect y="29.42" width=".98" height=".98"/><rect y="28.44" width=".98" height=".98"/><rect y="26.47" width=".98" height=".99"/><rect y="25.49" width=".98" height=".98"/><rect y="24.51" width=".98" height=".98"/><rect y="22.55" width=".98" height=".98"/><rect y="21.57" width=".98" height=".98"/><rect y="20.59" width=".98" height=".98"/><rect y="18.63" width=".98" height=".98"/><rect y="17.65" width=".98" height=".98"/><rect y="16.67" width=".98" height=".98"/><rect y="14.71" width=".98" height=".98"/><rect y="13.73" width=".98" height=".98"/><rect y="12.75" width=".98" height=".98"/><rect y="10.79" width=".98" height=".98"/><rect y="9.81" width=".98" height=".98"/><rect y="8.83" width=".98" height=".98"/><rect y="6.87" width=".98" height=".98"/><rect y="5.89" width=".98" height=".98"/><rect y="4.91" width=".98" height=".98"/><rect y="2.95" width=".98" height=".98"/><rect y="1.97" width=".98" height=".98"/><rect y=".98" width=".98" height=".99"/></svg>