<?xml version="1.0" encoding="UTF-8"?><svg id="a" xmlns="http://www.w3.org/2000/svg" viewBox="0 0 14.71 14.71"><defs><style>.b{fill:none;}</style></defs><polygon class="b" points="5.88 6.87 5.88 5.89 4.9 5.89 4.9 4.91 3.92 4.91 3.92 5.89 3.92 6.87 4.9 6.87 5.88 6.87"/><path class="b" d="M12.75,9.81v-1.96h-.98v-2.94h-.98v1.96h-.98v.98H3.92v-.98h-.98V3.93h-.98v3.92h.98v1.96h.98v.98h.98v.98h5.89v-.98h.98v-.98h.98Zm-3.93,0h-1.96v-.98h1.96v.98Z"/><polygon class="b" points="8.82 5.89 8.82 4.91 7.84 4.91 7.84 5.89 7.84 6.87 8.82 6.87 9.81 6.87 9.81 5.89 8.82 5.89"/><rect x="6.86" y="8.83" width=".98" height=".98"/><rect x="7.84" y="8.83" width=".98" height=".98"/><rect x="13.73" y="13.73" width=".98" height=".98"/><rect x="13.73" y="11.77" width=".98" height=".98"/><rect x="13.73" y="10.79" width=".98" height=".98"/><rect x="12.75" y="13.73" width=".98" height=".98"/><rect x="12.75" y="12.75" width=".98" height=".98"/><rect x="12.75" y="10.79" width=".98" height=".98"/><rect x="12.75" y="8.83" width=".98" height=".98"/><rect x="12.75" y="7.85" width=".98" height=".98"/><rect x="11.77" y="13.73" width=".98" height=".98"/><rect x="11.77" y="9.81" width=".98" height=".98"/><rect x="11.77" y="6.87" width=".98" height=".98"/><rect x="11.77" y="5.89" width=".98" height=".98"/><rect x="11.77" y="4.91" width=".98" height=".98"/><rect x="11.77" y="3.93" width=".98" height=".98"/><rect x="11.77" y="2.94" width=".98" height=".99"/><rect x="10.79" y="10.79" width=".98" height=".98"/><rect x="10.79" y="3.93" width=".98" height=".98"/><rect x="10.79" y="2.94" width=".98" height=".99"/><rect x="10.79" y="1.96" width=".98" height=".98"/><rect x="9.81" y="11.77" width=".98" height=".98"/><rect x="9.81" y="5.89" width=".98" height=".98"/><rect x="9.81" y="4.91" width=".98" height=".98"/><rect x="9.81" y="3.93" width=".98" height=".98"/><rect x="9.81" y="2.94" width=".98" height=".99"/><rect x="9.81" y="1.96" width=".98" height=".98"/><rect x="9.81" y=".98" width=".98" height=".98"/><rect x="9.81" width=".98" height=".98"/><rect x="8.82" y="11.77" width=".99" height=".98"/><rect x="8.82" y="6.87" width=".99" height=".98"/><rect x="8.82" y="4.91" width=".99" height=".98"/><rect x="8.82" y="3.93" width=".99" height=".98"/><rect x="8.82" y="2.94" width=".99" height=".99"/><rect x="8.82" y="1.96" width=".99" height=".98"/><rect x="8.82" y=".98" width=".99" height=".98"/><rect x="8.82" width=".99" height=".98"/><rect x="7.84" y="11.77" width=".98" height=".98"/><rect x="7.84" y="6.87" width=".98" height=".98"/><rect x="7.84" y="3.93" width=".98" height=".98"/><rect x="7.84" y="2.94" width=".98" height=".99"/><rect x="7.84" y="1.96" width=".98" height=".98"/><rect x="7.84" y=".98" width=".98" height=".98"/><rect x="6.86" y="11.77" width=".98" height=".98"/><rect x="6.86" y="6.87" width=".98" height=".98"/><rect x="6.86" y="5.89" width=".98" height=".98"/><rect x="6.86" y="4.91" width=".98" height=".98"/><rect x="6.86" y="3.93" width=".98" height=".98"/><rect x="6.86" y="2.94" width=".98" height=".99"/><rect x="6.86" y="1.96" width=".98" height=".98"/><rect x="6.86" y=".98" width=".98" height=".98"/><rect x="5.88" y="11.77" width=".98" height=".98"/><rect x="5.88" y="6.87" width=".98" height=".98"/><rect x="5.88" y="5.89" width=".98" height=".98"/><rect x="5.88" y="4.91" width=".98" height=".98"/><rect x="5.88" y="3.93" width=".98" height=".98"/><rect x="5.88" y="2.94" width=".98" height=".99"/><rect x="5.88" y="1.96" width=".98" height=".98"/><rect x="5.88" y=".98" width=".98" height=".98"/><rect x="4.9" y="11.77" width=".98" height=".98"/><rect x="4.9" y="6.87" width=".98" height=".98"/><rect x="4.9" y="4.91" width=".98" height=".98"/><rect x="4.9" y="3.93" width=".98" height=".98"/><rect x="4.9" y="2.94" width=".98" height=".99"/><rect x="4.9" y="1.96" width=".98" height=".98"/><rect x="4.9" y=".98" width=".98" height=".98"/><rect x="3.92" y="10.79" width=".98" height=".98"/><rect x="3.92" y="6.87" width=".98" height=".98"/><rect x="3.92" y="3.93" width=".98" height=".98"/><rect x="3.92" y="2.94" width=".98" height=".99"/><rect x="3.92" y="1.96" width=".98" height=".98"/><rect x="3.92" y=".98" width=".98" height=".98"/><rect x="3.92" width=".98" height=".98"/><rect x="2.94" y="11.77" width=".98" height=".98"/><rect x="2.94" y="9.81" width=".98" height=".98"/><rect x="2.94" y="5.89" width=".98" height=".98"/><rect x="2.94" y="4.91" width=".98" height=".98"/><rect x="2.94" y="3.93" width=".98" height=".98"/><rect x="2.94" y="2.94" width=".98" height=".99"/><rect x="2.94" y="1.96" width=".98" height=".98"/><rect x="2.94" y=".98" width=".98" height=".98"/><rect x="2.94" width=".98" height=".98"/><rect x="1.96" y="13.73" width=".98" height=".98"/><rect x="1.96" y="11.77" width=".98" height=".98"/><rect x="1.96" y="8.83" width=".98" height=".98"/><rect x="1.96" y="7.85" width=".98" height=".98"/><rect x="1.96" y="2.94" width=".98" height=".99"/><rect x="1.96" y="1.96" width=".98" height=".98"/><rect x=".98" y="13.73" width=".98" height=".98"/><rect x=".98" y="12.75" width=".98" height=".98"/><rect x=".98" y="6.87" width=".98" height=".98"/><rect x=".98" y="5.89" width=".98" height=".98"/><rect x=".98" y="4.91" width=".98" height=".98"/><rect x=".98" y="3.93" width=".98" height=".98"/><rect x=".98" y="2.94" width=".98" height=".99"/><rect y="13.73" width=".98" height=".98"/></svg>