<?xml version="1.0" encoding="UTF-8"?><svg id="a" xmlns="http://www.w3.org/2000/svg" viewBox="0 0 11.76 10.78"><defs><style>.b{fill:none;}</style></defs><path class="b" d="M9.8,5.88h-.98v-.98h.98V1.96h-.98v.98h-1.96v-.98h1.96V.98H2.94v.98h1.96v.98h-1.96v-.98h-.98V7.84h.98v1.96h.98v-1.96h3.92v.98h.98v-.98h.98v-1.96Zm-2.94-.98h-1.96v-.98h1.96v.98Z"/><rect x="7.84" y="1.96" width=".98" height=".98"/><rect x="2.94" y="1.96" width=".98" height=".98"/><rect x="10.78" y="4.9" width=".98" height=".98"/><rect x="9.8" y="6.86" width=".98" height=".98"/><rect x="9.8" y="5.88" width=".98" height=".98"/><rect x="9.8" y="4.9" width=".98" height=".98"/><rect x="9.8" y="3.92" width=".98" height=".98"/><rect x="9.8" y="2.94" width=".98" height=".98"/><rect x="9.8" y="1.96" width=".98" height=".98"/><rect x="8.82" y="7.84" width=".98" height=".98"/><rect x="8.82" y="4.9" width=".98" height=".98"/><rect x="8.82" y=".98" width=".98" height=".98"/><rect x="7.84" y="8.82" width=".98" height=".98"/><rect x="7.84" width=".98" height=".98"/><rect x="6.86" y="7.84" width=".98" height=".98"/><rect x="6.86" y="1.96" width=".98" height=".98"/><rect x="6.86" width=".98" height=".98"/><rect x="5.88" y="7.84" width=".98" height=".98"/><rect x="5.88" y="3.92" width=".98" height=".98"/><rect x="5.88" width=".98" height=".98"/><rect x="4.9" y="7.84" width=".98" height=".98"/><rect x="4.9" y="3.92" width=".98" height=".98"/><rect x="4.9" width=".98" height=".98"/><rect x="3.92" y="8.82" width=".98" height=".98"/><rect x="3.92" y="7.84" width=".98" height=".98"/><rect x="3.92" y="1.96" width=".98" height=".98"/><rect x="3.92" width=".98" height=".98"/><rect x="2.94" y="9.8" width=".98" height=".98"/><rect x="2.94" width=".98" height=".98"/><rect x="1.96" y="8.82" width=".98" height=".98"/><rect x="1.96" y="7.84" width=".98" height=".98"/><rect x="1.96" y=".98" width=".98" height=".98"/><rect x=".98" y="6.86" width=".98" height=".98"/><rect x=".98" y="5.88" width=".98" height=".98"/><rect x=".98" y="4.9" width=".98" height=".98"/><rect x=".98" y="3.92" width=".98" height=".98"/><rect x=".98" y="2.94" width=".98" height=".98"/><rect x=".98" y="1.96" width=".98" height=".98"/><rect x="0" y="4.9" width=".98" height=".98"/></svg>