<svg id="base_layer" data-name="base layer" xmlns="http://www.w3.org/2000/svg" viewBox="0 0 16.66 14.71"><defs><style>.cls-1{fill:none;}</style></defs><polygon class="cls-1" points="5.88 2.94 6.86 2.94 7.84 2.94 8.82 2.94 9.8 2.94 9.8 1.96 8.82 1.96 7.84 1.96 6.86 1.96 5.88 1.96 4.9 1.96 4.9 2.94 5.88 2.94"/><path class="cls-1" d="M12.74,8.83v-1h-1V3.92h-1v1h-2v-1h-2v1h-2v-2h-1v1H1v1H3.92v1H1v1H3.92v3.92h1v1h1v1h1v-1H9.8v1h1v-1h1v-1h1v-2Zm-3.92,2h-1v-1h1Z"/><rect x="7.84" y="13.73" width="0.98" height="0.98"/><rect x="2.94" y="13.73" width="0.98" height="0.98"/><rect x="10.78" y="13.73" width="0.98" height="0.98"/><rect x="9.8" y="12.75" width="0.98" height="0.98"/><rect x="8.82" y="13.73" width="0.98" height="0.98"/><rect x="5.88" y="12.75" width="0.98" height="0.98"/><rect x="4.9" y="13.73" width="0.98" height="0.98"/><rect x="3.92" y="13.73" width="0.98" height="0.98"/><rect x="3.92" y="12.75" width="0.98" height="0.98"/><rect x="7.84" y="9.81" width="0.98" height="0.98"/><rect x="10.78" y="2.94" width="0.98" height="0.98"/><rect x="6.86" width="0.98" height="0.98"/><rect x="15.68" y="8.83" width="0.98" height="0.98"/><rect x="14.7" y="9.81" width="0.98" height="0.98"/><rect x="13.72" y="9.81" width="0.98" height="0.98"/><rect x="12.74" y="9.81" width="0.98" height="0.98"/><rect x="12.74" y="8.83" width="0.98" height="0.98"/><rect x="12.74" y="7.85" width="0.98" height="0.98"/><rect x="12.74" y="6.87" width="0.98" height="0.98"/><rect x="11.76" y="10.79" width="0.98" height="0.98"/><rect x="11.76" y="6.87" width="0.98" height="0.98"/><rect x="11.76" y="5.89" width="0.98" height="0.98"/><rect x="11.76" y="4.91" width="0.98" height="0.98"/><rect x="11.76" y="3.92" width="0.98" height="0.99"/><rect x="10.78" y="12.75" width="0.98" height="0.98"/><rect x="10.78" y="11.77" width="0.98" height="0.98"/><rect x="9.8" y="13.73" width="0.98" height="0.98"/><rect x="9.8" y="3.92" width="0.98" height="0.99"/><rect x="9.8" y="2.94" width="0.98" height="0.98"/><rect x="9.8" y="1.96" width="0.98" height="0.98"/><rect x="8.82" y="12.75" width="0.98" height="0.98"/><rect x="8.82" y="11.77" width="0.98" height="0.98"/><rect x="8.82" y="3.92" width="0.98" height="0.99"/><rect x="8.82" y="2.94" width="0.98" height="0.98"/><rect x="8.82" y="0.98" width="0.98" height="0.98"/><rect x="7.84" y="11.77" width="0.98" height="0.98"/><rect x="7.84" y="2.94" width="0.98" height="0.98"/><rect x="7.84" y="0.98" width="0.98" height="0.98"/><rect x="6.86" y="11.77" width="0.98" height="0.98"/><rect x="6.86" y="2.94" width="0.98" height="0.98"/><rect x="6.86" y="0.98" width="0.98" height="0.98"/><rect x="5.88" y="13.73" width="0.98" height="0.98"/><rect x="5.88" y="3.92" width="0.98" height="0.99"/><rect x="5.88" y="2.94" width="0.98" height="0.98"/><rect x="5.88" y="0.98" width="0.98" height="0.98"/><rect x="4.9" y="12.75" width="0.98" height="0.98"/><rect x="4.9" y="11.77" width="0.98" height="0.98"/><rect x="4.9" y="3.92" width="0.98" height="0.99"/><rect x="4.9" y="2.94" width="0.98" height="0.98"/><rect x="4.9" y="0.98" width="0.98" height="0.98"/><rect x="3.92" y="10.79" width="0.98" height="0.98"/><rect x="3.92" y="1.96" width="0.98" height="0.98"/><rect x="2.94" y="9.81" width="0.98" height="0.98"/><rect x="2.94" y="8.83" width="0.98" height="0.98"/><rect x="2.94" y="7.85" width="0.98" height="0.98"/><rect x="2.94" y="6.87" width="0.98" height="0.98"/><rect x="2.94" y="4.91" width="0.98" height="0.98"/><rect x="2.94" y="2.94" width="0.98" height="0.98"/><rect x="1.96" y="6.87" width="0.98" height="0.98"/><rect x="1.96" y="4.91" width="0.98" height="0.98"/><rect x="1.96" y="2.94" width="0.98" height="0.98"/><rect x="0.98" y="6.87" width="0.98" height="0.98"/><rect x="0.98" y="4.91" width="0.98" height="0.98"/><rect x="0.98" y="2.94" width="0.98" height="0.98"/><rect y="5.89" width="0.98" height="0.98"/><rect y="3.92" width="0.98" height="0.99"/></svg>