<?xml version="1.0" encoding="UTF-8"?><svg id="a" xmlns="http://www.w3.org/2000/svg" viewBox="0 0 12.74 14.71"><defs><style>.b{fill:none;}</style></defs><path class="b" d="M11.76,4.91h-.98v-1.96H1.96v1.96H.98v1.96h.98v.98H.98v.98h1.96v-.98h.98v.98h-.98v.98h-.98v.98h.98v.98h.98v1.96h.98v-1.96h2.94v.98h.98v-.98h.98v-.98h.98v-.98h-1.96v-1.96h.98v.98h.98v-1.96h.98v-1.96Zm-7.84,0v-.98h.98v.98h-.98Zm3.92,1.96v.98h-2.94v-1.96h2.94v.98Zm.98-1.96h-.98v-.98h.98v.98Z"/><rect x="11.76" y="5.89" width=".98" height=".98"/><rect x="11.76" y="4.91" width=".98" height=".98"/><rect x="10.78" y="9.81" width=".98" height=".98"/><rect x="10.78" y="8.83" width=".98" height=".98"/><rect x="10.78" y="7.85" width=".98" height=".98"/><rect x="10.78" y="6.87" width=".98" height=".98"/><rect x="10.78" y="3.93" width=".98" height=".98"/><rect x="10.78" y="2.95" width=".98" height=".98"/><rect x="10.78" y="1.96" width=".98" height=".99"/><rect x="10.78" y=".98" width=".98" height=".98"/><rect x="9.8" y="10.79" width=".98" height=".98"/><rect x="9.8" y="8.83" width=".98" height=".98"/><rect x="9.8" y="1.96" width=".98" height=".99"/><rect x="9.8" y=".98" width=".98" height=".98"/><rect x="9.8" y="0" width=".98" height=".98"/><rect x="8.82" y="11.77" width=".98" height=".98"/><rect x="8.82" y="8.83" width=".98" height=".98"/><rect x="8.82" y="7.85" width=".98" height=".98"/><rect x="8.82" y="1.96" width=".98" height=".99"/><rect x="8.82" y=".98" width=".98" height=".98"/><rect x="8.82" y="0" width=".98" height=".98"/><rect x="7.84" y="12.75" width=".98" height=".98"/><rect x="7.84" y="3.93" width=".98" height=".98"/><rect x="7.84" y="1.96" width=".98" height=".99"/><rect x="7.84" y=".98" width=".98" height=".98"/><rect x="6.86" y="11.77" width=".98" height=".98"/><rect x="6.86" y="6.87" width=".98" height=".98"/><rect x="6.86" y="5.89" width=".98" height=".98"/><rect x="6.86" y="1.96" width=".98" height=".99"/><rect x="5.88" y="11.77" width=".98" height=".98"/><rect x="5.88" y="6.87" width=".98" height=".98"/><rect x="5.88" y="5.89" width=".98" height=".98"/><rect x="5.88" y="1.96" width=".98" height=".99"/><rect x="4.9" y="12.75" width=".98" height=".98"/><rect x="4.9" y="11.77" width=".98" height=".98"/><rect x="4.9" y="6.87" width=".98" height=".98"/><rect x="4.9" y="5.89" width=".98" height=".98"/><rect x="4.9" y="1.96" width=".98" height=".99"/><rect x="3.92" y="13.73" width=".98" height=".98"/><rect x="3.92" y="3.93" width=".98" height=".98"/><rect x="3.92" y="1.96" width=".98" height=".99"/><rect x="3.92" y=".98" width=".98" height=".98"/><rect x="2.94" y="12.75" width=".98" height=".98"/><rect x="2.94" y="11.77" width=".98" height=".98"/><rect x="2.94" y="7.85" width=".98" height=".98"/><rect x="2.94" y="1.96" width=".98" height=".99"/><rect x="2.94" y=".98" width=".98" height=".98"/><rect x="2.94" y="0" width=".98" height=".98"/><rect x="1.96" y="10.79" width=".98" height=".98"/><rect x="1.96" y="8.83" width=".98" height=".98"/><rect x="1.96" y="1.96" width=".98" height=".99"/><rect x="1.96" y=".98" width=".98" height=".98"/><rect x="1.96" y="0" width=".98" height=".98"/><rect x=".98" y="9.81" width=".98" height=".98"/><rect x=".98" y="8.83" width=".98" height=".98"/><rect x=".98" y="6.87" width=".98" height=".98"/><rect x=".98" y="3.93" width=".98" height=".98"/><rect x=".98" y="2.95" width=".98" height=".98"/><rect x=".98" y="1.96" width=".98" height=".99"/><rect x=".98" y=".98" width=".98" height=".98"/><rect y="7.85" width=".98" height=".98"/><rect y="5.89" width=".98" height=".98"/><rect y="4.91" width=".98" height=".98"/></svg>