<svg id="base_layer" data-name="base layer" xmlns="http://www.w3.org/2000/svg" viewBox="0 0 12.75 14.7"><defs><style>.cls-1{fill:none;}</style></defs><path class="cls-1" d="M9.8,11.76v-1h1v-1h-2v-2h1v1h1v-2h1v-2h-1v-2H2v2H1v2H2v1H1v1h2v-1h1v1h-1v1H2v1h1v1h1v2h1v-2H7.84v1h1v-1ZM3.92,4.9v-1h1v1Zm3.92,2H4.9v-1H7.84Zm0-2v-1h1v1Z"/><rect x="4.9" y="11.76" width="0.98" height="0.98"/><rect x="4.9" y="12.74" width="0.98" height="0.98"/><rect x="3.92" y="13.72" width="0.98" height="0.98"/><rect x="2.94" y="12.74" width="0.98" height="0.98"/><rect x="2.94" y="11.76" width="0.98" height="0.98"/><rect x="5.88" y="11.76" width="0.98" height="0.98"/><rect x="6.86" y="11.76" width="0.98" height="0.98"/><rect x="7.84" y="12.74" width="0.98" height="0.98"/><rect x="8.82" y="11.76" width="0.98" height="0.98"/><rect x="9.8" y="10.78" width="0.98" height="0.98"/><rect x="10.78" y="9.8" width="0.98" height="0.98"/><rect x="8.82" y="7.84" width="0.98" height="0.98"/><rect x="8.82" y="8.82" width="0.98" height="0.98"/><rect x="9.8" y="8.82" width="0.98" height="0.98"/><rect x="10.78" y="8.82" width="0.98" height="0.98"/><rect x="10.78" y="7.84" width="0.98" height="0.98"/><rect x="10.78" y="6.86" width="0.98" height="0.98"/><rect x="11.76" y="5.88" width="0.99" height="0.98"/><rect x="11.76" y="4.9" width="0.99" height="0.98"/><rect x="1.96" y="10.78" width="0.98" height="0.98"/><rect x="2.94" y="7.84" width="0.98" height="0.98"/><rect x="1.96" y="8.82" width="0.98" height="0.98"/><rect x="0.98" y="9.8" width="0.98" height="0.98"/><rect x="0.98" y="8.82" width="0.98" height="0.98"/><rect y="7.84" width="0.98" height="0.98"/><rect x="0.98" y="6.86" width="0.98" height="0.98"/><rect y="5.88" width="0.98" height="0.98"/><rect y="4.9" width="0.98" height="0.98"/><rect x="0.98" y="2.94" width="0.98" height="0.98"/><rect x="0.98" y="3.92" width="0.98" height="0.98"/><rect x="4.9" y="5.88" width="0.98" height="0.98"/><rect x="6.86" y="5.88" width="0.98" height="0.98"/><rect x="5.88" y="5.88" width="0.98" height="0.98"/><rect x="3.92" y="3.92" width="0.98" height="0.98"/><rect x="7.84" y="3.92" width="0.98" height="0.98"/><rect x="0.98" y="1.96" width="0.98" height="0.98"/><rect x="1.96" y="0.98" width="0.98" height="0.98"/><rect x="1.96" y="1.96" width="0.98" height="0.98"/><rect x="2.94" y="0.98" width="0.98" height="0.98"/><rect x="3.92" y="1.96" width="0.98" height="0.98"/><rect x="2.94" y="1.96" width="0.98" height="0.98"/><rect x="0.98" y="0.98" width="0.98" height="0.98"/><rect x="1.96" width="0.98" height="0.98"/><rect x="2.94" width="0.98" height="0.98"/><rect x="3.92" y="0.98" width="0.98" height="0.98"/><rect x="4.9" y="1.96" width="0.98" height="0.98"/><rect x="6.86" y="1.96" width="0.98" height="0.98"/><rect x="5.88" y="1.96" width="0.98" height="0.98"/><rect x="7.84" y="0.98" width="0.98" height="0.98"/><rect x="7.84" y="1.96" width="0.98" height="0.98"/><rect x="8.82" y="1.96" width="0.98" height="0.98"/><rect x="8.82" y="0.98" width="0.98" height="0.98"/><rect x="9.8" y="1.96" width="0.98" height="0.98"/><rect x="8.82" width="0.98" height="0.98"/><rect x="9.8" width="0.98" height="0.98"/><rect x="9.8" y="0.98" width="0.98" height="0.98"/><rect x="10.78" y="1.96" width="0.98" height="0.98"/><rect x="10.78" y="0.98" width="0.98" height="0.98"/><rect x="10.78" y="2.94" width="0.98" height="0.98"/><rect x="10.78" y="3.92" width="0.98" height="0.98"/></svg>