<?xml version="1.0" encoding="UTF-8"?><svg id="a" xmlns="http://www.w3.org/2000/svg" viewBox="0 0 12.75 14.72"><defs><style>.b{fill:none;}</style></defs><path class="b" d="M11.77,4.91h-.98v-1.97H1.96v1.97H.98v1.96h.98v.98H.98v.98h1.96v-.98h.99v.98h-.99v.98h-.98v.98h.98v.98h.99v1.96h.98v-1.96h2.94v.98h.98v-.98h.98v-.98h.98v-.98h-1.96v-1.96h.98v.98h.98v-1.96h.98v-1.96Zm-7.84,0h-.99v-.99h1.97v.99h-.98Zm3.92,1.96h-2.94v-.98h2.94v.98Zm1.96-1.96h-1.96v-.99h1.96v.99Z"/><rect x="2.94" y="3.92" width=".99" height=".99"/><rect x="8.83" y="3.92" width=".98" height=".99"/><rect x="11.77" y="5.89" width=".98" height=".98"/><rect x="11.77" y="4.91" width=".98" height=".98"/><rect x="10.79" y="9.81" width=".98" height=".98"/><rect x="10.79" y="8.83" width=".98" height=".98"/><rect x="10.79" y="7.85" width=".98" height=".98"/><rect x="10.79" y="6.87" width=".98" height=".98"/><rect x="10.79" y="3.92" width=".98" height=".99"/><rect x="10.79" y="2.94" width=".98" height=".98"/><rect x="10.79" y="1.96" width=".98" height=".98"/><rect x="10.79" y=".98" width=".98" height=".98"/><rect x="9.81" y="10.79" width=".98" height=".98"/><rect x="9.81" y="8.83" width=".98" height=".98"/><rect x="9.81" y="1.96" width=".98" height=".98"/><rect x="9.81" y=".98" width=".98" height=".98"/><rect x="9.81" width=".98" height=".98"/><rect x="8.83" y="11.77" width=".98" height=".98"/><rect x="8.83" y="8.83" width=".98" height=".98"/><rect x="8.83" y="7.85" width=".98" height=".98"/><rect x="8.83" y="1.96" width=".98" height=".98"/><rect x="8.83" y=".98" width=".98" height=".98"/><rect x="8.83" width=".98" height=".98"/><rect x="7.85" y="12.75" width=".98" height=".98"/><rect x="7.85" y="3.92" width=".98" height=".99"/><rect x="7.85" y="1.96" width=".98" height=".98"/><rect x="7.85" y=".98" width=".98" height=".98"/><rect x="6.87" y="11.77" width=".98" height=".98"/><rect x="6.87" y="5.89" width=".98" height=".98"/><rect x="6.87" y="1.96" width=".98" height=".98"/><rect x="5.89" y="11.77" width=".98" height=".98"/><rect x="5.89" y="5.89" width=".98" height=".98"/><rect x="5.89" y="1.96" width=".98" height=".98"/><rect x="4.91" y="12.75" width=".98" height=".98"/><rect x="4.91" y="11.77" width=".98" height=".98"/><rect x="4.91" y="5.89" width=".98" height=".98"/><rect x="4.91" y="1.96" width=".98" height=".98"/><rect x="3.93" y="13.73" width=".98" height=".98"/><rect x="3.93" y="3.92" width=".98" height=".99"/><rect x="3.93" y="1.96" width=".98" height=".98"/><rect x="3.93" y=".98" width=".98" height=".98"/><rect x="2.94" y="12.75" width=".99" height=".98"/><rect x="2.94" y="11.77" width=".99" height=".98"/><rect x="2.94" y="7.85" width=".99" height=".98"/><rect x="2.94" y="1.96" width=".99" height=".98"/><rect x="2.94" y=".98" width=".99" height=".98"/><rect x="2.94" width=".99" height=".98"/><rect x="1.96" y="10.79" width=".98" height=".98"/><rect x="1.96" y="8.83" width=".98" height=".98"/><rect x="1.96" y="1.96" width=".98" height=".98"/><rect x="1.96" y=".98" width=".98" height=".98"/><rect x="1.96" width=".98" height=".98"/><rect x=".98" y="9.81" width=".98" height=".98"/><rect x=".98" y="8.83" width=".98" height=".98"/><rect x=".98" y="6.87" width=".98" height=".98"/><rect x=".98" y="3.92" width=".98" height=".99"/><rect x=".98" y="2.94" width=".98" height=".98"/><rect x=".98" y="1.96" width=".98" height=".98"/><rect x=".98" y=".98" width=".98" height=".98"/><rect y="7.85" width=".98" height=".98"/><rect y="5.89" width=".98" height=".98"/><rect y="4.91" width=".98" height=".98"/></svg>