<svg id="firstStageBaby" xmlns="http://www.w3.org/2000/svg" viewBox="0 0 100 100"><defs><style>.cls-1{fill:none;}</style></defs><polygon class="cls-1" points="63.46 82.69 59.61 82.69 55.77 82.69 51.92 82.69 48.08 82.69 44.23 82.69 44.23 86.53 44.23 90.38 48.08 90.38 51.92 90.38 55.77 90.38 59.61 90.38 63.46 90.38 63.46 86.53 63.46 82.69"/><rect class="cls-1" x="59.61" y="71.15" width="3.85" height="3.84"/><rect class="cls-1" x="40.38" y="71.15" width="3.85" height="3.84"/><rect x="59.61" y="63.46" width="3.85" height="3.84"/><rect x="55.77" y="63.46" width="3.84" height="3.84"/><rect x="63.46" y="67.3" width="3.85" height="3.85"/><rect x="63.46" y="63.46" width="3.85" height="3.84"/><rect x="48.08" y="67.3" width="3.84" height="3.85"/><rect x="48.08" y="74.99" width="3.84" height="3.85"/><rect x="48.08" y="71.15" width="3.84" height="3.84"/><rect x="44.23" y="63.46" width="3.85" height="3.84"/><rect x="51.92" y="67.3" width="3.85" height="3.85"/><rect x="51.92" y="63.46" width="3.85" height="3.84"/><rect x="51.92" y="71.15" width="3.85" height="3.84"/><rect x="51.92" y="74.99" width="3.85" height="3.85"/><rect x="48.08" y="63.46" width="3.84" height="3.84"/><rect x="36.54" y="86.53" width="3.84" height="3.85"/><rect x="36.54" y="90.38" width="3.84" height="3.84"/><rect x="36.54" y="63.46" width="3.84" height="3.84"/><rect x="40.38" y="63.46" width="3.85" height="3.84"/><rect x="36.54" y="82.69" width="3.84" height="3.84"/><rect x="36.54" y="78.84" width="3.84" height="3.85"/><rect x="32.69" y="86.53" width="3.85" height="3.85"/><rect x="32.69" y="74.99" width="3.85" height="3.85"/><rect x="32.69" y="67.3" width="3.85" height="3.85"/><rect x="32.69" y="78.84" width="3.85" height="3.85"/><rect x="32.69" y="71.15" width="3.85" height="3.84"/><rect x="32.69" y="82.69" width="3.85" height="3.84"/><rect x="32.69" y="90.38" width="3.85" height="3.84"/><rect x="59.61" y="90.38" width="3.85" height="3.84"/><rect x="59.61" y="78.84" width="3.85" height="3.85"/><rect x="44.23" y="90.38" width="3.85" height="3.84"/><rect x="51.92" y="90.38" width="3.85" height="3.84"/><rect x="55.77" y="78.84" width="3.84" height="3.85"/><rect x="48.08" y="78.84" width="3.84" height="3.85"/><rect x="44.23" y="78.84" width="3.85" height="3.85"/><rect x="51.92" y="78.84" width="3.85" height="3.85"/><rect x="55.77" y="90.38" width="3.84" height="3.84"/><rect x="48.08" y="90.38" width="3.84" height="3.84"/><rect x="63.46" y="90.38" width="3.85" height="3.84"/><rect x="63.46" y="86.53" width="3.85" height="3.85"/><rect x="63.46" y="82.69" width="3.85" height="3.84"/><rect x="63.46" y="78.84" width="3.85" height="3.85"/><rect x="40.38" y="82.69" width="3.85" height="3.84"/><rect x="40.38" y="86.53" width="3.85" height="3.85"/><rect x="40.38" y="78.84" width="3.85" height="3.85"/><rect x="40.38" y="90.38" width="3.85" height="3.84"/><rect x="59.61" y="67.3" width="3.85" height="3.85"/><rect x="59.61" y="74.99" width="3.85" height="3.85"/><rect x="55.77" y="67.3" width="3.84" height="3.85"/><rect x="55.77" y="74.99" width="3.84" height="3.85"/><rect x="55.77" y="71.15" width="3.84" height="3.84"/><rect x="63.46" y="74.99" width="3.85" height="3.85"/><rect x="63.46" y="71.15" width="3.85" height="3.84"/><rect x="44.23" y="74.99" width="3.85" height="3.85"/><rect x="44.23" y="67.3" width="3.85" height="3.85"/><rect x="44.23" y="71.15" width="3.85" height="3.84"/><rect x="36.54" y="71.15" width="3.84" height="3.84"/><rect x="40.38" y="74.99" width="3.85" height="3.85"/><rect x="40.38" y="67.3" width="3.85" height="3.85"/><rect x="36.54" y="67.3" width="3.84" height="3.85"/><rect x="36.54" y="74.99" width="3.84" height="3.85"/><rect x="28.85" y="86.53" width="3.84" height="3.85"/><rect x="28.85" y="67.3" width="3.84" height="3.85"/><rect x="28.85" y="82.69" width="3.84" height="3.84"/><rect x="28.85" y="71.15" width="3.84" height="3.84"/><rect x="28.85" y="74.99" width="3.84" height="3.85"/><rect x="28.85" y="78.84" width="3.84" height="3.85"/><rect x="28.85" y="90.38" width="3.84" height="3.84"/><rect x="59.61" y="59.61" width="3.85" height="3.85"/><rect x="51.92" y="59.61" width="3.85" height="3.85"/><rect x="55.77" y="59.61" width="3.84" height="3.85"/><rect x="44.23" y="59.61" width="3.85" height="3.85"/><rect x="48.08" y="59.61" width="3.84" height="3.85"/><rect x="36.54" y="59.61" width="3.84" height="3.85"/><rect x="40.38" y="59.61" width="3.85" height="3.85"/><rect x="67.31" y="90.38" width="3.84" height="3.84"/><rect x="67.31" y="86.53" width="3.84" height="3.85"/><rect x="67.31" y="82.69" width="3.84" height="3.84"/><rect x="67.31" y="78.84" width="3.84" height="3.85"/><rect x="67.31" y="74.99" width="3.84" height="3.85"/><rect x="67.31" y="71.15" width="3.84" height="3.84"/><rect x="67.31" y="67.3" width="3.84" height="3.85"/><rect x="44.23" y="94.22" width="3.85" height="3.85"/><rect x="48.08" y="94.22" width="3.84" height="3.85"/><rect x="51.92" y="94.22" width="3.85" height="3.85"/><rect x="55.77" y="94.22" width="3.84" height="3.85"/><rect x="63.46" y="94.22" width="3.85" height="3.85"/><rect x="59.61" y="94.22" width="3.85" height="3.85"/><rect x="36.54" y="94.22" width="3.84" height="3.85"/><rect x="40.38" y="94.22" width="3.85" height="3.85"/><rect x="32.69" y="94.22" width="3.85" height="3.85"/></svg>