<svg id="Layer_3" data-name="Layer 3" xmlns="http://www.w3.org/2000/svg" viewBox="0 0 100 100"><defs><style>.cls-1{fill:none;}</style></defs><rect class="cls-1" width="100" height="100"/><path class="cls-1" d="M88.79,69h5.44V25.57H83.37V14.7H67.08V9.28H34.5V14.7H18.21V25.57H7.36V69h5.43V79.86H23.65V90.72H77.94V79.86H88.79V69ZM34.5,36.43H29.08V25.57H39.94V36.43ZM56.23,47.28v5.44H39.94V41.85H56.23ZM72.5,31v5.44H61.65V25.57H72.5Z"/><rect x="39.94" y="41.85" width="5.42" height="5.43"/><rect x="45.36" y="41.85" width="5.43" height="5.43"/><rect x="50.79" y="41.85" width="5.43" height="5.43"/><rect x="39.94" y="47.28" width="5.42" height="5.43"/><rect x="45.36" y="47.28" width="5.43" height="5.43"/><rect x="50.79" y="47.28" width="5.43" height="5.43"/><rect x="61.65" y="25.57" width="5.43" height="5.42"/><rect x="61.65" y="30.99" width="5.43" height="5.43"/><rect x="67.08" y="25.57" width="5.42" height="5.42"/><rect x="67.08" y="30.99" width="5.42" height="5.43"/><rect x="29.08" y="25.57" width="5.42" height="5.42"/><rect x="29.08" y="30.99" width="5.42" height="5.43"/><rect x="34.5" y="25.57" width="5.43" height="5.42"/><rect x="34.5" y="30.99" width="5.43" height="5.43"/><rect x="29.08" y="9.28" width="5.42" height="5.42"/><rect x="72.5" y="3.85" width="5.43" height="5.43"/><rect x="67.08" y="3.85" width="5.42" height="5.43"/><rect x="61.65" y="3.85" width="5.43" height="5.43"/><rect x="23.65" y="3.85" width="5.43" height="5.43"/><rect x="29.08" y="3.85" width="5.42" height="5.43"/><rect x="34.5" y="3.85" width="5.43" height="5.43"/><rect x="39.94" y="3.85" width="5.42" height="5.43"/><rect x="45.36" y="3.85" width="5.43" height="5.43"/><rect x="50.79" y="3.85" width="5.43" height="5.43"/><rect x="18.21" y="9.28" width="5.43" height="5.42"/><rect x="23.65" y="9.28" width="5.43" height="5.42"/><rect x="56.23" y="3.85" width="5.42" height="5.43"/><rect x="7.36" y="20.14" width="5.43" height="5.43"/><rect x="12.79" y="20.14" width="5.42" height="5.43"/><rect x="12.79" y="14.7" width="5.42" height="5.43"/><rect x="77.94" y="9.28" width="5.43" height="5.42"/><rect x="72.5" y="9.28" width="5.43" height="5.42"/><rect x="67.08" y="9.28" width="5.42" height="5.42"/><rect x="83.37" y="14.7" width="5.42" height="5.43"/><rect x="83.37" y="20.14" width="5.42" height="5.43"/><rect x="88.79" y="20.14" width="5.43" height="5.43"/><rect x="88.79" y="68.99" width="5.43" height="5.43"/><rect x="94.23" y="30.99" width="5.43" height="5.43"/><rect x="94.23" y="41.85" width="5.43" height="5.43"/><rect x="94.23" y="25.57" width="5.43" height="5.42"/><rect x="94.23" y="36.43" width="5.43" height="5.42"/><rect x="94.23" y="63.57" width="5.43" height="5.42"/><rect x="94.23" y="52.72" width="5.43" height="5.42"/><rect x="94.23" y="47.28" width="5.43" height="5.43"/><rect x="94.23" y="68.99" width="5.43" height="5.43"/><rect x="88.79" y="74.43" width="5.43" height="5.43"/><rect x="94.23" y="58.14" width="5.43" height="5.43"/><rect x="77.94" y="79.86" width="5.43" height="5.42"/><rect x="77.94" y="85.28" width="5.43" height="5.43"/><rect x="83.37" y="79.86" width="5.42" height="5.42"/><rect x="83.37" y="85.28" width="5.42" height="5.43"/><rect x="1.92" y="41.85" width="5.43" height="5.43"/><rect x="1.92" y="30.99" width="5.43" height="5.43"/><rect x="1.92" y="36.43" width="5.43" height="5.42"/><rect x="1.92" y="25.57" width="5.43" height="5.42"/><rect x="1.92" y="58.14" width="5.43" height="5.43"/><rect x="1.92" y="63.57" width="5.43" height="5.42"/><rect x="1.92" y="52.72" width="5.43" height="5.42"/><rect x="1.92" y="68.99" width="5.43" height="5.43"/><rect x="1.92" y="47.28" width="5.43" height="5.43"/><rect x="7.36" y="74.43" width="5.43" height="5.43"/><rect x="7.36" y="68.99" width="5.43" height="5.43"/><rect x="18.21" y="85.28" width="5.43" height="5.43"/><rect x="12.79" y="85.28" width="5.42" height="5.43"/><rect x="12.79" y="79.86" width="5.42" height="5.42"/><rect x="18.21" y="79.86" width="5.43" height="5.42"/><rect x="72.5" y="90.72" width="5.43" height="5.43"/><rect x="67.08" y="90.72" width="5.42" height="5.43"/><rect x="61.65" y="90.72" width="5.43" height="5.43"/><rect x="56.23" y="90.72" width="5.42" height="5.43"/><rect x="50.79" y="90.72" width="5.43" height="5.43"/><rect x="45.36" y="90.72" width="5.43" height="5.43"/><rect x="39.94" y="90.72" width="5.42" height="5.43"/><rect x="34.5" y="90.72" width="5.43" height="5.43"/><rect x="29.08" y="90.72" width="5.42" height="5.43"/><rect x="23.65" y="90.72" width="5.43" height="5.43"/></svg>