<svg id="Layer_2" data-name="Layer 2" xmlns="http://www.w3.org/2000/svg" viewBox="0 0 128.74 92.41"><defs><style>.cls-1{fill:none;}</style></defs><polygon class="cls-1" points="53.84 57.69 50 57.69 46.15 57.69 46.15 61.54 46.15 65.38 46.15 69.23 50 69.23 53.84 69.23 53.84 65.38 57.69 65.38 61.54 65.38 61.54 61.54 61.54 57.69 57.69 57.69 53.84 57.69"/><polygon class="cls-1" points="15.38 57.69 15.38 61.54 15.38 65.38 19.23 65.38 23.08 65.38 26.92 65.38 26.92 61.54 26.92 57.69 23.08 57.69 19.23 57.69 19.23 53.84 19.23 50 15.38 50 11.54 50 7.69 50 7.69 53.84 7.69 57.69 11.54 57.69 15.38 57.69"/><polygon class="cls-1" points="38.46 53.84 42.31 53.84 42.31 50 42.31 46.15 42.31 42.31 38.46 42.31 34.61 42.31 30.77 42.31 30.77 46.15 30.77 50 30.77 53.84 34.61 53.84 38.46 53.84"/><polygon class="cls-1" points="46.15 23.08 46.15 26.92 46.15 30.77 50 30.77 53.84 30.77 57.69 30.77 61.54 30.77 61.54 26.92 57.69 26.92 53.84 26.92 53.84 23.08 53.84 19.23 50 19.23 46.15 19.23 46.15 23.08"/><polygon class="cls-1" points="15.38 42.31 19.23 42.31 19.23 38.46 19.23 34.61 23.08 34.61 26.92 34.61 26.92 30.77 26.92 26.92 26.92 23.08 23.08 23.08 23.08 26.92 23.08 30.77 19.23 30.77 15.38 30.77 15.38 34.61 15.38 38.46 15.38 42.31"/><rect x="50" y="11.54" width="3.84" height="3.84"/><rect x="53.84" y="15.38" width="3.85" height="3.85"/><rect x="7.69" y="42.31" width="3.85" height="3.84"/><rect x="7.69" y="38.46" width="3.85" height="3.85"/><rect x="3.84" y="42.31" width="3.85" height="3.84"/><rect x="3.84" y="38.46" width="3.85" height="3.85"/><rect x="23.08" y="50" width="3.84" height="3.84"/><rect x="23.08" y="38.46" width="3.84" height="3.85"/><rect x="23.08" y="46.15" width="3.84" height="3.85"/><rect x="23.08" y="42.31" width="3.84" height="3.84"/><rect x="15.38" y="42.31" width="3.85" height="3.84"/><rect x="11.54" y="42.31" width="3.84" height="3.84"/><rect x="19.23" y="42.31" width="3.85" height="3.84"/><rect x="11.54" y="38.46" width="3.84" height="3.85"/><rect x="11.54" y="34.61" width="3.84" height="3.85"/><rect x="23.08" y="34.61" width="3.84" height="3.85"/><rect x="19.23" y="38.46" width="3.85" height="3.85"/><rect x="19.23" y="34.61" width="3.85" height="3.85"/><rect x="19.23" y="26.92" width="3.85" height="3.85"/><rect x="23.08" y="19.23" width="3.84" height="3.85"/><rect x="23.08" y="15.38" width="3.84" height="3.85"/><rect x="19.23" y="23.08" width="3.85" height="3.84"/><rect x="61.54" y="30.77" width="3.84" height="3.84"/><rect x="61.54" y="34.61" width="3.84" height="3.85"/><rect x="57.69" y="34.61" width="3.85" height="3.85"/><rect x="50" y="34.61" width="3.84" height="3.85"/><rect x="53.84" y="34.61" width="3.85" height="3.85"/><rect x="65.38" y="50" width="3.85" height="3.84"/><rect x="65.38" y="38.46" width="3.85" height="3.85"/><rect x="65.38" y="46.15" width="3.85" height="3.85"/><rect x="65.38" y="42.31" width="3.85" height="3.84"/><rect x="61.54" y="46.15" width="3.84" height="3.85"/><rect x="61.54" y="38.46" width="3.84" height="3.85"/><rect x="57.69" y="38.46" width="3.85" height="3.85"/><rect x="57.69" y="42.31" width="3.85" height="3.84"/><rect x="57.69" y="46.15" width="3.85" height="3.85"/><rect x="57.69" y="50" width="3.85" height="3.84"/><rect x="61.54" y="50" width="3.84" height="3.84"/><rect x="61.54" y="42.31" width="3.84" height="3.84"/><rect x="53.84" y="38.46" width="3.85" height="3.85"/><rect x="53.84" y="46.15" width="3.85" height="3.85"/><rect x="50" y="38.46" width="3.84" height="3.85"/><rect x="50" y="50" width="3.84" height="3.84"/><rect x="53.84" y="42.31" width="3.85" height="3.84"/><rect x="50" y="42.31" width="3.84" height="3.84"/><rect x="50" y="46.15" width="3.84" height="3.85"/><rect x="53.84" y="50" width="3.85" height="3.84"/><rect x="38.46" y="11.54" width="3.85" height="3.84"/><rect x="34.61" y="19.23" width="3.85" height="3.85"/><rect x="38.46" y="30.77" width="3.85" height="3.84"/><rect x="34.61" y="23.08" width="3.85" height="3.84"/><rect x="26.92" y="23.08" width="3.85" height="3.84"/><rect x="26.92" y="30.77" width="3.85" height="3.84"/><rect x="34.61" y="30.77" width="3.85" height="3.84"/><rect x="30.77" y="15.38" width="3.84" height="3.85"/><rect x="38.46" y="15.38" width="3.85" height="3.85"/><rect x="34.61" y="15.38" width="3.85" height="3.85"/><rect x="26.92" y="19.23" width="3.85" height="3.85"/><rect x="38.46" y="23.08" width="3.85" height="3.84"/><rect x="26.92" y="34.61" width="3.85" height="3.85"/><rect x="26.92" y="15.38" width="3.85" height="3.85"/><rect x="34.61" y="11.54" width="3.85" height="3.84"/><rect x="26.92" y="26.92" width="3.85" height="3.85"/><rect x="30.77" y="30.77" width="3.84" height="3.84"/><rect x="38.46" y="26.92" width="3.85" height="3.85"/><rect x="30.77" y="26.92" width="3.84" height="3.85"/><rect x="34.61" y="26.92" width="3.85" height="3.85"/><rect x="38.46" y="19.23" width="3.85" height="3.85"/><rect x="30.77" y="23.08" width="3.84" height="3.84"/><rect x="30.77" y="19.23" width="3.84" height="3.85"/><rect x="42.31" y="15.38" width="3.84" height="3.85"/><rect x="42.31" y="11.54" width="3.84" height="3.84"/><rect x="42.31" y="30.77" width="3.84" height="3.84"/><rect x="42.31" y="26.92" width="3.84" height="3.85"/><rect x="42.31" y="23.08" width="3.84" height="3.84"/><rect x="42.31" y="19.23" width="3.84" height="3.85"/><rect x="46.15" y="30.77" width="3.85" height="3.84"/><rect x="46.15" y="15.38" width="3.85" height="3.85"/><rect x="57.69" y="30.77" width="3.85" height="3.84"/><rect x="53.84" y="30.77" width="3.85" height="3.84"/><rect x="50" y="30.77" width="3.84" height="3.84"/><rect x="53.84" y="23.08" width="3.85" height="3.84"/><rect x="65.38" y="34.61" width="3.85" height="3.85"/><rect x="69.23" y="46.15" width="3.85" height="3.85"/><rect x="69.23" y="34.61" width="3.85" height="3.85"/><rect x="69.23" y="38.46" width="3.85" height="3.85"/><rect x="69.23" y="50" width="3.85" height="3.84"/><rect x="65.38" y="30.77" width="3.85" height="3.84"/><rect x="69.23" y="42.31" width="3.85" height="3.84"/><rect x="65.38" y="53.84" width="3.85" height="3.85"/><rect x="61.54" y="53.84" width="3.84" height="3.85"/><rect x="57.69" y="69.23" width="3.85" height="3.85"/><rect x="61.54" y="69.23" width="3.84" height="3.85"/><rect x="61.54" y="65.38" width="3.84" height="3.85"/><rect x="53.84" y="69.23" width="3.85" height="3.85"/><rect x="30.77" y="69.23" width="3.84" height="3.85"/><rect x="34.61" y="69.23" width="3.85" height="3.85"/><rect x="38.46" y="69.23" width="3.85" height="3.85"/><rect x="42.31" y="69.23" width="3.84" height="3.85"/><rect x="23.08" y="69.23" width="3.84" height="3.85"/><rect x="30.77" y="65.38" width="3.84" height="3.85"/><rect x="34.61" y="57.69" width="3.85" height="3.85"/><rect x="34.61" y="65.38" width="3.85" height="3.85"/><rect x="34.61" y="61.54" width="3.85" height="3.84"/><rect x="30.77" y="61.54" width="3.84" height="3.84"/><rect x="38.46" y="57.69" width="3.85" height="3.85"/><rect x="26.92" y="69.23" width="3.85" height="3.85"/><rect x="30.77" y="57.69" width="3.84" height="3.85"/><rect x="26.92" y="65.38" width="3.85" height="3.85"/><rect x="19.23" y="69.23" width="3.85" height="3.85"/><rect x="38.46" y="65.38" width="3.85" height="3.85"/><rect x="38.46" y="61.54" width="3.85" height="3.84"/><rect x="15.38" y="69.23" width="3.85" height="3.85"/><rect x="34.61" y="38.46" width="3.85" height="3.85"/><rect x="30.77" y="38.46" width="3.84" height="3.85"/><rect x="38.46" y="38.46" width="3.85" height="3.85"/><rect x="42.31" y="50" width="3.84" height="3.84"/><rect x="42.31" y="38.46" width="3.84" height="3.85"/><rect x="42.31" y="46.15" width="3.84" height="3.85"/><rect x="42.31" y="42.31" width="3.84" height="3.84"/><rect x="46.15" y="34.61" width="3.85" height="3.85"/><rect x="46.15" y="38.46" width="3.85" height="3.85"/><rect x="46.15" y="46.15" width="3.85" height="3.85"/><rect x="46.15" y="42.31" width="3.85" height="3.84"/><rect x="46.15" y="50" width="3.85" height="3.84"/><rect x="38.46" y="34.61" width="3.85" height="3.85"/><rect x="34.61" y="34.61" width="3.85" height="3.85"/><rect x="30.77" y="34.61" width="3.84" height="3.85"/><rect x="42.31" y="34.61" width="3.84" height="3.85"/><rect x="26.92" y="38.46" width="3.85" height="3.85"/><rect x="26.92" y="50" width="3.85" height="3.84"/><rect x="26.92" y="42.31" width="3.85" height="3.84"/><rect x="26.92" y="46.15" width="3.85" height="3.85"/><rect x="34.61" y="53.84" width="3.85" height="3.85"/><rect x="30.77" y="53.84" width="3.84" height="3.85"/><rect x="38.46" y="53.84" width="3.85" height="3.85"/><rect x="42.31" y="53.84" width="3.84" height="3.85"/><rect x="53.84" y="53.84" width="3.85" height="3.85"/><rect x="50" y="53.84" width="3.84" height="3.85"/><rect x="46.15" y="53.84" width="3.85" height="3.85"/><rect x="42.31" y="61.54" width="3.84" height="3.84"/><rect x="42.31" y="65.38" width="3.84" height="3.85"/><rect x="42.31" y="57.69" width="3.84" height="3.85"/><rect x="50" y="69.23" width="3.84" height="3.85"/><rect x="46.15" y="69.23" width="3.85" height="3.85"/><rect x="57.69" y="65.38" width="3.85" height="3.85"/><rect x="53.84" y="65.38" width="3.85" height="3.85"/><rect x="57.69" y="53.84" width="3.85" height="3.85"/><rect x="61.54" y="57.69" width="3.84" height="3.85"/><rect x="61.54" y="61.54" width="3.84" height="3.84"/><rect x="7.69" y="46.15" width="3.85" height="3.85"/><rect x="3.84" y="50" width="3.85" height="3.84"/><rect x="3.84" y="46.15" width="3.85" height="3.85"/><rect x="15.38" y="46.15" width="3.85" height="3.85"/><rect x="11.54" y="46.15" width="3.84" height="3.85"/><rect x="19.23" y="46.15" width="3.85" height="3.85"/><rect x="19.23" y="50" width="3.85" height="3.84"/><rect x="23.08" y="53.84" width="3.84" height="3.85"/><rect x="19.23" y="53.84" width="3.85" height="3.85"/><rect x="26.92" y="61.54" width="3.85" height="3.84"/><rect x="26.92" y="57.69" width="3.85" height="3.85"/><rect x="26.92" y="53.84" width="3.85" height="3.85"/><rect x="23.08" y="65.38" width="3.84" height="3.85"/><rect x="19.23" y="65.38" width="3.85" height="3.85"/><rect x="15.38" y="65.38" width="3.85" height="3.85"/><rect x="11.54" y="57.69" width="3.84" height="3.85"/><rect x="11.54" y="61.54" width="3.84" height="3.84"/><rect x="11.54" y="65.38" width="3.84" height="3.85"/><rect x="11.54" y="69.23" width="3.84" height="3.85"/><rect x="11.54" y="26.92" width="3.84" height="3.85"/><rect x="69.23" y="26.92" width="3.85" height="3.85"/><rect x="61.54" y="23.08" width="3.84" height="3.84"/><rect x="46.15" y="7.69" width="3.85" height="3.85"/><rect x="42.31" y="7.69" width="3.84" height="3.85"/><rect x="30.77" y="7.69" width="3.84" height="3.85"/><rect x="46.15" y="11.54" width="3.85" height="3.84"/><rect x="50" y="15.38" width="3.84" height="3.85"/><rect x="53.84" y="19.23" width="3.85" height="3.85"/><rect x="57.69" y="19.23" width="3.85" height="3.85"/><rect x="57.69" y="23.08" width="3.85" height="3.84"/><rect x="61.54" y="26.92" width="3.84" height="3.85"/><rect x="65.38" y="26.92" width="3.85" height="3.85"/><rect x="69.23" y="30.77" width="3.85" height="3.84"/><rect x="73.08" y="30.77" width="3.84" height="3.84"/><rect x="38.46" y="7.69" width="3.85" height="3.85"/><rect x="34.61" y="7.69" width="3.85" height="3.85"/><rect x="30.77" y="11.54" width="3.84" height="3.84"/><rect x="26.92" y="11.54" width="3.85" height="3.84"/><rect x="23.08" y="11.54" width="3.84" height="3.84"/><rect x="19.23" y="15.38" width="3.85" height="3.85"/><rect x="19.23" y="19.23" width="3.85" height="3.85"/><rect x="15.38" y="19.23" width="3.85" height="3.85"/><rect x="15.38" y="23.08" width="3.85" height="3.84"/><rect x="15.38" y="26.92" width="3.85" height="3.85"/><rect x="11.54" y="30.77" width="3.84" height="3.84"/><rect x="7.69" y="30.77" width="3.85" height="3.84"/><rect x="7.69" y="34.61" width="3.85" height="3.85"/><rect x="3.84" y="34.61" width="3.85" height="3.85"/><rect y="34.61" width="3.84" height="3.85"/><rect y="38.46" width="3.84" height="3.85"/><rect y="42.31" width="3.84" height="3.84"/><rect y="46.15" width="3.84" height="3.85"/><rect y="50" width="3.84" height="3.84"/><rect y="53.84" width="3.84" height="3.85"/><rect x="3.84" y="53.84" width="3.85" height="3.85"/><rect x="73.08" y="34.61" width="3.84" height="3.85"/><rect x="73.08" y="38.46" width="3.84" height="3.85"/><rect x="73.08" y="42.31" width="3.84" height="3.84"/><rect x="73.08" y="46.15" width="3.84" height="3.85"/><rect x="73.08" y="50" width="3.84" height="3.84"/><rect x="73.08" y="53.84" width="3.84" height="3.85"/><rect x="69.23" y="53.84" width="3.85" height="3.85"/><rect x="7.69" y="57.69" width="3.85" height="3.85"/><rect x="7.69" y="61.54" width="3.85" height="3.84"/><rect x="7.69" y="65.38" width="3.85" height="3.85"/><rect x="7.69" y="69.23" width="3.85" height="3.85"/><rect x="65.38" y="57.69" width="3.85" height="3.85"/><rect x="65.38" y="61.54" width="3.85" height="3.84"/><rect x="65.38" y="65.38" width="3.85" height="3.85"/><rect x="65.38" y="69.23" width="3.85" height="3.85"/><rect x="65.38" y="73.08" width="3.85" height="3.84"/><rect x="61.54" y="73.08" width="3.84" height="3.84"/><rect x="57.69" y="73.08" width="3.85" height="3.84"/><rect x="53.84" y="73.08" width="3.85" height="3.84"/><rect x="7.69" y="73.08" width="3.85" height="3.84"/><rect x="11.54" y="73.08" width="3.84" height="3.84"/><rect x="50" y="73.08" width="3.84" height="3.84"/><rect x="30.77" y="73.08" width="3.84" height="3.84"/><rect x="26.92" y="73.08" width="3.85" height="3.84"/><rect x="23.08" y="73.08" width="3.84" height="3.84"/><rect x="19.23" y="73.08" width="3.85" height="3.84"/><rect x="34.61" y="73.08" width="3.85" height="3.84"/><rect x="38.46" y="73.08" width="3.85" height="3.84"/><rect x="42.31" y="73.08" width="3.84" height="3.84"/><rect x="46.15" y="73.08" width="3.85" height="3.84"/><rect x="15.38" y="73.08" width="3.85" height="3.84"/></svg>