<svg id="Layer_3" data-name="Layer 3" xmlns="http://www.w3.org/2000/svg" viewBox="0 0 128.74 92.41"><rect x="69.23" y="57.69" width="3.85" height="3.85"/><rect x="69.23" y="53.84" width="3.85" height="3.85"/><rect x="69.23" y="50" width="3.85" height="3.84"/><rect x="69.23" y="46.15" width="3.85" height="3.85"/><rect x="69.23" y="42.31" width="3.85" height="3.84"/><rect x="69.23" y="38.46" width="3.85" height="3.85"/><rect x="69.23" y="34.61" width="3.85" height="3.85"/><rect x="69.23" y="30.77" width="3.85" height="3.84"/><rect x="65.39" y="65.38" width="3.84" height="3.85"/><rect x="65.39" y="61.54" width="3.84" height="3.84"/><rect x="65.39" y="57.69" width="3.84" height="3.85"/><rect x="65.39" y="53.84" width="3.84" height="3.85"/><rect x="65.39" y="50" width="3.84" height="3.84"/><rect x="65.39" y="46.15" width="3.84" height="3.85"/><rect x="65.39" y="42.31" width="3.84" height="3.84"/><rect x="65.39" y="38.46" width="3.84" height="3.85"/><rect x="65.39" y="34.61" width="3.84" height="3.85"/><rect x="65.39" y="30.77" width="3.84" height="3.84"/><rect x="65.39" y="26.92" width="3.84" height="3.85"/><rect x="65.39" y="23.08" width="3.84" height="3.84"/><rect x="61.54" y="76.92" width="3.85" height="3.85"/><rect x="61.54" y="73.08" width="3.85" height="3.84"/><rect x="61.54" y="69.23" width="3.85" height="3.85"/><rect x="61.54" y="65.38" width="3.85" height="3.85"/><rect x="61.54" y="61.54" width="3.85" height="3.84"/><rect x="61.54" y="57.69" width="3.85" height="3.85"/><rect x="61.54" y="46.15" width="3.85" height="3.85"/><rect x="61.54" y="42.31" width="3.85" height="3.84"/><rect x="61.54" y="38.46" width="3.85" height="3.85"/><rect x="61.54" y="34.61" width="3.85" height="3.85"/><rect x="61.54" y="30.77" width="3.85" height="3.84"/><rect x="61.54" y="26.92" width="3.85" height="3.85"/><rect x="61.54" y="23.08" width="3.85" height="3.84"/><rect x="61.54" y="19.23" width="3.85" height="3.85"/><rect x="61.54" y="15.38" width="3.85" height="3.85"/><rect x="57.69" y="76.92" width="3.85" height="3.85"/><rect x="57.69" y="73.08" width="3.85" height="3.84"/><rect x="57.69" y="69.23" width="3.85" height="3.85"/><rect x="57.69" y="65.38" width="3.85" height="3.85"/><rect x="57.69" y="46.15" width="3.85" height="3.85"/><rect x="57.69" y="42.31" width="3.85" height="3.84"/><rect x="57.69" y="38.46" width="3.85" height="3.85"/><rect x="57.69" y="34.61" width="3.85" height="3.85"/><rect x="57.69" y="30.77" width="3.85" height="3.84"/><rect x="57.69" y="26.92" width="3.85" height="3.85"/><rect x="57.69" y="23.08" width="3.85" height="3.84"/><rect x="57.69" y="19.23" width="3.85" height="3.85"/><rect x="57.69" y="15.38" width="3.85" height="3.85"/><rect x="57.69" y="11.54" width="3.85" height="3.84"/><rect x="57.69" y="7.69" width="3.85" height="3.85"/><rect x="53.85" y="80.77" width="3.84" height="3.84"/><rect x="53.85" y="76.92" width="3.84" height="3.85"/><rect x="53.85" y="73.08" width="3.84" height="3.84"/><rect x="53.85" y="69.23" width="3.84" height="3.85"/><rect x="53.85" y="65.38" width="3.84" height="3.85"/><rect x="53.85" y="46.15" width="3.84" height="3.85"/><rect x="53.85" y="42.31" width="3.84" height="3.84"/><rect x="53.85" y="38.46" width="3.84" height="3.85"/><rect x="53.85" y="34.61" width="3.84" height="3.85"/><rect x="53.85" y="30.77" width="3.84" height="3.84"/><rect x="53.85" y="26.92" width="3.84" height="3.85"/><rect x="53.85" y="19.23" width="3.84" height="3.85"/><rect x="53.85" y="15.38" width="3.84" height="3.85"/><rect x="53.85" y="11.54" width="3.84" height="3.84"/><rect x="53.85" y="7.69" width="3.84" height="3.85"/><rect x="53.85" y="3.84" width="3.84" height="3.85"/><rect x="50" y="80.77" width="3.85" height="3.84"/><rect x="50" y="76.92" width="3.85" height="3.85"/><rect x="50" y="65.38" width="3.85" height="3.85"/><rect x="50" y="61.54" width="3.85" height="3.84"/><rect x="50" y="57.69" width="3.85" height="3.85"/><rect x="50" y="53.84" width="3.85" height="3.85"/><rect x="50" y="50" width="3.85" height="3.84"/><rect x="50" y="46.15" width="3.85" height="3.85"/><rect x="50" y="42.31" width="3.85" height="3.84"/><rect x="50" y="38.46" width="3.85" height="3.85"/><rect x="50" y="34.61" width="3.85" height="3.85"/><rect x="50" y="30.77" width="3.85" height="3.84"/><rect x="50" y="26.92" width="3.85" height="3.85"/><rect x="50" y="11.54" width="3.85" height="3.84"/><rect x="50" y="7.69" width="3.85" height="3.85"/><rect x="50" y="3.84" width="3.85" height="3.85"/><rect x="46.15" y="80.77" width="3.84" height="3.84"/><rect x="46.15" y="76.92" width="3.84" height="3.85"/><rect x="46.15" y="65.38" width="3.84" height="3.85"/><rect x="46.15" y="61.54" width="3.84" height="3.84"/><rect x="46.15" y="57.69" width="3.84" height="3.85"/><rect x="46.15" y="53.84" width="3.84" height="3.85"/><rect x="46.15" y="50" width="3.84" height="3.84"/><rect x="46.15" y="46.15" width="3.84" height="3.85"/><rect x="46.15" y="42.31" width="3.84" height="3.84"/><rect x="46.15" y="38.46" width="3.84" height="3.85"/><rect x="46.15" y="34.61" width="3.84" height="3.85"/><rect x="46.15" y="30.77" width="3.84" height="3.84"/><rect x="46.15" y="26.92" width="3.84" height="3.85"/><rect x="46.15" y="11.54" width="3.84" height="3.84"/><rect x="46.15" y="7.69" width="3.84" height="3.85"/><rect x="46.15" y="3.84" width="3.84" height="3.85"/><rect x="46.15" width="3.84" height="3.84"/><rect x="42.31" y="80.77" width="3.85" height="3.84"/><rect x="42.31" y="76.92" width="3.85" height="3.85"/><rect x="42.31" y="65.38" width="3.85" height="3.85"/><rect x="42.31" y="61.54" width="3.85" height="3.84"/><rect x="42.31" y="57.69" width="3.85" height="3.85"/><rect x="42.31" y="53.84" width="3.85" height="3.85"/><rect x="42.31" y="50" width="3.85" height="3.84"/><rect x="42.31" y="34.61" width="3.85" height="3.85"/><rect x="42.31" y="30.77" width="3.85" height="3.84"/><rect x="42.31" y="26.92" width="3.85" height="3.85"/><rect x="42.31" y="7.69" width="3.85" height="3.85"/><rect x="42.31" y="3.84" width="3.85" height="3.85"/><rect x="42.31" width="3.85" height="3.84"/><rect x="38.46" y="80.77" width="3.85" height="3.84"/><rect x="38.46" y="76.92" width="3.85" height="3.85"/><rect x="38.46" y="65.38" width="3.85" height="3.85"/><rect x="38.46" y="61.54" width="3.85" height="3.84"/><rect x="38.46" y="57.69" width="3.85" height="3.85"/><rect x="38.46" y="53.84" width="3.85" height="3.85"/><rect x="38.46" y="50" width="3.85" height="3.84"/><rect x="38.46" y="34.61" width="3.85" height="3.85"/><rect x="38.46" y="30.77" width="3.85" height="3.84"/><rect x="38.46" y="26.92" width="3.85" height="3.85"/><rect x="38.46" y="23.08" width="3.85" height="3.84"/><rect x="38.46" y="19.23" width="3.85" height="3.85"/><rect x="38.46" y="15.38" width="3.85" height="3.85"/><rect x="38.46" y="11.54" width="3.85" height="3.84"/><rect x="38.46" y="7.69" width="3.85" height="3.85"/><rect x="38.46" y="3.84" width="3.85" height="3.85"/><rect x="38.46" width="3.85" height="3.84"/><rect x="34.62" y="80.77" width="3.84" height="3.84"/><rect x="34.62" y="76.92" width="3.84" height="3.85"/><rect x="34.62" y="69.23" width="3.84" height="3.85"/><rect x="34.62" y="65.38" width="3.84" height="3.85"/><rect x="34.62" y="61.54" width="3.84" height="3.84"/><rect x="34.62" y="57.69" width="3.84" height="3.85"/><rect x="34.62" y="53.84" width="3.84" height="3.85"/><rect x="34.62" y="50" width="3.84" height="3.84"/><rect x="34.62" y="34.61" width="3.84" height="3.85"/><rect x="34.62" y="30.77" width="3.84" height="3.84"/><rect x="34.62" y="26.92" width="3.84" height="3.85"/><rect x="34.62" y="23.08" width="3.84" height="3.84"/><rect x="34.62" y="19.23" width="3.84" height="3.85"/><rect x="34.62" y="15.38" width="3.84" height="3.85"/><rect x="34.62" y="11.54" width="3.84" height="3.84"/><rect x="34.62" y="7.69" width="3.84" height="3.85"/><rect x="34.62" y="3.84" width="3.84" height="3.85"/><rect x="34.62" width="3.84" height="3.84"/><rect x="30.77" y="80.77" width="3.85" height="3.84"/><rect x="30.77" y="76.92" width="3.85" height="3.85"/><rect x="30.77" y="73.08" width="3.85" height="3.84"/><rect x="30.77" y="69.23" width="3.85" height="3.85"/><rect x="30.77" y="65.38" width="3.85" height="3.85"/><rect x="30.77" y="61.54" width="3.85" height="3.84"/><rect x="30.77" y="57.69" width="3.85" height="3.85"/><rect x="30.77" y="53.84" width="3.85" height="3.85"/><rect x="30.77" y="50" width="3.85" height="3.84"/><rect x="30.77" y="34.61" width="3.85" height="3.85"/><rect x="30.77" y="30.77" width="3.85" height="3.84"/><rect x="30.77" y="26.92" width="3.85" height="3.85"/><rect x="30.77" y="23.08" width="3.85" height="3.84"/><rect x="30.77" y="19.23" width="3.85" height="3.85"/><rect x="30.77" y="15.38" width="3.85" height="3.85"/><rect x="30.77" y="11.54" width="3.85" height="3.84"/><rect x="30.77" y="7.69" width="3.85" height="3.85"/><rect x="30.77" y="3.84" width="3.85" height="3.85"/><rect x="26.93" y="80.77" width="3.84" height="3.84"/><rect x="26.93" y="76.92" width="3.84" height="3.85"/><rect x="26.93" y="73.08" width="3.84" height="3.84"/><rect x="26.93" y="57.69" width="3.84" height="3.85"/><rect x="26.93" y="53.84" width="3.84" height="3.85"/><rect x="26.93" y="50" width="3.84" height="3.84"/><rect x="26.93" y="46.15" width="3.84" height="3.85"/><rect x="26.93" y="42.31" width="3.84" height="3.84"/><rect x="26.93" y="38.46" width="3.84" height="3.85"/><rect x="26.93" y="34.61" width="3.84" height="3.85"/><rect x="26.93" y="30.77" width="3.84" height="3.84"/><rect x="26.93" y="26.92" width="3.84" height="3.85"/><rect x="26.93" y="7.69" width="3.84" height="3.85"/><rect x="26.93" y="3.84" width="3.84" height="3.85"/><rect x="23.08" y="80.77" width="3.85" height="3.84"/><rect x="23.08" y="76.92" width="3.85" height="3.85"/><rect x="23.08" y="73.08" width="3.85" height="3.84"/><rect x="23.08" y="50" width="3.85" height="3.84"/><rect x="23.08" y="46.15" width="3.85" height="3.85"/><rect x="23.08" y="42.31" width="3.85" height="3.84"/><rect x="23.08" y="38.46" width="3.85" height="3.85"/><rect x="23.08" y="34.61" width="3.85" height="3.85"/><rect x="23.08" y="15.38" width="3.85" height="3.85"/><rect x="23.08" y="11.54" width="3.85" height="3.84"/><rect x="19.23" y="80.77" width="3.85" height="3.84"/><rect x="19.23" y="76.92" width="3.85" height="3.85"/><rect x="19.23" y="73.08" width="3.85" height="3.84"/><rect x="19.23" y="50" width="3.85" height="3.84"/><rect x="19.23" y="46.15" width="3.85" height="3.85"/><rect x="19.23" y="42.31" width="3.85" height="3.84"/><rect x="19.23" y="38.46" width="3.85" height="3.85"/><rect x="19.23" y="34.61" width="3.85" height="3.85"/><rect x="19.23" y="15.38" width="3.85" height="3.85"/><rect x="19.23" y="11.54" width="3.85" height="3.84"/><rect x="15.39" y="76.92" width="3.84" height="3.85"/><rect x="15.39" y="73.08" width="3.84" height="3.84"/><rect x="15.39" y="69.23" width="3.84" height="3.85"/><rect x="15.39" y="65.38" width="3.84" height="3.85"/><rect x="15.39" y="61.54" width="3.84" height="3.84"/><rect x="15.39" y="50" width="3.84" height="3.84"/><rect x="15.39" y="46.15" width="3.84" height="3.85"/><rect x="15.39" y="42.31" width="3.84" height="3.84"/><rect x="15.39" y="38.46" width="3.84" height="3.85"/><rect x="15.39" y="34.61" width="3.84" height="3.85"/><rect x="15.39" y="30.77" width="3.84" height="3.84"/><rect x="15.39" y="26.92" width="3.84" height="3.85"/><rect x="15.39" y="23.08" width="3.84" height="3.84"/><rect x="15.39" y="19.23" width="3.84" height="3.85"/><rect x="15.39" y="15.38" width="3.84" height="3.85"/><rect x="11.54" y="76.92" width="3.85" height="3.85"/><rect x="11.54" y="73.08" width="3.85" height="3.84"/><rect x="11.54" y="69.23" width="3.85" height="3.85"/><rect x="11.54" y="65.38" width="3.85" height="3.85"/><rect x="11.54" y="61.54" width="3.85" height="3.84"/><rect x="11.54" y="50" width="3.85" height="3.84"/><rect x="11.54" y="46.15" width="3.85" height="3.85"/><rect x="11.54" y="42.31" width="3.85" height="3.84"/><rect x="11.54" y="38.46" width="3.85" height="3.85"/><rect x="11.54" y="34.61" width="3.85" height="3.85"/><rect x="11.54" y="30.77" width="3.85" height="3.84"/><rect x="11.54" y="26.92" width="3.85" height="3.85"/><rect x="11.54" y="23.08" width="3.85" height="3.84"/><rect x="11.54" y="19.23" width="3.85" height="3.85"/><rect x="11.54" y="15.38" width="3.85" height="3.85"/><rect x="7.69" y="69.23" width="3.85" height="3.85"/><rect x="7.69" y="65.38" width="3.85" height="3.85"/><rect x="7.69" y="61.54" width="3.85" height="3.84"/><rect x="7.69" y="57.69" width="3.85" height="3.85"/><rect x="7.69" y="53.84" width="3.85" height="3.85"/><rect x="7.69" y="50" width="3.85" height="3.84"/><rect x="7.69" y="46.15" width="3.85" height="3.85"/><rect x="7.69" y="42.31" width="3.85" height="3.84"/><rect x="7.69" y="38.46" width="3.85" height="3.85"/><rect x="7.69" y="34.61" width="3.85" height="3.85"/><rect x="7.69" y="30.77" width="3.85" height="3.84"/><rect x="7.69" y="26.92" width="3.85" height="3.85"/><rect x="3.85" y="61.54" width="3.84" height="3.84"/><rect x="3.85" y="57.69" width="3.84" height="3.85"/><rect x="3.85" y="53.84" width="3.84" height="3.85"/><rect x="3.85" y="50" width="3.84" height="3.84"/><rect x="3.85" y="46.15" width="3.84" height="3.85"/><rect x="3.85" y="42.31" width="3.84" height="3.84"/><rect x="3.85" y="38.46" width="3.84" height="3.85"/><rect x="3.85" y="34.61" width="3.84" height="3.85"/></svg>