<?xml version="1.0" encoding="UTF-8"?><svg id="a" xmlns="http://www.w3.org/2000/svg" viewBox="0 0 7.62 7.62"><defs><style>.b{fill:none;}</style></defs><polygon class="b" points="4.76 2.86 3.81 2.86 2.86 2.86 2.86 3.81 2.86 4.76 3.81 4.76 4.76 4.76 4.76 3.81 4.76 2.86"/><rect x="6.67" y="1.91" width=".95" height=".95"/><rect x="6.67" y="4.76" width=".95" height=".96"/><rect x="4.76" y="6.67" width=".95" height=".95"/><rect x="1.9" y="6.67" width=".96" height=".95"/><rect x="0" y="4.76" width=".95" height=".96"/><rect x="0" y="1.91" width=".95" height=".95"/><rect x="4.76" width=".95" height=".96"/><rect x="1.9" width=".96" height=".96"/><rect x="1.9" y="2.86" width=".96" height=".95"/><rect x="1.9" y="3.81" width=".96" height=".95"/><rect x="3.81" y="4.76" width=".95" height=".96"/><rect x="2.86" y="4.76" width=".95" height=".96"/><rect x="4.76" y="3.81" width=".95" height=".95"/><rect x="4.76" y="2.86" width=".95" height=".95"/><rect x="3.81" y="1.91" width=".95" height=".95"/><rect x="2.86" y="1.91" width=".95" height=".95"/></svg>