<?xml version="1.0" encoding="UTF-8"?><svg id="a" xmlns="http://www.w3.org/2000/svg" viewBox="0 0 6.66 6.67"><rect x="4.76" y="3.81" width=".95" height=".95"/><rect x="5.71" y="2.86" width=".95" height=".95"/><rect x="4.76" y="2.86" width=".95" height=".95"/><rect x="4.76" y="1.9" width=".95" height=".96"/><rect x="4.76" y=".95" width=".95" height=".95"/><rect x="5.71" y=".95" width=".95" height=".95"/><rect x="4.76" width=".95" height=".95"/><rect x="3.81" y=".95" width=".95" height=".95"/><rect x="2.85" y=".95" width=".96" height=".95"/><rect x="2.85" width=".96" height=".95"/><rect x="1.9" y=".95" width=".95" height=".95"/><rect x="3.81" y="2.86" width=".95" height=".95"/><rect x="3.81" y="1.9" width=".95" height=".96"/><rect x="2.85" y="1.9" width=".96" height=".96"/><rect x="2.85" y="3.81" width=".96" height=".95"/><rect x="2.85" y="2.86" width=".96" height=".95"/><rect x="1.9" y="2.86" width=".95" height=".95"/><rect y="5.71" width=".95" height=".96"/></svg>