<svg id="base_layer" data-name="base layer" xmlns="http://www.w3.org/2000/svg" viewBox="0 0 10.78 6.87"><defs><style>.cls-1{fill:none;}</style></defs><rect class="cls-1" x="8.82" y="3.93" width="0.98" height="0.98"/><polygon class="cls-1" points="7.84 4.91 6.86 4.91 5.88 4.91 4.9 4.91 3.92 4.91 2.94 4.91 1.96 4.91 1.96 5.89 2.94 5.89 3.92 5.89 4.9 5.89 5.88 5.89 6.86 5.89 7.84 5.89 8.82 5.89 8.82 4.91 7.84 4.91"/><polygon class="cls-1" points="1.96 2.95 1.96 3.93 2.94 3.93 3.92 3.93 4.9 3.93 5.88 3.93 6.86 3.93 7.84 3.93 8.82 3.93 8.82 2.95 9.8 2.95 9.8 1.97 8.82 1.97 7.84 1.97 6.86 1.97 6.86 2.95 5.88 2.95 4.9 2.95 3.92 2.95 3.92 1.97 4.9 1.97 5.88 1.97 6.86 1.97 6.86 0.99 5.88 0.99 4.9 0.99 3.92 0.99 2.94 0.99 2.94 1.97 1.96 1.97 0.98 1.97 0.98 2.95 1.96 2.95"/><rect class="cls-1" x="0.98" y="3.93" width="0.98" height="0.98"/><rect x="9.8" y="3.93" width="0.98" height="0.98"/><rect x="9.8" y="2.95" width="0.98" height="0.98"/><rect x="9.8" y="1.97" width="0.98" height="0.98"/><rect x="8.82" y="4.91" width="0.98" height="0.98"/><rect x="8.82" y="2.95" width="0.98" height="0.98"/><rect x="8.82" y="0.99" width="0.98" height="0.98"/><rect x="7.84" y="5.89" width="0.98" height="0.98"/><rect x="7.84" y="3.93" width="0.98" height="0.98"/><rect x="7.84" y="0.99" width="0.98" height="0.98"/><rect x="6.86" y="5.89" width="0.98" height="0.98"/><rect x="6.86" y="3.93" width="0.98" height="0.98"/><rect x="6.86" y="0.99" width="0.98" height="0.98"/><rect x="6.86" width="0.98" height="0.99"/><rect x="5.88" y="5.89" width="0.98" height="0.98"/><rect x="5.88" y="3.93" width="0.98" height="0.98"/><rect x="5.88" y="1.97" width="0.98" height="0.98"/><rect x="5.88" width="0.98" height="0.99"/><rect x="4.9" y="5.89" width="0.98" height="0.98"/><rect x="4.9" y="3.93" width="0.98" height="0.98"/><rect x="4.9" y="1.97" width="0.98" height="0.98"/><rect x="4.9" width="0.98" height="0.99"/><rect x="3.92" y="5.89" width="0.98" height="0.98"/><rect x="3.92" y="3.93" width="0.98" height="0.98"/><rect x="3.92" y="1.97" width="0.98" height="0.98"/><rect x="3.92" width="0.98" height="0.99"/><rect x="2.94" y="5.89" width="0.98" height="0.98"/><rect x="2.94" y="3.93" width="0.98" height="0.98"/><rect x="2.94" width="0.98" height="0.99"/><rect x="1.96" y="5.89" width="0.98" height="0.98"/><rect x="1.96" y="3.93" width="0.98" height="0.98"/><rect x="1.96" y="0.99" width="0.98" height="0.98"/><rect x="0.98" y="4.91" width="0.98" height="0.98"/><rect x="0.98" y="2.95" width="0.98" height="0.98"/><rect x="0.98" y="0.99" width="0.98" height="0.98"/><rect y="3.93" width="0.98" height="0.98"/><rect y="2.95" width="0.98" height="0.98"/><rect y="1.97" width="0.98" height="0.98"/></svg>