<svg id="base_layer" data-name="base layer" xmlns="http://www.w3.org/2000/svg" viewBox="0 0 7.85 7.85"><defs><style>.cls-1{fill:none;}</style></defs><rect class="cls-1" x="3.92" y="3.93" width="0.98" height="0.98"/><rect class="cls-1" x="2.94" y="2.95" width="0.98" height="0.98"/><rect x="6.87" y="4.91" width="0.98" height="0.98"/><rect x="5.88" y="5.89" width="0.99" height="0.98"/><rect x="5.88" y="4.91" width="0.99" height="0.98"/><rect x="4.9" y="6.87" width="0.98" height="0.98"/><rect x="4.9" y="5.89" width="0.98" height="0.98"/><rect x="4.9" y="4.91" width="0.98" height="0.98"/><rect x="4.9" y="3.93" width="0.98" height="0.98"/><rect x="4.9" y="2.95" width="0.98" height="0.98"/><rect x="4.9" y="1.96" width="0.98" height="0.99"/><rect x="3.92" y="4.91" width="0.98" height="0.98"/><rect x="3.92" y="2.95" width="0.98" height="0.98"/><rect x="3.92" y="1.96" width="0.98" height="0.99"/><rect x="2.94" y="4.91" width="0.98" height="0.98"/><rect x="2.94" y="3.93" width="0.98" height="0.98"/><rect x="2.94" y="1.96" width="0.98" height="0.99"/><rect x="1.96" y="4.91" width="0.98" height="0.98"/><rect x="1.96" y="3.93" width="0.98" height="0.98"/><rect x="1.96" y="2.95" width="0.98" height="0.98"/><rect x="1.96" y="1.96" width="0.98" height="0.99"/><rect x="1.96" y="0.98" width="0.98" height="0.98"/><rect x="1.96" width="0.98" height="0.98"/><rect x="0.98" y="1.96" width="0.98" height="0.99"/><rect x="0.98" y="0.98" width="0.98" height="0.98"/><rect y="1.96" width="0.98" height="0.99"/></svg>