<?xml version="1.0" encoding="UTF-8"?><svg id="a" xmlns="http://www.w3.org/2000/svg" viewBox="0 0 11.77 13.72"><defs><style>.b{fill:none;}</style></defs><path class="b" d="M10.79,8.82h-1.96v-1.96h.98v.98h.98V1.96h-.98v.98h-.98v-.98h.98V.98h-1.96v.98h-2.95V.98h-1.96v.98h.98v.98h-.98v-.98h-.98V6.86H.98v.98h1.96v-.98h.98v.98h-.98v.98h-.98v.98h.98v.98h.98v1.96h.98v-1.96h3.93v.98h.98v-.98h.98v-1.96Zm-2.94-2.94H3.92v-.98h-.98v-.98h6.87v.98h-.98v.98h-.98Z"/><rect x="10.79" y="9.8" width=".98" height=".98"/><rect x="10.79" y="8.82" width=".98" height=".98"/><rect x="10.79" y="7.84" width=".98" height=".98"/><rect x="10.79" y="6.86" width=".98" height=".98"/><rect x="10.79" y="5.88" width=".98" height=".98"/><rect x="10.79" y="4.9" width=".98" height=".98"/><rect x="10.79" y="3.92" width=".98" height=".98"/><rect x="10.79" y="2.94" width=".98" height=".98"/><rect x="10.79" y="1.96" width=".98" height=".98"/><rect x="9.81" y="10.78" width=".98" height=".98"/><rect x="9.81" y="7.84" width=".98" height=".98"/><rect x="9.81" y=".98" width=".98" height=".98"/><rect x="8.83" y="11.76" width=".98" height=".98"/><rect x="8.83" y="7.84" width=".98" height=".98"/><rect x="8.83" y="6.86" width=".98" height=".98"/><rect x="8.83" y="3.92" width=".98" height=".98"/><rect x="8.83" y="1.96" width=".98" height=".98"/><rect x="8.83" width=".98" height=".98"/><rect x="7.85" y="10.78" width=".98" height=".98"/><rect x="7.85" y="4.9" width=".98" height=".98"/><rect x="7.85" y="3.92" width=".98" height=".98"/><rect x="7.85" width=".98" height=".98"/><rect x="6.87" y="10.78" width=".98" height=".98"/><rect x="6.87" y="4.9" width=".98" height=".98"/><rect x="6.87" y="3.92" width=".98" height=".98"/><rect x="6.87" y=".98" width=".98" height=".98"/><rect x="6.87" width=".98" height=".98"/><rect x="5.89" y="10.78" width=".98" height=".98"/><rect x="5.89" y="4.9" width=".98" height=".98"/><rect x="5.89" y="3.92" width=".98" height=".98"/><rect x="5.89" y=".98" width=".98" height=".98"/><rect x="5.89" width=".98" height=".98"/><rect x="4.9" y="11.76" width=".99" height=".98"/><rect x="4.9" y="10.78" width=".99" height=".98"/><rect x="4.9" y="4.9" width=".99" height=".98"/><rect x="4.9" y="3.92" width=".99" height=".98"/><rect x="4.9" y=".98" width=".99" height=".98"/><rect x="4.9" width=".99" height=".98"/><rect x="3.92" y="12.74" width=".98" height=".98"/><rect x="3.92" y="4.9" width=".98" height=".98"/><rect x="3.92" y="3.92" width=".98" height=".98"/><rect x="3.92" width=".98" height=".98"/><rect x="2.94" y="11.76" width=".98" height=".98"/><rect x="2.94" y="10.78" width=".98" height=".98"/><rect x="2.94" y="6.86" width=".98" height=".98"/><rect x="2.94" y="3.92" width=".98" height=".98"/><rect x="2.94" y="1.96" width=".98" height=".98"/><rect x="2.94" width=".98" height=".98"/><rect x="1.96" y="9.8" width=".98" height=".98"/><rect x="1.96" y="7.84" width=".98" height=".98"/><rect x="1.96" y=".98" width=".98" height=".98"/><rect x=".98" y="8.82" width=".98" height=".98"/><rect x=".98" y="7.84" width=".98" height=".98"/><rect x=".98" y="5.88" width=".98" height=".98"/><rect x=".98" y="4.9" width=".98" height=".98"/><rect x=".98" y="3.92" width=".98" height=".98"/><rect x=".98" y="2.94" width=".98" height=".98"/><rect x=".98" y="1.96" width=".98" height=".98"/><rect y="6.86" width=".98" height=".98"/></svg>