<svg id="base_layer" data-name="base layer" xmlns="http://www.w3.org/2000/svg" viewBox="0 0 14.71 14.71"><defs><style>.cls-1{fill:none;}</style></defs><polygon class="cls-1" points="12.75 9.81 12.75 8.83 12.75 7.85 11.77 7.85 11.77 6.87 11.77 5.89 11.77 4.91 11.77 3.93 10.79 3.93 10.79 2.94 9.81 2.94 9.81 1.96 8.83 1.96 8.83 2.94 7.84 2.94 7.84 1.96 8.83 1.96 8.83 0.98 7.84 0.98 6.86 0.98 5.88 0.98 4.9 0.98 3.92 0.98 3.92 1.96 2.94 1.96 2.94 2.94 3.92 2.94 4.9 2.94 4.9 1.96 5.88 1.96 5.88 2.94 6.86 2.94 6.86 3.93 6.86 4.91 6.86 5.89 5.88 5.89 5.88 6.87 5.88 7.85 4.9 7.85 3.92 7.85 2.94 7.85 2.94 8.83 2.94 9.81 3.92 9.81 3.92 10.79 4.9 10.79 4.9 11.77 5.88 11.77 6.86 11.77 7.84 11.77 8.83 11.77 9.81 11.77 10.79 11.77 10.79 10.79 11.77 10.79 11.77 9.81 12.75 9.81"/><polygon class="cls-1" points="4.9 6.87 4.9 5.89 3.92 5.89 2.94 5.89 1.96 5.89 0.98 5.89 0.98 6.87 1.96 6.87 2.94 6.87 3.92 6.87 4.9 6.87"/><polygon class="cls-1" points="2.94 4.91 3.92 4.91 4.9 4.91 5.88 4.91 5.88 3.93 4.9 3.93 3.92 3.93 2.94 3.93 1.96 3.93 0.98 3.93 0.98 4.91 1.96 4.91 2.94 4.91"/><rect x="13.73" y="13.73" width="0.98" height="0.98"/><rect x="12.75" y="13.73" width="0.98" height="0.98"/><rect x="11.77" y="13.73" width="0.98" height="0.98"/><rect x="12.75" y="12.75" width="0.98" height="0.98"/><rect x="13.73" y="11.77" width="0.98" height="0.98"/><rect x="13.73" y="10.79" width="0.98" height="0.98"/><rect x="12.75" y="10.79" width="0.98" height="0.98"/><rect x="8.83" y="11.77" width="0.98" height="0.98"/><rect x="7.84" y="11.77" width="0.99" height="0.98"/><rect x="9.81" y="11.77" width="0.98" height="0.98"/><rect x="6.86" y="11.77" width="0.98" height="0.98"/><rect x="5.88" y="11.77" width="0.98" height="0.98"/><rect x="4.9" y="11.77" width="0.98" height="0.98"/><rect x="10.79" y="10.79" width="0.98" height="0.98"/><rect x="11.77" y="9.81" width="0.98" height="0.98"/><rect x="12.75" y="8.83" width="0.98" height="0.98"/><rect x="12.75" y="7.85" width="0.98" height="0.98"/><rect x="11.77" y="6.87" width="0.98" height="0.98"/><rect x="11.77" y="5.89" width="0.98" height="0.98"/><rect x="11.77" y="4.91" width="0.98" height="0.98"/><rect x="11.77" y="1.96" width="0.98" height="0.98"/><rect x="10.79" y="0.98" width="0.98" height="0.98"/><rect x="11.77" y="2.94" width="0.98" height="0.99"/><rect x="10.79" y="1.96" width="0.98" height="0.98"/><rect x="9.81" y="0.98" width="0.98" height="0.98"/><rect x="9.81" width="0.98" height="0.98"/><rect x="11.77" y="3.93" width="0.98" height="0.98"/><rect x="10.79" y="2.94" width="0.98" height="0.99"/><rect x="9.81" y="1.96" width="0.98" height="0.98"/><rect x="8.83" y="0.98" width="0.98" height="0.98"/><rect x="7.84" y="1.96" width="0.99" height="0.98"/><rect x="2.94" y="6.87" width="0.98" height="0.98"/><rect x="4.9" y="6.87" width="0.98" height="0.98"/><rect x="4.9" y="5.89" width="0.98" height="0.98"/><rect x="3.92" y="6.87" width="0.98" height="0.98"/><rect x="2.94" y="4.91" width="0.98" height="0.98"/><rect x="3.92" y="4.91" width="0.98" height="0.98"/><rect x="5.88" y="4.91" width="0.98" height="0.98"/><rect x="5.88" y="3.93" width="0.98" height="0.98"/><rect x="4.9" y="4.91" width="0.98" height="0.98"/><rect x="3.92" y="2.94" width="0.98" height="0.99"/><rect x="5.88" y="2.94" width="0.98" height="0.99"/><rect x="4.9" y="2.94" width="0.98" height="0.99"/><rect x="4.9" y="1.96" width="0.98" height="0.98"/><rect x="8.83" width="0.98" height="0.98"/><rect x="7.84" width="0.99" height="0.98"/><rect x="3.92" width="0.98" height="0.98"/><rect x="6.86" width="0.98" height="0.98"/><rect x="5.88" width="0.98" height="0.98"/><rect x="4.9" width="0.98" height="0.98"/><rect x="2.94" y="0.98" width="0.98" height="0.98"/><rect x="1.96" y="1.96" width="0.98" height="0.98"/><rect x="2.94" y="2.94" width="0.98" height="0.99"/><rect x="0.98" y="2.94" width="0.98" height="0.99"/><rect x="1.96" y="2.94" width="0.98" height="0.99"/><rect y="2.94" width="0.98" height="0.99"/><rect y="3.93" width="0.98" height="0.98"/><rect x="0.98" y="4.91" width="0.98" height="0.98"/><rect y="4.91" width="0.98" height="0.98"/><rect x="1.96" y="4.91" width="0.98" height="0.98"/><rect y="5.89" width="0.98" height="0.98"/><rect y="6.87" width="0.98" height="0.98"/><rect x="0.98" y="6.87" width="0.98" height="0.98"/><rect x="1.96" y="6.87" width="0.98" height="0.98"/><rect x="1.96" y="7.85" width="0.98" height="0.98"/><rect x="1.96" y="8.83" width="0.98" height="0.98"/><rect x="2.94" y="9.81" width="0.98" height="0.98"/><rect x="3.92" y="10.79" width="0.98" height="0.98"/><rect x="1.96" y="11.77" width="0.98" height="0.98"/><rect x="2.94" y="11.77" width="0.98" height="0.98"/><rect x="0.98" y="12.75" width="0.98" height="0.98"/><rect y="13.73" width="0.98" height="0.98"/><rect x="0.98" y="13.73" width="0.98" height="0.98"/><rect x="1.96" y="13.73" width="0.98" height="0.98"/></svg>