<svg id="base_layer" data-name="base layer" xmlns="http://www.w3.org/2000/svg" viewBox="0 0 12.75 10.78"><defs><style>.cls-1{fill:none;}</style></defs><polygon class="cls-1" points="11.77 6.86 11.77 5.88 11.77 4.9 11.77 3.92 11.77 2.94 10.79 2.94 10.79 1.96 9.81 1.96 9.81 2.94 8.83 2.94 8.83 1.96 9.81 1.96 9.81 0.98 8.83 0.98 7.85 0.98 6.87 0.98 5.89 0.98 4.91 0.98 4.91 1.96 5.89 1.96 5.89 2.94 4.91 2.94 4.91 1.96 3.93 1.96 3.93 2.94 2.94 2.94 1.96 2.94 0.98 2.94 0.98 3.92 1.96 3.92 2.94 3.92 3.93 3.92 3.93 4.9 2.94 4.9 1.96 4.9 0.98 4.9 0.98 5.88 1.96 5.88 2.94 5.88 3.93 5.88 3.93 6.86 3.93 7.84 3.93 8.82 4.91 8.82 4.91 9.8 5.89 9.8 6.87 9.8 7.85 9.8 8.83 9.8 9.81 9.8 10.79 9.8 10.79 8.82 11.77 8.82 11.77 7.84 11.77 6.86"/><rect x="10.79" y="8.82" width="0.98" height="0.98"/><rect x="11.77" y="7.84" width="0.98" height="0.98"/><rect x="11.77" y="6.86" width="0.98" height="0.98"/><rect x="11.77" y="2.94" width="0.98" height="0.98"/><rect x="11.77" y="5.88" width="0.98" height="0.98"/><rect x="11.77" y="4.9" width="0.98" height="0.98"/><rect x="11.77" y="3.92" width="0.98" height="0.98"/><rect x="10.79" y="1.96" width="0.98" height="0.98"/><rect x="9.81" y="0.98" width="0.98" height="0.98"/><rect x="8.83" y="1.96" width="0.98" height="0.98"/><rect x="4.91" y="1.96" width="0.98" height="0.98"/><rect x="8.83" width="0.98" height="0.98"/><rect x="7.85" width="0.98" height="0.98"/><rect x="6.87" width="0.98" height="0.98"/><rect x="5.89" width="0.98" height="0.98"/><rect x="4.91" width="0.98" height="0.98"/><rect x="3.93" y="0.98" width="0.98" height="0.98"/><rect x="1.96" y="1.96" width="0.98" height="0.98"/><rect x="0.98" y="1.96" width="0.98" height="0.98"/><rect x="2.94" y="1.96" width="0.99" height="0.98"/><rect y="2.94" width="0.98" height="0.98"/><rect x="1.96" y="3.92" width="0.98" height="0.98"/><rect x="0.98" y="3.92" width="0.98" height="0.98"/><rect x="2.94" y="3.92" width="0.99" height="0.98"/><rect y="4.9" width="0.98" height="0.98"/><rect x="0.98" y="5.88" width="0.98" height="0.98"/><rect x="1.96" y="5.88" width="0.98" height="0.98"/><rect x="2.94" y="5.88" width="0.99" height="0.98"/><rect x="2.94" y="6.86" width="0.99" height="0.98"/><rect x="2.94" y="7.84" width="0.99" height="0.98"/><rect x="3.93" y="8.82" width="0.98" height="0.98"/><rect x="4.91" y="9.8" width="0.98" height="0.98"/><rect x="7.85" y="9.8" width="0.98" height="0.98"/><rect x="6.87" y="9.8" width="0.98" height="0.98"/><rect x="5.89" y="9.8" width="0.98" height="0.98"/><rect x="9.81" y="9.8" width="0.98" height="0.98"/><rect x="8.83" y="9.8" width="0.98" height="0.98"/></svg>