<?xml version="1.0" encoding="UTF-8"?><svg id="a" xmlns="http://www.w3.org/2000/svg" viewBox="0 0 12.74 10.79"><defs><style>.b{fill:none;}</style></defs><polygon class="b" points="11.76 6.86 11.76 5.88 11.76 4.9 11.76 3.92 11.76 2.94 10.78 2.94 10.78 1.96 9.8 1.96 9.8 2.94 8.82 2.94 7.84 2.94 7.84 1.96 8.82 1.96 9.8 1.96 9.8 .98 8.82 .98 7.84 .98 6.86 .98 5.88 .98 4.9 .98 4.9 1.96 5.88 1.96 6.86 1.96 6.86 2.94 5.88 2.94 4.9 2.94 4.9 1.96 3.92 1.96 3.92 2.94 2.94 2.94 1.96 2.94 .98 2.94 .98 3.92 1.96 3.92 2.94 3.92 3.92 3.92 3.92 4.9 2.94 4.9 1.96 4.9 .98 4.9 .98 5.88 1.96 5.88 2.94 5.88 3.92 5.88 3.92 6.86 3.92 7.84 3.92 8.82 4.9 8.82 4.9 9.81 5.88 9.81 6.86 9.81 7.84 9.81 8.82 9.81 9.8 9.81 10.78 9.81 10.78 8.82 11.76 8.82 11.76 7.84 11.76 6.86"/><rect x="8.82" y="1.96" width=".98" height=".98"/><rect x="7.84" y="1.96" width=".98" height=".98"/><rect x="5.88" y="1.96" width=".98" height=".98"/><rect x="4.9" y="1.96" width=".98" height=".98"/><rect x="3.92" y=".98" width=".98" height=".98"/><rect x="2.94" y="3.92" width=".98" height=".98"/><rect x="2.94" y="1.96" width=".98" height=".98"/><rect x="1.96" y="1.96" width=".98" height=".98"/><rect x=".98" y="1.96" width=".98" height=".98"/><rect y="2.94" width=".98" height=".98"/><rect x="1.96" y="3.92" width=".98" height=".98"/><rect x=".98" y="3.92" width=".98" height=".98"/><rect y="4.9" width=".98" height=".98"/><rect x="2.94" y="7.84" width=".98" height=".98"/><rect x="2.94" y="6.86" width=".98" height=".98"/><rect x="2.94" y="5.88" width=".98" height=".98"/><rect x="1.96" y="5.88" width=".98" height=".98"/><rect x=".98" y="5.88" width=".98" height=".98"/><rect x="3.92" y="8.82" width=".98" height=".99"/><rect x="8.82" width=".98" height=".98"/><rect x="7.84" width=".98" height=".98"/><rect x="6.86" width=".98" height=".98"/><rect x="5.88" width=".98" height=".98"/><rect x="4.9" width=".98" height=".98"/><rect x="9.8" y=".98" width=".98" height=".98"/><rect x="10.78" y="1.96" width=".98" height=".98"/><rect x="11.76" y="4.9" width=".98" height=".98"/><rect x="11.76" y="3.92" width=".98" height=".98"/><rect x="11.76" y="2.94" width=".98" height=".98"/><rect x="11.76" y="7.84" width=".98" height=".98"/><rect x="11.76" y="6.86" width=".98" height=".98"/><rect x="11.76" y="5.88" width=".98" height=".98"/><rect x="10.78" y="8.82" width=".98" height=".99"/><rect x="9.8" y="9.81" width=".98" height=".98"/><rect x="8.82" y="9.81" width=".98" height=".98"/><rect x="7.84" y="9.81" width=".98" height=".98"/><rect x="6.86" y="9.81" width=".98" height=".98"/><rect x="4.9" y="9.81" width=".98" height=".98"/><rect x="5.88" y="9.81" width=".98" height=".98"/></svg>