<svg id="base_layer" data-name="base layer" xmlns="http://www.w3.org/2000/svg" viewBox="0 0 9.81 8.82"><defs><style>.cls-1{fill:none;}</style></defs><path class="cls-1" d="M8.83,4.9V2h-1v1h-1V2h1V1H2V2h1v1H2V2H1v4.9H2v1H7.84v-1h1v-2Zm-2.95-1v1h-2v-2h2Z"/><rect x="4.9" y="2.94" width="0.98" height="0.98"/><rect x="3.92" y="2.94" width="0.98" height="0.98"/><rect x="6.86" y="1.96" width="0.98" height="0.98"/><rect x="1.96" y="1.96" width="0.98" height="0.98"/><rect x="7.84" y="6.86" width="0.99" height="0.98"/><rect x="6.86" y="7.84" width="0.98" height="0.98"/><rect x="5.88" y="7.84" width="0.98" height="0.98"/><rect x="4.9" y="7.84" width="0.98" height="0.98"/><rect x="3.92" y="7.84" width="0.98" height="0.98"/><rect x="2.94" y="7.84" width="0.98" height="0.98"/><rect x="1.96" y="7.84" width="0.98" height="0.98"/><rect x="0.98" y="6.86" width="0.98" height="0.98"/><rect x="4.9" y="3.92" width="0.98" height="0.98"/><rect x="3.92" y="3.92" width="0.98" height="0.98"/><rect x="0.98" y="0.98" width="0.98" height="0.98"/><rect y="5.88" width="0.98" height="0.98"/><rect y="4.9" width="0.98" height="0.98"/><rect y="3.92" width="0.98" height="0.98"/><rect y="2.94" width="0.98" height="0.98"/><rect y="1.96" width="0.98" height="0.98"/><rect x="8.83" y="5.88" width="0.98" height="0.98"/><rect x="8.83" y="4.9" width="0.98" height="0.98"/><rect x="8.83" y="3.92" width="0.98" height="0.98"/><rect x="8.83" y="2.94" width="0.98" height="0.98"/><rect x="8.83" y="1.96" width="0.98" height="0.98"/><rect x="7.84" y="0.98" width="0.99" height="0.98"/><rect x="6.86" width="0.98" height="0.98"/><rect x="5.88" width="0.98" height="0.98"/><rect x="4.9" width="0.98" height="0.98"/><rect x="3.92" width="0.98" height="0.98"/><rect x="2.94" width="0.98" height="0.98"/><rect x="1.96" width="0.98" height="0.98"/></svg>