<svg id="base_layer" data-name="base layer" xmlns="http://www.w3.org/2000/svg" viewBox="0 0 10.34 9.65"><defs><style>.cls-1{fill:none;}</style></defs><path class="cls-1" d="M8.6,5.32V2.37h-1v-1H1.74v1h-1v2H3.7v1H.76v2h1v1H7.62v-1h1v-2Zm-3.92-2h-1v-1h1Z"/><rect x="3.7" y="2.37" width="0.98" height="0.98"/><rect x="7.62" y="1.39" width="0.98" height="0.98"/><rect x="2.72" y="0.41" width="0.98" height="0.98"/><rect x="1.74" y="0.41" width="0.98" height="0.98"/><rect x="5.66" y="0.41" width="0.98" height="0.98"/><rect x="4.68" y="0.41" width="0.98" height="0.98"/><rect x="3.7" y="0.41" width="0.98" height="0.98"/><rect x="6.64" y="0.41" width="0.98" height="0.98"/><rect x="0.76" y="1.39" width="0.98" height="0.98"/><rect x="2.72" y="4.33" width="0.98" height="0.99"/><rect x="1.74" y="4.33" width="0.98" height="0.99"/><rect x="0.76" y="4.33" width="0.98" height="0.99"/><rect x="-0.22" y="2.37" width="0.98" height="0.98"/><rect x="-0.22" y="3.35" width="0.98" height="0.98"/><rect x="-0.22" y="5.32" width="0.98" height="0.98"/><rect x="-0.22" y="4.33" width="0.98" height="0.99"/><rect x="-0.22" y="6.3" width="0.98" height="0.98"/><rect x="0.76" y="7.28" width="0.98" height="0.98"/><rect x="2.72" y="8.26" width="0.98" height="0.98"/><rect x="1.74" y="8.26" width="0.98" height="0.98"/><rect x="5.66" y="8.26" width="0.98" height="0.98"/><rect x="4.68" y="8.26" width="0.98" height="0.98"/><rect x="3.7" y="8.26" width="0.98" height="0.98"/><rect x="6.64" y="8.26" width="0.98" height="0.98"/><rect x="7.62" y="7.28" width="0.98" height="0.98"/><rect x="8.6" y="6.3" width="0.98" height="0.98"/><rect x="8.6" y="5.32" width="0.98" height="0.98"/><rect x="8.6" y="4.33" width="0.98" height="0.99"/><rect x="8.6" y="3.35" width="0.98" height="0.98"/><rect x="8.6" y="2.37" width="0.98" height="0.98"/></svg>