<svg id="base_layer" data-name="base layer" xmlns="http://www.w3.org/2000/svg" viewBox="0 0 13.72 13.72"><defs><style>.cls-1{fill:none;}</style></defs><path class="cls-1" d="M6.86,11.76v-1H9.8v2h1v-2h1v-1h1V6.86h-1V2.94h-1V2h-1v1h-1V2h1V1H4.9V2h1v1h-1V2h-1v1H1v1H3.92v1H1v1H3.92V9.8h1v1h1v2h1Zm1-3.92v-1h1v2h1v-2h1v2h-1v1h-1v-1h-1Z"/><rect x="7.84" y="6.86" width="0.98" height="0.98"/><rect x="7.84" y="7.84" width="0.98" height="0.98"/><rect x="8.82" y="8.82" width="0.98" height="0.98"/><rect x="9.8" y="7.84" width="0.98" height="0.98"/><rect x="9.8" y="6.86" width="0.98" height="0.98"/><rect x="11.76" y="3.92" width="0.98" height="0.98"/><rect x="11.76" y="2.94" width="0.98" height="0.98"/><rect x="11.76" y="5.88" width="0.98" height="0.98"/><rect x="11.76" y="4.9" width="0.98" height="0.98"/><rect x="10.78" y="1.96" width="0.98" height="0.98"/><rect x="9.8" y="0.98" width="0.98" height="0.98"/><rect x="8.82" y="1.96" width="0.98" height="0.98"/><rect x="4.9" y="1.96" width="0.98" height="0.98"/><rect x="4.9" width="0.98" height="0.98"/><rect x="7.84" width="0.98" height="0.98"/><rect x="6.86" width="0.98" height="0.98"/><rect x="8.82" width="0.98" height="0.98"/><rect x="5.88" width="0.98" height="0.98"/><rect x="3.92" y="0.98" width="0.98" height="0.98"/><rect x="1.96" y="1.96" width="0.98" height="0.98"/><rect x="0.98" y="1.96" width="0.98" height="0.98"/><rect x="2.94" y="1.96" width="0.98" height="0.98"/><rect y="2.94" width="0.98" height="0.98"/><rect x="1.96" y="3.92" width="0.98" height="0.98"/><rect x="0.98" y="3.92" width="0.98" height="0.98"/><rect x="2.94" y="3.92" width="0.98" height="0.98"/><rect y="4.9" width="0.98" height="0.98"/><rect x="0.98" y="5.88" width="0.98" height="0.98"/><rect x="1.96" y="5.88" width="0.98" height="0.98"/><rect x="2.94" y="5.88" width="0.98" height="0.98"/><rect x="2.94" y="7.84" width="0.98" height="0.98"/><rect x="2.94" y="8.82" width="0.98" height="0.98"/><rect x="2.94" y="6.86" width="0.98" height="0.98"/><rect x="3.92" y="9.8" width="0.98" height="0.98"/><rect x="12.74" y="8.82" width="0.98" height="0.98"/><rect x="12.74" y="7.84" width="0.98" height="0.98"/><rect x="12.74" y="6.86" width="0.98" height="0.98"/><rect x="11.76" y="9.8" width="0.98" height="0.98"/><rect x="10.78" y="11.76" width="0.98" height="0.98"/><rect x="10.78" y="10.78" width="0.98" height="0.98"/><rect x="9.8" y="12.74" width="0.98" height="0.98"/><rect x="7.84" y="10.78" width="0.98" height="0.98"/><rect x="8.82" y="10.78" width="0.98" height="0.98"/><rect x="8.82" y="11.76" width="0.98" height="0.98"/><rect x="6.86" y="11.76" width="0.98" height="0.98"/><rect x="6.86" y="10.78" width="0.98" height="0.98"/><rect x="4.9" y="10.78" width="0.98" height="0.98"/><rect x="4.9" y="11.76" width="0.98" height="0.98"/><rect x="5.88" y="12.74" width="0.98" height="0.98"/></svg>