<svg id="base_layer" data-name="base layer" xmlns="http://www.w3.org/2000/svg" viewBox="0 0 5.88 5.93"><defs><style>.cls-1{fill:none;}</style></defs><rect class="cls-1" x="1.96" y="1.03" width="0.98" height="0.98"/><rect x="1.96" y="2.99" width="0.98" height="0.98"/><rect x="0.98" y="1.03" width="0.98" height="0.98"/><rect x="3.92" y="3.97" width="0.98" height="0.98"/><rect x="3.92" y="2.99" width="0.98" height="0.98"/><rect x="3.92" y="2.01" width="0.98" height="0.98"/><rect x="3.92" y="1.03" width="0.98" height="0.98"/><rect x="0.98" y="3.97" width="0.98" height="0.98"/><rect x="2.94" y="3.97" width="0.98" height="0.98"/><rect x="2.94" y="2.99" width="0.98" height="0.98"/><rect x="2.94" y="2.01" width="0.98" height="0.98"/><rect x="2.94" y="1.03" width="0.98" height="0.98"/><rect x="1.96" y="3.97" width="0.98" height="0.98"/><rect x="0.98" y="2.01" width="0.98" height="0.98"/><rect x="1.96" y="2.01" width="0.98" height="0.98"/><rect x="4.9" y="1.03" width="0.98" height="0.98"/><rect x="4.9" y="3.97" width="0.98" height="0.98"/><rect x="4.9" y="2.99" width="0.98" height="0.98"/><rect x="4.9" y="2.01" width="0.98" height="0.98"/><rect x="0.98" y="0.05" width="0.98" height="0.98"/><rect x="3.92" y="0.05" width="0.98" height="0.98"/><rect x="2.94" y="0.05" width="0.98" height="0.98"/><rect x="1.96" y="0.05" width="0.98" height="0.98"/><rect y="3.97" width="0.98" height="0.98"/><rect y="2.01" width="0.98" height="0.98"/><rect y="1.03" width="0.98" height="0.98"/><rect x="3.92" y="4.95" width="0.98" height="0.98"/><rect x="2.94" y="4.95" width="0.98" height="0.98"/><rect x="1.96" y="4.95" width="0.98" height="0.98"/><rect x="0.98" y="4.95" width="0.98" height="0.98"/></svg>