<svg id="base_layer" data-name="base layer" xmlns="http://www.w3.org/2000/svg" viewBox="0 0 14.71 14.71"><defs><style>.cls-1{fill:none;}</style></defs><polygon class="cls-1" points="5.88 6.86 5.88 5.88 4.9 5.88 4.9 4.9 5.88 4.9 5.88 3.92 4.9 3.92 3.92 3.92 3.92 4.9 3.92 5.88 3.92 6.86 4.9 6.86 5.88 6.86"/><polygon class="cls-1" points="4.9 11.77 5.88 11.77 6.86 11.77 7.84 11.77 8.82 11.77 9.8 11.77 10.78 11.77 10.78 10.79 11.77 10.79 11.77 9.81 12.75 9.81 12.75 8.83 12.75 7.85 11.77 7.85 11.77 6.86 11.77 5.88 11.77 4.9 10.78 4.9 10.78 5.88 10.78 6.86 9.8 6.86 9.8 7.85 8.82 7.85 7.84 7.85 6.86 7.85 5.88 7.85 4.9 7.85 3.92 7.85 3.92 6.86 2.94 6.86 2.94 5.88 2.94 4.9 1.96 4.9 1.96 5.88 1.96 6.86 1.96 7.85 2.94 7.85 2.94 8.83 2.94 9.81 3.92 9.81 3.92 10.79 4.9 10.79 4.9 11.77"/><polygon class="cls-1" points="8.82 5.88 8.82 4.9 9.8 4.9 9.8 3.92 8.82 3.92 7.84 3.92 7.84 4.9 7.84 5.88 7.84 6.86 8.82 6.86 9.8 6.86 9.8 5.88 8.82 5.88"/><rect x="10.78" y="3.92" width="0.99" height="0.98"/><rect x="8.82" y="4.9" width="0.98" height="0.98"/><rect x="9.8" y="3.92" width="0.98" height="0.98"/><rect x="9.8" y="5.88" width="0.98" height="0.98"/><rect x="9.8" y="4.9" width="0.98" height="0.98"/><rect x="8.82" y="6.86" width="0.98" height="0.99"/><rect x="8.82" y="2.94" width="0.98" height="0.98"/><rect x="7.84" y="2.94" width="0.98" height="0.98"/><rect x="5.88" y="2.94" width="0.98" height="0.98"/><rect x="6.86" y="5.88" width="0.98" height="0.98"/><rect x="6.86" y="4.9" width="0.98" height="0.98"/><rect x="6.86" y="3.92" width="0.98" height="0.98"/><rect x="6.86" y="2.94" width="0.98" height="0.98"/><rect x="6.86" y="6.86" width="0.98" height="0.99"/><rect x="5.88" y="6.86" width="0.98" height="0.99"/><rect x="7.84" y="6.86" width="0.98" height="0.99"/><rect x="1.96" y="2.94" width="0.98" height="0.98"/><rect x="3.92" y="1.96" width="0.98" height="0.98"/><rect x="2.94" y="2.94" width="0.98" height="0.98"/><rect x="2.94" y="1.96" width="0.98" height="0.98"/><rect x="6.86" y="1.96" width="0.98" height="0.98"/><rect x="4.9" y="1.96" width="0.98" height="0.98"/><rect x="5.88" y="1.96" width="0.98" height="0.98"/><rect x="7.84" y="1.96" width="0.98" height="0.98"/><rect x="8.82" y="1.96" width="0.98" height="0.98"/><rect x="9.8" y="2.94" width="0.98" height="0.98"/><rect x="9.8" y="1.96" width="0.98" height="0.98"/><rect x="10.78" y="2.94" width="0.99" height="0.98"/><rect x="4.9" y="4.9" width="0.98" height="0.98"/><rect x="3.92" y="2.94" width="0.98" height="0.98"/><rect x="4.9" y="2.94" width="0.98" height="0.98"/><rect x="5.88" y="3.92" width="0.98" height="0.98"/><rect x="5.88" y="4.9" width="0.98" height="0.98"/><rect x="5.88" y="5.88" width="0.98" height="0.98"/><rect x="4.9" y="6.86" width="0.98" height="0.99"/><rect x="3.92" y="6.86" width="0.98" height="0.99"/><rect x="1.96" y="3.92" width="0.98" height="0.98"/><rect x="2.94" y="4.9" width="0.98" height="0.98"/><rect x="2.94" y="3.92" width="0.98" height="0.98"/><rect x="2.94" y="5.88" width="0.98" height="0.98"/><rect x="0.98" y="3.92" width="0.98" height="0.98"/><rect x="0.98" y="5.88" width="0.98" height="0.98"/><rect x="0.98" y="6.86" width="0.98" height="0.99"/><rect x="0.98" y="2.94" width="0.98" height="0.98"/><rect x="0.98" y="4.9" width="0.98" height="0.98"/><rect x="1.96" y="1.96" width="0.98" height="0.98"/><rect x="3.92" width="0.98" height="0.98"/><rect x="3.92" y="0.98" width="0.98" height="0.98"/><rect x="2.94" y="0.98" width="0.98" height="0.98"/><rect x="2.94" width="0.98" height="0.98"/><rect x="4.9" y="0.98" width="0.98" height="0.98"/><rect x="5.88" y="0.98" width="0.98" height="0.98"/><rect x="6.86" y="0.98" width="0.98" height="0.98"/><rect x="7.84" y="0.98" width="0.98" height="0.98"/><rect x="8.82" y="0.98" width="0.98" height="0.98"/><rect x="8.82" width="0.98" height="0.98"/><rect x="9.8" y="0.98" width="0.98" height="0.98"/><rect x="9.8" width="0.98" height="0.98"/><rect x="10.78" y="1.96" width="0.99" height="0.98"/><rect x="11.77" y="3.92" width="0.98" height="0.98"/><rect x="11.77" y="2.94" width="0.98" height="0.98"/><rect x="11.77" y="6.86" width="0.98" height="0.99"/><rect x="11.77" y="5.88" width="0.98" height="0.98"/><rect x="11.77" y="4.9" width="0.98" height="0.98"/><rect x="12.75" y="7.85" width="0.98" height="0.98"/><rect x="12.75" y="8.83" width="0.98" height="0.98"/><rect x="11.77" y="13.73" width="0.98" height="0.98"/><rect x="12.75" y="13.73" width="0.98" height="0.98"/><rect x="12.75" y="12.75" width="0.98" height="0.98"/><rect x="13.73" y="13.73" width="0.98" height="0.98"/><rect x="12.75" y="10.79" width="0.98" height="0.98"/><rect x="13.73" y="10.79" width="0.98" height="0.98"/><rect x="13.73" y="11.77" width="0.98" height="0.98"/><rect x="11.77" y="9.81" width="0.98" height="0.98"/><rect x="10.78" y="10.79" width="0.99" height="0.98"/><rect x="9.8" y="11.77" width="0.98" height="0.98"/><rect x="6.86" y="11.77" width="0.98" height="0.98"/><rect x="4.9" y="11.77" width="0.98" height="0.98"/><rect x="5.88" y="11.77" width="0.98" height="0.98"/><rect x="7.84" y="11.77" width="0.98" height="0.98"/><rect x="8.82" y="11.77" width="0.98" height="0.98"/><rect x="1.96" y="7.85" width="0.98" height="0.98"/><rect x="1.96" y="8.83" width="0.98" height="0.98"/><rect x="2.94" y="9.81" width="0.98" height="0.98"/><rect x="3.92" y="10.79" width="0.98" height="0.98"/><rect x="1.96" y="11.77" width="0.98" height="0.98"/><rect x="2.94" y="11.77" width="0.98" height="0.98"/><rect x="0.98" y="12.75" width="0.98" height="0.98"/><rect y="13.73" width="0.98" height="0.98"/><rect x="1.96" y="13.73" width="0.98" height="0.98"/><rect x="0.98" y="13.73" width="0.98" height="0.98"/></svg>