<svg id="base_layer" data-name="base layer" xmlns="http://www.w3.org/2000/svg" viewBox="0 0 7.85 2.94"><defs><style>.cls-1{fill:none;}</style></defs><rect class="cls-1" x="4.9" y="0.98" width="0.99" height="0.98"/><rect class="cls-1" x="1.96" y="0.98" width="0.98" height="0.98"/><rect x="4.9" width="0.99" height="0.98"/><rect x="3.92" width="0.98" height="0.98"/><rect x="1.96" width="0.98" height="0.98"/><rect x="2.94" width="0.98" height="0.98"/><rect x="5.89" y="0.98" width="0.98" height="0.98"/><rect x="6.87" y="1.96" width="0.98" height="0.98"/><rect x="5.89" y="1.96" width="0.98" height="0.98"/><rect x="4.9" y="1.96" width="0.99" height="0.98"/><rect x="3.92" y="0.98" width="0.98" height="0.98"/><rect x="3.92" y="1.96" width="0.98" height="0.98"/><rect x="2.94" y="0.98" width="0.98" height="0.98"/><rect x="2.94" y="1.96" width="0.98" height="0.98"/><rect x="0.98" y="0.98" width="0.98" height="0.98"/><rect x="1.96" y="1.96" width="0.98" height="0.98"/><rect x="0.98" y="1.96" width="0.98" height="0.98"/><rect y="1.96" width="0.98" height="0.98"/></svg>