<?xml version="1.0" encoding="UTF-8"?><svg id="a" xmlns="http://www.w3.org/2000/svg" viewBox="0 0 13.33 13.33"><defs><style>.b{fill:none;}</style></defs><path class="b" d="M12.38,7.61v-.95h-.95V2.85h-.95v-.95h-.95V.95h-3.81v.95h-.96V.95H.95v.95H3.81v2.86H.95v.95H3.81v3.81h.95v.95h.96v1.91h.95v-1.91h2.86v1.91h.95v-1.91h.95v-.95h.95v-1.91ZM7.62,1.9h.95v.95h-.95v-.95Zm2.86,5.71v.96h-.95v.95h-.96v-.95h-.95v-1.91h.95v1.91h.96v-1.91h.95v.95Z"/><rect x="7.62" y="1.9" width=".95" height=".95"/><rect x="4.76" y=".95" width=".96" height=".95"/><rect x=".95" y="1.9" width=".96" height=".95"/><rect x="1.91" y="1.9" width=".95" height=".95"/><rect y=".95" width=".95" height=".95"/><rect x=".95" width=".96" height=".95"/><rect x="2.86" width=".95" height=".95"/><rect x="1.91" width=".95" height=".95"/><rect x="3.81" width=".95" height=".95"/><rect x="4.76" width=".96" height=".95"/><rect x="5.72" width=".95" height=".95"/><rect x="6.67" width=".95" height=".95"/><rect x="7.62" width=".95" height=".95"/><rect x="8.57" width=".96" height=".95"/><rect x="9.53" y=".95" width=".95" height=".95"/><rect x="10.48" y="1.9" width=".95" height=".95"/><rect x="11.43" y="2.85" width=".95" height=".95"/><rect x="11.43" y="3.8" width=".95" height=".96"/><rect x="7.62" y="6.66" width=".95" height=".95"/><rect x="7.62" y="7.61" width=".95" height=".96"/><rect x="8.57" y="8.57" width=".96" height=".95"/><rect x="9.53" y="7.61" width=".95" height=".96"/><rect x="9.53" y="6.66" width=".95" height=".95"/><rect x="2.86" y="1.9" width=".95" height=".95"/><rect x="2.86" y="2.85" width=".95" height=".95"/><rect x="2.86" y="3.8" width=".95" height=".96"/><rect x="1.91" y="3.8" width=".95" height=".96"/><rect x=".95" y="3.8" width=".96" height=".96"/><rect y="4.76" width=".95" height=".95"/><rect x=".95" y="5.71" width=".96" height=".95"/><rect x="1.91" y="5.71" width=".95" height=".95"/><rect x="2.86" y="5.71" width=".95" height=".95"/><rect x="2.86" y="6.66" width=".95" height=".95"/><rect x="2.86" y="7.61" width=".95" height=".96"/><rect x="2.86" y="8.57" width=".95" height=".95"/><rect x="3.81" y="9.52" width=".95" height=".95"/><rect x="4.76" y="10.47" width=".96" height=".95"/><rect x="4.76" y="11.42" width=".96" height=".96"/><rect x="11.43" y="4.76" width=".95" height=".95"/><rect x="11.43" y="5.71" width=".95" height=".95"/><rect x="12.38" y="6.66" width=".95" height=".95"/><rect x="12.38" y="7.61" width=".95" height=".96"/><rect x="12.38" y="8.57" width=".95" height=".95"/><rect x="11.43" y="9.52" width=".95" height=".95"/><rect x="10.48" y="11.42" width=".95" height=".96"/><rect x="10.48" y="10.47" width=".95" height=".95"/><rect x="9.53" y="12.38" width=".95" height=".95"/><rect x="8.57" y="11.42" width=".96" height=".96"/><rect x="8.57" y="10.47" width=".96" height=".95"/><rect x="7.62" y="10.47" width=".95" height=".95"/><rect x="6.67" y="10.47" width=".95" height=".95"/><rect x="6.67" y="11.42" width=".95" height=".96"/><rect x="5.72" y="12.38" width=".95" height=".95"/></svg>