<?xml version="1.0" encoding="UTF-8"?><svg id="a" xmlns="http://www.w3.org/2000/svg" viewBox="0 0 13.34 13.33"><defs><style>.b{fill:#231f20;}</style></defs><polygon class="b" points="9.53 6.66 8.57 6.66 8.57 7.61 8.57 8.57 9.53 8.57 9.53 7.61 9.53 6.66"/><rect class="b" x="9.53" y="8.57" width=".95" height=".95"/><polygon class="b" points="10.48 7.61 10.48 8.57 11.43 8.57 11.43 7.61 11.43 6.66 10.48 6.66 10.48 7.61"/><polygon class="b" points="7.62 1.9 7.62 2.85 8.57 2.85 9.53 2.85 9.53 1.9 8.57 1.9 7.62 1.9"/><polygon class="b" points="5.72 2.85 6.67 2.85 6.67 1.9 5.72 1.9 4.76 1.9 4.76 2.85 5.72 2.85"/><rect class="b" x="3.81" y=".95" width=".95" height=".95"/><polygon class="b" points="2.86 2.85 3.81 2.85 3.81 1.9 2.86 1.9 1.91 1.9 .95 1.9 .95 2.85 1.91 2.85 2.86 2.85"/><rect class="b" y="2.85" width=".95" height=".96"/><polygon class="b" points="12.38 6.66 12.38 7.61 12.38 8.57 12.38 9.52 13.34 9.52 13.34 8.57 13.34 7.61 13.34 6.66 12.38 6.66"/><rect class="b" x="11.43" y="9.52" width=".95" height=".95"/><polygon class="b" points="11.43 4.76 11.43 5.71 11.43 6.66 12.38 6.66 12.38 5.71 12.38 4.76 12.38 3.81 12.38 2.85 11.43 2.85 11.43 3.81 11.43 4.76"/><polygon class="b" points="10.48 11.42 10.48 12.38 11.43 12.38 11.43 11.42 11.43 10.47 10.48 10.47 10.48 11.42"/><rect class="b" x="10.48" y="1.9" width=".95" height=".95"/><rect class="b" x="9.53" y="12.38" width=".95" height=".95"/><rect class="b" x="9.53" y=".95" width=".95" height=".95"/><polygon class="b" points="9.53 10.47 8.57 10.47 7.62 10.47 6.67 10.47 6.67 11.42 6.67 12.38 7.62 12.38 7.62 11.42 8.57 11.42 8.57 12.38 9.53 12.38 9.53 11.42 9.53 10.47"/><rect class="b" x="5.72" y="12.38" width=".95" height=".95"/><polygon class="b" points="6.67 .95 7.62 .95 8.57 .95 9.53 .95 9.53 0 8.57 0 7.62 0 6.67 0 5.72 0 4.76 0 4.76 .95 5.72 .95 6.67 .95"/><polygon class="b" points="5.72 10.47 4.76 10.47 4.76 11.42 4.76 12.38 5.72 12.38 5.72 11.42 5.72 10.47"/><rect class="b" x="3.81" y="9.52" width=".95" height=".95"/><polygon class="b" points="3.81 7.61 3.81 6.66 3.81 5.71 2.86 5.71 1.91 5.71 .95 5.71 .95 6.66 1.91 6.66 2.86 6.66 2.86 7.61 2.86 8.57 2.86 9.52 3.81 9.52 3.81 8.57 3.81 7.61"/><polygon class="b" points="2.86 4.76 3.81 4.76 3.81 3.81 2.86 3.81 1.91 3.81 .95 3.81 .95 4.76 1.91 4.76 2.86 4.76"/><rect class="b" y="4.76" width=".95" height=".95"/></svg>