<?xml version="1.0" encoding="UTF-8"?><svg id="a" xmlns="http://www.w3.org/2000/svg" viewBox="0 0 13.72 13.72"><defs><style>.b{fill:none;}</style></defs><path class="b" d="M12.74,7.84v-.98h-.98V2.94h-.98v-.98h-.98v.98h-.98v-.98h.98V.98h-2.94v.98h-.98V.98h-.98v.98h-.98v.98H1.96v-.98H.98v1.96H3.92v.98H.98v1.96h.98v-.98h1.96v3.92h.98v.98h.98v1.96h.98v-1.96h2.94v1.96h.98v-1.96h.98v-.98h.98v-1.96Zm-1.96,0h-.98v.98h-.98v-.98h-.98v-.98h.98v.98h.98v-.98h.98v.98Z"/><rect x="8.82" y="1.96" width=".98" height=".98"/><rect x="5.88" y=".98" width=".98" height=".98"/><rect x="9.8" y=".98" width=".98" height=".98"/><rect x="10.78" y="1.96" width=".98" height=".98"/><rect x="8.82" width=".98" height=".98"/><rect x="7.84" width=".98" height=".98"/><rect x="6.86" width=".98" height=".98"/><rect x="5.88" width=".98" height=".98"/><rect x="4.9" width=".98" height=".98"/><rect x="3.92" y=".98" width=".98" height=".98"/><rect x="2.94" y="1.96" width=".98" height=".98"/><rect x="1.96" y="1.96" width=".98" height=".98"/><rect x=".98" y=".98" width=".98" height=".98"/><rect x="0" y="2.94" width=".98" height=".98"/><rect x="0" y="1.96" width=".98" height=".98"/><rect x="2.94" y="3.92" width=".98" height=".98"/><rect x="1.96" y="3.92" width=".98" height=".98"/><rect x=".98" y="3.92" width=".98" height=".98"/><rect x="0" y="4.9" width=".98" height=".98"/><rect x="0" y="5.88" width=".98" height=".98"/><rect x=".98" y="6.86" width=".98" height=".98"/><rect x="1.96" y="5.88" width=".98" height=".98"/><rect x="2.94" y="5.88" width=".98" height=".98"/><rect x="2.94" y="6.86" width=".98" height=".98"/><rect x="2.94" y="7.84" width=".98" height=".98"/><rect x="2.94" y="8.82" width=".98" height=".98"/><rect x="3.92" y="9.8" width=".98" height=".98"/><rect x="9.8" y="6.86" width=".98" height=".98"/><rect x="7.84" y="6.86" width=".98" height=".98"/><rect x="8.82" y="7.84" width=".98" height=".98"/><rect x="11.76" y="2.94" width=".98" height=".98"/><rect x="11.76" y="3.92" width=".98" height=".98"/><rect x="11.76" y="4.9" width=".98" height=".98"/><rect x="11.76" y="5.88" width=".98" height=".98"/><rect x="12.74" y="8.82" width=".98" height=".98"/><rect x="12.74" y="7.84" width=".98" height=".98"/><rect x="12.74" y="6.86" width=".98" height=".98"/><rect x="11.76" y="9.8" width=".98" height=".98"/><rect x="10.78" y="11.76" width=".98" height=".98"/><rect x="10.78" y="10.78" width=".98" height=".98"/><rect x="9.8" y="12.74" width=".98" height=".98"/><rect x="8.82" y="11.76" width=".98" height=".98"/><rect x="8.82" y="10.78" width=".98" height=".98"/><rect x="7.84" y="10.78" width=".98" height=".98"/><rect x="6.86" y="11.76" width=".98" height=".98"/><rect x="6.86" y="10.78" width=".98" height=".98"/><rect x="4.9" y="11.76" width=".98" height=".98"/><rect x="4.9" y="10.78" width=".98" height=".98"/><rect x="5.88" y="12.74" width=".98" height=".98"/></svg>