<svg id="base_layer" data-name="base layer" xmlns="http://www.w3.org/2000/svg" viewBox="0 0 11.76 13.73"><defs><style>.cls-1{fill:none;}</style></defs><path class="cls-1" d="M10.78,8.83h-2v-2h1v1h1V2h-1V3h-1V2h1V1h-2V2H4.9V1h-2V2h1V3h-1V2H2V6.87H1v1h2v-1h1v1h-1v1H2v1h1v1h1v2h1v-2H8.82v1h1v-1h1v-2ZM7.84,5.89H3.92v-1h-1v-1h1v1h4.9v-1h1v1h-1v1Z"/><rect x="8.82" y="11.77" width="0.98" height="0.98"/><rect x="9.8" y="10.79" width="0.98" height="0.98"/><rect x="10.78" y="9.81" width="0.98" height="0.98"/><rect x="10.78" y="8.83" width="0.98" height="0.98"/><rect x="10.78" y="7.85" width="0.98" height="0.98"/><rect x="9.8" y="7.85" width="0.98" height="0.98"/><rect x="8.82" y="7.85" width="0.98" height="0.98"/><rect x="8.82" y="6.87" width="0.98" height="0.98"/><rect x="8.82" y="1.96" width="0.98" height="0.99"/><rect x="8.82" y="3.93" width="0.98" height="0.98"/><rect x="7.84" y="4.91" width="0.98" height="0.98"/><rect x="6.86" y="4.91" width="0.98" height="0.98"/><rect x="10.78" y="4.91" width="0.98" height="0.98"/><rect x="10.78" y="3.93" width="0.98" height="0.98"/><rect x="10.78" y="6.87" width="0.98" height="0.98"/><rect x="10.78" y="1.96" width="0.98" height="0.99"/><rect x="10.78" y="5.89" width="0.98" height="0.98"/><rect x="10.78" y="2.95" width="0.98" height="0.98"/><rect x="9.8" y="0.98" width="0.98" height="0.98"/><rect x="5.88" width="0.98" height="0.98"/><rect x="8.82" width="0.98" height="0.98"/><rect x="7.84" width="0.98" height="0.98"/><rect x="6.86" width="0.98" height="0.98"/><rect x="6.86" y="0.98" width="0.98" height="0.98"/><rect x="5.88" y="0.98" width="0.98" height="0.98"/><rect x="4.9" y="0.98" width="0.98" height="0.98"/><rect x="5.88" y="4.91" width="0.98" height="0.98"/><rect x="4.9" y="4.91" width="0.98" height="0.98"/><rect x="3.92" y="4.91" width="0.98" height="0.98"/><rect x="2.94" y="3.93" width="0.98" height="0.98"/><rect x="2.94" y="1.96" width="0.98" height="0.99"/><rect x="4.9" width="0.98" height="0.98"/><rect x="3.92" width="0.98" height="0.98"/><rect x="2.94" width="0.98" height="0.98"/><rect x="1.96" y="0.98" width="0.98" height="0.98"/><rect x="0.98" y="1.96" width="0.98" height="0.99"/><rect x="0.98" y="5.89" width="0.98" height="0.98"/><rect x="0.98" y="4.91" width="0.98" height="0.98"/><rect x="0.98" y="3.93" width="0.98" height="0.98"/><rect x="0.98" y="2.95" width="0.98" height="0.98"/><rect y="6.87" width="0.98" height="0.98"/><rect x="2.94" y="6.87" width="0.98" height="0.98"/><rect x="1.96" y="7.85" width="0.98" height="0.98"/><rect x="0.98" y="8.83" width="0.98" height="0.98"/><rect x="0.98" y="7.85" width="0.98" height="0.98"/><rect x="1.96" y="9.81" width="0.98" height="0.98"/><rect x="7.84" y="10.79" width="0.98" height="0.98"/><rect x="6.86" y="10.79" width="0.98" height="0.98"/><rect x="5.88" y="10.79" width="0.98" height="0.98"/><rect x="4.9" y="11.77" width="0.98" height="0.98"/><rect x="4.9" y="10.79" width="0.98" height="0.98"/><rect x="2.94" y="11.77" width="0.98" height="0.98"/><rect x="2.94" y="10.79" width="0.98" height="0.98"/><rect x="3.92" y="12.75" width="0.98" height="0.98"/></svg>