<?xml version="1.0" encoding="UTF-8"?><svg id="a" xmlns="http://www.w3.org/2000/svg" viewBox="0 0 17.14 17.14"><defs><style>.b{fill:none;}.c{fill:#00aeef;}.d{fill:#da1c5c;}</style></defs><rect class="b" x="5.71" y="2.86" width=".95" height=".95"/><rect class="b" x="10.47" y="2.86" width=".96" height=".95"/><rect class="b" x="5.71" y=".95" width=".95" height=".95"/><rect class="b" x="10.47" y=".95" width=".96" height=".95"/><rect x="16.19" y="9.52" width=".95" height=".95"/><rect x="15.23" y="9.52" width=".96" height=".95"/><rect x="14.28" y="16.19" width=".95" height=".95"/><rect x="14.28" y="8.57" width=".95" height=".95"/><rect x="13.33" y="16.19" width=".95" height=".95"/><rect x="13.33" y="15.24" width=".95" height=".95"/><rect x="13.33" y="9.52" width=".95" height=".95"/><rect x="13.33" y="8.57" width=".95" height=".95"/><rect x="13.33" y="7.62" width=".95" height=".95"/><rect x="13.33" y="6.67" width=".95" height=".95"/><rect x="12.38" y="16.19" width=".95" height=".95"/><rect x="12.38" y="14.28" width=".95" height=".96"/><rect x="12.38" y="13.33" width=".95" height=".95"/><rect x="12.38" y="11.43" width=".95" height=".95"/><rect x="12.38" y="10.47" width=".95" height=".96"/><rect class="d" x="12.38" y="9.52" width=".95" height=".95"/><rect x="12.38" y="8.57" width=".95" height=".95"/><rect class="d" x="12.38" y="7.62" width=".95" height=".95"/><rect class="d" x="12.38" y="6.67" width=".95" height=".95"/><rect x="12.38" y="5.71" width=".95" height=".96"/><rect x="11.43" y="12.38" width=".95" height=".95"/><rect class="d" x="11.43" y="11.43" width=".95" height=".95"/><rect class="d" x="11.43" y="10.47" width=".95" height=".96"/><rect class="d" x="11.43" y="9.52" width=".95" height=".95"/><rect class="d" x="11.43" y="8.57" width=".95" height=".95"/><rect class="d" x="11.43" y="7.62" width=".95" height=".95"/><rect class="d" x="11.43" y="6.67" width=".95" height=".95"/><rect class="d" x="11.43" y="5.71" width=".95" height=".96"/><rect x="11.43" y="4.76" width=".95" height=".95"/><rect x="11.43" y="2.86" width=".95" height=".95"/><rect x="11.43" y="1.9" width=".95" height=".96"/><rect x="11.43" y=".95" width=".95" height=".95"/><rect x="10.47" y="13.33" width=".96" height=".95"/><rect class="d" x="10.47" y="12.38" width=".96" height=".95"/><rect class="d" x="10.47" y="11.43" width=".96" height=".95"/><rect class="d" x="10.47" y="10.47" width=".96" height=".96"/><rect class="d" x="10.47" y="9.52" width=".96" height=".95"/><rect class="d" x="10.47" y="8.57" width=".96" height=".95"/><rect class="d" x="10.47" y="7.62" width=".96" height=".95"/><rect x="10.47" y="6.67" width=".96" height=".95"/><rect x="10.47" y="5.71" width=".96" height=".96"/><rect x="10.47" y="4.76" width=".96" height=".95"/><rect x="10.47" y="3.81" width=".96" height=".95"/><rect x="10.47" y="1.9" width=".96" height=".96"/><rect x="10.47" width=".96" height=".95"/><rect x="9.52" y="13.33" width=".95" height=".95"/><rect class="d" x="9.52" y="12.38" width=".95" height=".95"/><rect class="d" x="9.52" y="11.43" width=".95" height=".95"/><rect class="d" x="9.52" y="10.47" width=".95" height=".96"/><rect class="d" x="9.52" y="9.52" width=".95" height=".95"/><rect class="d" x="9.52" y="8.57" width=".95" height=".95"/><rect class="d" x="9.52" y="7.62" width=".95" height=".95"/><rect class="d" x="9.52" y="6.67" width=".95" height=".95"/><rect class="d" x="9.52" y="5.71" width=".95" height=".96"/><rect x="9.52" y="4.76" width=".95" height=".95"/><rect x="9.52" y="2.86" width=".95" height=".95"/><rect x="9.52" y="1.9" width=".95" height=".96"/><rect x="9.52" y=".95" width=".95" height=".95"/><rect x="8.57" y="13.33" width=".95" height=".95"/><rect class="d" x="8.57" y="12.38" width=".95" height=".95"/><rect class="c" x="8.57" y="11.43" width=".95" height=".95"/><rect x="8.57" y="10.47" width=".95" height=".96"/><rect class="c" x="8.57" y="9.52" width=".95" height=".95"/><rect class="d" x="8.57" y="8.57" width=".95" height=".95"/><rect class="d" x="8.57" y="7.62" width=".95" height=".95"/><rect class="d" x="8.57" y="6.67" width=".95" height=".95"/><rect x="8.57" y="5.71" width=".95" height=".96"/><rect x="7.62" y="13.33" width=".95" height=".95"/><rect class="c" x="7.62" y="12.38" width=".95" height=".95"/><rect class="c" x="7.62" y="11.43" width=".95" height=".95"/><rect x="7.62" y="10.47" width=".95" height=".96"/><rect class="c" x="7.62" y="9.52" width=".95" height=".95"/><rect class="c" x="7.62" y="8.57" width=".95" height=".95"/><rect class="c" x="7.62" y="7.62" width=".95" height=".95"/><rect class="c" x="7.62" y="6.67" width=".95" height=".95"/><rect x="7.62" y="5.71" width=".95" height=".96"/><rect x="6.66" y="13.33" width=".96" height=".95"/><rect class="c" x="6.66" y="12.38" width=".96" height=".95"/><rect class="c" x="6.66" y="11.43" width=".96" height=".95"/><rect class="c" x="6.66" y="10.47" width=".96" height=".96"/><rect class="c" x="6.66" y="9.52" width=".96" height=".95"/><rect class="c" x="6.66" y="8.57" width=".96" height=".95"/><rect class="c" x="6.66" y="7.62" width=".96" height=".95"/><rect class="c" x="6.66" y="6.67" width=".96" height=".95"/><rect class="c" x="6.66" y="5.71" width=".96" height=".96"/><rect x="6.66" y="4.76" width=".96" height=".95"/><rect x="6.66" y="2.86" width=".96" height=".95"/><rect x="6.66" y="1.9" width=".96" height=".96"/><rect x="6.66" y=".95" width=".96" height=".95"/><rect x="5.71" y="13.33" width=".95" height=".95"/><rect class="c" x="5.71" y="12.38" width=".95" height=".95"/><rect class="c" x="5.71" y="11.43" width=".95" height=".95"/><rect class="c" x="5.71" y="10.47" width=".95" height=".96"/><rect class="c" x="5.71" y="9.52" width=".95" height=".95"/><rect class="c" x="5.71" y="8.57" width=".95" height=".95"/><rect class="c" x="5.71" y="7.62" width=".95" height=".95"/><rect x="5.71" y="6.67" width=".95" height=".95"/><rect x="5.71" y="5.71" width=".95" height=".96"/><rect x="5.71" y="4.76" width=".95" height=".95"/><rect x="5.71" y="3.81" width=".95" height=".95"/><rect x="5.71" y="1.9" width=".95" height=".96"/><rect x="5.71" width=".95" height=".95"/><rect x="4.76" y="12.38" width=".95" height=".95"/><rect class="c" x="4.76" y="11.43" width=".95" height=".95"/><rect class="c" x="4.76" y="10.47" width=".95" height=".96"/><rect class="c" x="4.76" y="9.52" width=".95" height=".95"/><rect class="c" x="4.76" y="8.57" width=".95" height=".95"/><rect class="c" x="4.76" y="7.62" width=".95" height=".95"/><rect class="c" x="4.76" y="6.67" width=".95" height=".95"/><rect class="c" x="4.76" y="5.71" width=".95" height=".96"/><rect x="4.76" y="4.76" width=".95" height=".95"/><rect x="4.76" y="2.86" width=".95" height=".95"/><rect x="4.76" y="1.9" width=".95" height=".96"/><rect x="4.76" y=".95" width=".95" height=".95"/><rect x="3.81" y="16.19" width=".95" height=".95"/><rect x="3.81" y="14.28" width=".95" height=".96"/><rect x="3.81" y="13.33" width=".95" height=".95"/><rect x="3.81" y="11.43" width=".95" height=".95"/><rect x="3.81" y="10.47" width=".95" height=".96"/><rect class="c" x="3.81" y="9.52" width=".95" height=".95"/><rect x="3.81" y="8.57" width=".95" height=".95"/><rect class="c" x="3.81" y="7.62" width=".95" height=".95"/><rect class="c" x="3.81" y="6.67" width=".95" height=".95"/><rect x="3.81" y="5.71" width=".95" height=".96"/><rect x="2.85" y="16.19" width=".96" height=".95"/><rect x="2.85" y="15.24" width=".96" height=".95"/><rect x="2.85" y="9.52" width=".96" height=".95"/><rect x="2.85" y="8.57" width=".96" height=".95"/><rect x="2.85" y="7.62" width=".96" height=".95"/><rect x="2.85" y="6.67" width=".96" height=".95"/><rect x="1.9" y="16.19" width=".95" height=".95"/><rect x="1.9" y="8.57" width=".95" height=".95"/><rect x=".95" y="7.62" width=".95" height=".95"/><rect y="6.67" width=".95" height=".95"/></svg>