<?xml version="1.0" encoding="UTF-8"?><svg id="a" xmlns="http://www.w3.org/2000/svg" viewBox="0 0 11.76 10.79"><defs><style>.b{fill:#231f20;}</style></defs><rect class="b" x="10.78" y="4.91" width=".98" height=".98"/><rect class="b" x="9.8" y="6.87" width=".98" height=".98"/><rect class="b" x="9.8" y="5.89" width=".98" height=".98"/><rect class="b" x="9.8" y="4.91" width=".98" height=".98"/><rect class="b" x="9.8" y="3.92" width=".98" height=".99"/><rect class="b" x="9.8" y="2.94" width=".98" height=".98"/><rect class="b" x="9.8" y="1.96" width=".98" height=".98"/><rect class="b" x="8.82" y="7.85" width=".98" height=".98"/><rect class="b" x="8.82" y="4.91" width=".98" height=".98"/><rect class="b" x="8.82" y=".98" width=".98" height=".98"/><rect class="b" x="7.84" y="8.83" width=".98" height=".98"/><rect class="b" x="7.84" width=".98" height=".98"/><rect class="b" x="6.86" y="7.85" width=".98" height=".98"/><rect class="b" x="6.86" y="1.96" width=".98" height=".98"/><rect class="b" x="6.86" width=".98" height=".98"/><rect class="b" x="5.88" y="7.85" width=".98" height=".98"/><rect class="b" x="5.88" y="4.91" width=".98" height=".98"/><rect class="b" x="5.88" y="3.92" width=".98" height=".99"/><rect class="b" x="5.88" width=".98" height=".98"/><rect class="b" x="4.9" y="7.85" width=".98" height=".98"/><rect class="b" x="4.9" y="4.91" width=".98" height=".98"/><rect class="b" x="4.9" y="3.92" width=".98" height=".99"/><rect class="b" x="4.9" width=".98" height=".98"/><rect class="b" x="3.92" y="8.83" width=".98" height=".98"/><rect class="b" x="3.92" y="7.85" width=".98" height=".98"/><rect class="b" x="3.92" y="1.96" width=".98" height=".98"/><rect class="b" x="3.92" width=".98" height=".98"/><rect class="b" x="2.94" y="9.81" width=".98" height=".98"/><rect class="b" x="2.94" width=".98" height=".98"/><rect class="b" x="1.96" y="8.83" width=".98" height=".98"/><rect class="b" x="1.96" y="7.85" width=".98" height=".98"/><rect class="b" x="1.96" y=".98" width=".98" height=".98"/><rect class="b" x=".98" y="6.87" width=".98" height=".98"/><rect class="b" x=".98" y="5.89" width=".98" height=".98"/><rect class="b" x=".98" y="4.91" width=".98" height=".98"/><rect class="b" x=".98" y="3.92" width=".98" height=".99"/><rect class="b" x=".98" y="2.94" width=".98" height=".98"/><rect class="b" x=".98" y="1.96" width=".98" height=".98"/><rect class="b" y="4.91" width=".98" height=".98"/></svg>