<svg id="base_layer" data-name="base layer" xmlns="http://www.w3.org/2000/svg" viewBox="0 0 11.76 10.78"><defs><style>.cls-1{fill:none;}</style></defs><path class="cls-1" d="M9.8,5.88h-1v-1h1V2h-1V1H2.94V2H2V7.84h1v2h1v-2H7.84v1h1v-1h1v-2ZM3.92,2.94V2h1v1Zm2.94,2h-2v-1h2Zm1-2h-1V2h1Z"/><rect x="10.78" y="4.9" width="0.98" height="0.98"/><rect x="9.8" y="6.86" width="0.98" height="0.98"/><rect x="9.8" y="5.88" width="0.98" height="0.98"/><rect x="9.8" y="4.9" width="0.98" height="0.98"/><rect x="9.8" y="3.92" width="0.98" height="0.98"/><rect x="9.8" y="2.94" width="0.98" height="0.98"/><rect x="9.8" y="1.96" width="0.98" height="0.98"/><rect x="8.82" y="7.84" width="0.98" height="0.98"/><rect x="8.82" y="4.9" width="0.98" height="0.98"/><rect x="8.82" y="0.98" width="0.98" height="0.98"/><rect x="7.84" y="8.82" width="0.98" height="0.98"/><rect x="7.84" width="0.98" height="0.98"/><rect x="6.86" y="7.84" width="0.98" height="0.98"/><rect x="6.86" y="1.96" width="0.98" height="0.98"/><rect x="6.86" width="0.98" height="0.98"/><rect x="5.88" y="7.84" width="0.98" height="0.98"/><rect x="5.88" y="3.92" width="0.98" height="0.98"/><rect x="5.88" width="0.98" height="0.98"/><rect x="4.9" y="7.84" width="0.98" height="0.98"/><rect x="4.9" y="3.92" width="0.98" height="0.98"/><rect x="4.9" width="0.98" height="0.98"/><rect x="3.92" y="8.82" width="0.98" height="0.98"/><rect x="3.92" y="7.84" width="0.98" height="0.98"/><rect x="3.92" y="1.96" width="0.98" height="0.98"/><rect x="3.92" width="0.98" height="0.98"/><rect x="2.94" y="9.8" width="0.98" height="0.98"/><rect x="2.94" width="0.98" height="0.98"/><rect x="1.96" y="8.82" width="0.98" height="0.98"/><rect x="1.96" y="7.84" width="0.98" height="0.98"/><rect x="1.96" y="0.98" width="0.98" height="0.98"/><rect x="0.98" y="6.86" width="0.98" height="0.98"/><rect x="0.98" y="5.88" width="0.98" height="0.98"/><rect x="0.98" y="4.9" width="0.98" height="0.98"/><rect x="0.98" y="3.92" width="0.98" height="0.98"/><rect x="0.98" y="2.94" width="0.98" height="0.98"/><rect x="0.98" y="1.96" width="0.98" height="0.98"/><rect y="4.9" width="0.98" height="0.98"/></svg>